<svg xmlns="http://www.w3.org/2000/svg" xmlns:xlink="http://www.w3.org/1999/xlink" width="200" height="200" viewBox="0 0 200 200">
  <defs>
    <clipPath id="clip-path">
      <path id="Path_69143" data-name="Path 69143" d="M-1434.674-6326.714l-18.277,10.551s-5.054,11.858-5.161,22.818l23.439-18.021Z" transform="translate(1458.112 6326.714)" fill="none"/>
    </clipPath>
  </defs>
  <g id="dropdown-2C-brokers" transform="translate(10549 14549)">
    <rect id="Rectangle_2275" data-name="Rectangle 2275" width="200" height="200" transform="translate(-10549 -14549)" fill="none"/>
    <g id="Group_22241" data-name="Group 22241" transform="translate(-9066.225 -8129.937)">
      <g id="Group_22095" data-name="Group 22095" transform="translate(-1461.639 -6293.707)">
        <g id="Group_22093" data-name="Group 22093">
          <g id="Group_22084" data-name="Group 22084" transform="translate(0 0.43)">
            <path id="Path_38861" data-name="Path 38861" d="M-1463.724-6305.033a.738.738,0,0,1,.333-.7l.024-.013.025-.015.025-.013.025-.014.024-.013.025-.014.025-.014.025-.012.024-.014.025-.014.024-.013.025-.013.025-.015.025-.012.024-.014.025-.014.025-.014.025-.014.024-.012.025-.014.025-.012.025-.014.024-.014.025-.012.025-.015a.744.744,0,0,1,.757.075l2.207,1.273a2.358,2.358,0,0,1,1.066,1.849v6.071a.741.741,0,0,1-.334.7l-.024.013-.025.013-.025.013-.025.014-.025.013-.025.014-.024.014-.025.013-.025.015-.025.012-.024.014-.025.013-.025.014-.025.013-.025.013-.024.013-.025.014-.025.013-.025.014-.024.014-.025.012-.025.013-.025.014-.024.014-.026.014a.745.745,0,0,1-.757-.075l-2.206-1.273a2.36,2.36,0,0,1-1.066-1.849Z" transform="translate(1463.729 6306.138)" fill="#d4ecff"/>
          </g>
          <g id="Group_22085" data-name="Group 22085" transform="translate(2.317)">
            <path id="Path_38862" data-name="Path 38862" d="M-1461.693-6305.834c0-.609.429-.856.956-.553l2.811,1.628v.383l-2.811-1.628c-.344-.2-.625-.036-.625.361v.375l-.331-.2Z" transform="translate(1461.694 6306.517)" fill="#d4ecff"/>
          </g>
          <g id="Group_22086" data-name="Group 22086" transform="translate(2.319 2.818)">
            <path id="Path_38863" data-name="Path 38863" d="M-1461.362-6303.944v7.042a1.383,1.383,0,0,0,.624,1.082l2.851,1.646v.381l-2.851-1.645a2.115,2.115,0,0,1-.956-1.655v-6.948A.771.771,0,0,0-1461.362-6303.944Z" transform="translate(1461.693 6304.042)" fill="#d4ecff"/>
          </g>
          <g id="Group_22087" data-name="Group 22087" transform="translate(2.04 0.184)">
            <path id="Path_38864" data-name="Path 38864" d="M-1457.891-6304.787l-.369.221-2.865-1.552h-.226l.014.845-.361.2-.24-.476.4-.467.546-.339Z" transform="translate(1461.938 6306.355)" fill="#d4ecff"/>
          </g>
          <g id="Group_22088" data-name="Group 22088" transform="translate(1.952 0.22)">
            <path id="Path_38865" data-name="Path 38865" d="M-1462.015-6305.641c0-.607.428-.857.956-.552l2.811,1.627v.383l-2.811-1.627c-.344-.2-.624-.037-.624.361v.374l-.331-.2Z" transform="translate(1462.015 6306.323)" fill="#023b7d"/>
          </g>
          <g id="Group_22089" data-name="Group 22089" transform="translate(2.265 9.942)">
            <path id="Path_38866" data-name="Path 38866" d="M-1457.881-6295.043l-.369.222-2.258-1.13-1.068-.695-.155-.508-.008-.631.546.843,1.451.961Z" transform="translate(1461.74 6297.786)" fill="#d4ecff"/>
          </g>
          <g id="Group_22090" data-name="Group 22090" transform="translate(1.952 3.041)">
            <path id="Path_38867" data-name="Path 38867" d="M-1461.684-6303.747v7.04a1.384,1.384,0,0,0,.624,1.083l2.85,1.646v.381l-2.85-1.644a2.118,2.118,0,0,1-.956-1.657v-6.947A.8.8,0,0,0-1461.684-6303.747Z" transform="translate(1462.015 6303.846)" fill="#023b7d"/>
          </g>
          <g id="Group_22092" data-name="Group 22092" transform="translate(0.002 0.772)">
            <g id="Group_22091" data-name="Group 22091">
              <path id="Path_38868" data-name="Path 38868" d="M-1462.66-6297.157l2.206,1.273c.591.341,1.066.065,1.066-.616v-6.072a2.358,2.358,0,0,0-1.066-1.848l-2.206-1.274c-.592-.339-1.067-.064-1.067.616v6.071A2.355,2.355,0,0,0-1462.66-6297.157Z" transform="translate(1463.727 6305.838)" fill="#023b7d"/>
            </g>
          </g>
        </g>
        <g id="Group_22094" data-name="Group 22094" transform="translate(5.755 12.685)">
          <path id="Path_38869" data-name="Path 38869" d="M-1458.307-6295.378l-.369.222v.383l.369-.223Z" transform="translate(1458.676 6295.378)" fill="#353636"/>
        </g>
      </g>
      <g id="Group_22096" data-name="Group 22096" transform="translate(-1301.688 -6326.784)">
        <path id="Path_38870" data-name="Path 38870" d="M-1310.339-6325.5l-12.942-7.341,4.7-2.367,5.261-.355a20.417,20.417,0,0,1,2.275.415c.326.147,1.035,1.626,1.035,1.626l.3,1.715s.089,1.271.148,1.509S-1310.339-6325.5-1310.339-6325.5Z" transform="translate(1323.281 6335.561)" fill="#4b4854"/>
      </g>
      <g id="Group_22097" data-name="Group 22097" transform="translate(-1328.882 -6315.549)">
        <path id="Path_38871" data-name="Path 38871" d="M-1334.057-6311.258l-13.1-7.609,11.145-6.829h3.133s-.148,2.219-.178,2.336S-1334.057-6311.258-1334.057-6311.258Z" transform="translate(1347.159 6325.695)" fill="#023b7d"/>
      </g>
      <g id="Group_22107" data-name="Group 22107" transform="translate(-1306.347 -6327.967)">
        <g id="Group_22106" data-name="Group 22106" transform="translate(0 0)">
          <g id="Group_22098" data-name="Group 22098" transform="translate(0)">
            <ellipse id="Ellipse_782" data-name="Ellipse 782" cx="7.534" cy="4.35" rx="7.534" ry="4.35" transform="translate(0 13.049) rotate(-59.999)" fill="#023b7d"/>
          </g>
          <g id="Group_22099" data-name="Group 22099" transform="translate(3.88 2.109)">
            <path id="Path_38872" data-name="Path 38872" d="M-1313.1-6332.717l-3.574-2.03-7.294,13.182,3.731,2.132Z" transform="translate(1323.965 6334.747)" fill="#023b7d"/>
          </g>
          <g id="Group_22105" data-name="Group 22105" transform="translate(3.685 2.101)">
            <g id="Group_22100" data-name="Group 22100" transform="translate(0 0)">
              <ellipse id="Ellipse_783" data-name="Ellipse 783" cx="7.534" cy="4.35" rx="7.534" ry="4.35" transform="translate(0 13.049) rotate(-59.999)" fill="#00bdf2"/>
            </g>
            <g id="Group_22101" data-name="Group 22101" transform="translate(2.704 3.025)">
              <ellipse id="Ellipse_784" data-name="Ellipse 784" cx="4.886" cy="2.821" rx="4.886" ry="2.821" transform="translate(0 8.462) rotate(-59.999)" fill="#d4ecff"/>
            </g>
            <g id="Group_22104" data-name="Group 22104" transform="translate(5.33 5.681)">
              <g id="Group_22103" data-name="Group 22103">
                <g id="Group_22102" data-name="Group 22102">
                  <path id="Path_38873" data-name="Path 38873" d="M-1316.717-6324.449c-.195.112-.37.057-.415-.141a.9.9,0,0,1,.321-.77c.228-.189.456-.156.5.08a.884.884,0,0,1-.316.768A.777.777,0,0,1-1316.717-6324.449Zm-1.6.5a.315.315,0,0,1-.262.043c-.181-.06-.211-.35-.067-.644s.413-.481.592-.421.211.35.064.651A.922.922,0,0,1-1318.322-6323.951Zm2.9-2.423a.382.382,0,0,1-.186.06c-.211,0-.295-.239-.194-.541s.354-.545.565-.55.3.238.195.54a.927.927,0,0,1-.38.492Zm-3.608,1.125c-.231.132-.421.022-.421-.244v-.029a.928.928,0,0,1,.429-.731c.232-.135.418-.023.415.253v.021a.928.928,0,0,1-.423.731Zm3.617-3.029c-.156.09-.307.073-.379-.059a.762.762,0,0,1,.2-.763c.211-.238.464-.277.565-.1a.785.785,0,0,1-.2.77.836.836,0,0,1-.182.149Zm-2.884.878a.286.286,0,0,1-.334.006c-.144-.131-.109-.458.074-.731s.444-.385.592-.257.109.458-.074.728a.843.843,0,0,1-.262.255Zm1.608-1.332a.408.408,0,0,1-.1.04c-.229.075-.37-.108-.313-.4a.87.87,0,0,1,.507-.651c.229-.074.37.109.312.4a.931.931,0,0,1-.415.611Z" transform="translate(1319.456 6329.765)" fill="#023b7d"/>
                </g>
              </g>
            </g>
          </g>
        </g>
      </g>
      <g id="Group_22117" data-name="Group 22117" transform="translate(-1317.647 -6319.906)">
        <g id="Group_22116" data-name="Group 22116" transform="translate(0 0)">
          <g id="Group_22108" data-name="Group 22108" transform="translate(0)">
            <ellipse id="Ellipse_785" data-name="Ellipse 785" cx="7.534" cy="4.35" rx="7.534" ry="4.35" transform="translate(0 13.049) rotate(-59.999)" fill="#023b7d"/>
          </g>
          <g id="Group_22109" data-name="Group 22109" transform="translate(3.88 2.109)">
            <path id="Path_38874" data-name="Path 38874" d="M-1323.02-6325.639l-3.573-2.03-7.294,13.182,3.731,2.133Z" transform="translate(1333.887 6327.669)" fill="#023b7d"/>
          </g>
          <g id="Group_22115" data-name="Group 22115" transform="translate(3.685 2.102)">
            <g id="Group_22110" data-name="Group 22110" transform="translate(0 0)">
              <ellipse id="Ellipse_786" data-name="Ellipse 786" cx="7.534" cy="4.35" rx="7.534" ry="4.35" transform="translate(0 13.049) rotate(-59.999)" fill="#00bdf2"/>
            </g>
            <g id="Group_22111" data-name="Group 22111" transform="translate(2.704 3.025)">
              <ellipse id="Ellipse_787" data-name="Ellipse 787" cx="4.886" cy="2.821" rx="4.886" ry="2.821" transform="translate(0 8.462) rotate(-59.999)" fill="#d4ecff"/>
            </g>
            <g id="Group_22114" data-name="Group 22114" transform="translate(5.33 5.68)">
              <g id="Group_22113" data-name="Group 22113">
                <g id="Group_22112" data-name="Group 22112">
                  <path id="Path_38875" data-name="Path 38875" d="M-1326.639-6317.37c-.195.112-.37.056-.413-.142a.892.892,0,0,1,.32-.77c.228-.19.456-.156.5.082a.883.883,0,0,1-.317.767C-1326.576-6317.411-1326.607-6317.39-1326.639-6317.37Zm-1.6.5a.32.32,0,0,1-.262.044c-.182-.062-.211-.351-.068-.644s.413-.483.592-.422.211.351.063.65a.908.908,0,0,1-.326.371Zm2.894-2.422a.386.386,0,0,1-.186.058c-.211.005-.295-.239-.193-.541s.354-.545.566-.551.3.238.195.54a.935.935,0,0,1-.381.492Zm-3.608,1.123c-.232.135-.421.025-.421-.243v-.029a.927.927,0,0,1,.431-.731c.232-.133.418-.021.413.253v.021a.93.93,0,0,1-.423.73Zm3.616-3.028c-.155.089-.308.074-.379-.058a.76.76,0,0,1,.2-.762c.211-.239.465-.279.566-.1a.784.784,0,0,1-.2.77A.756.756,0,0,1-1325.341-6321.2Zm-2.884.877a.286.286,0,0,1-.333.008c-.144-.133-.109-.459.074-.731s.444-.385.592-.257.109.458-.074.728a.83.83,0,0,1-.261.253Zm1.608-1.331a.52.52,0,0,1-.1.042c-.228.074-.37-.109-.312-.405a.87.87,0,0,1,.506-.653c.229-.074.37.109.313.4a.93.93,0,0,1-.412.61Z" transform="translate(1329.378 6322.687)" fill="#023b7d"/>
                </g>
              </g>
            </g>
          </g>
        </g>
      </g>
      <g id="Group_22121" data-name="Group 22121" transform="translate(-1438.974 -6398.757)">
        <g id="Group_22118" data-name="Group 22118" transform="translate(0 39.67)">
          <path id="Path_38876" data-name="Path 38876" d="M-1443.827-6291.064l114.9-66.3v-6.562l-114.9,66.3Z" transform="translate(1443.827 6363.923)" fill="#00bdf2"/>
        </g>
        <g id="Group_22119" data-name="Group 22119" transform="translate(34.819 44.208)">
          <path id="Path_38877" data-name="Path 38877" d="M-1333.167-6359.939v14.426l-2.97,1.713v-3.85c0-4.338-3.047-6.1-6.8-3.928l-60.744,35.033a15.038,15.038,0,0,0-6.8,11.786v3.851l-2.765,1.6v-14.426Z" transform="translate(1413.254 6359.939)" fill="#00bdf2"/>
        </g>
        <g id="Group_22120" data-name="Group 22120" transform="translate(9.527)">
          <path id="Path_38878" data-name="Path 38878" d="M-1435.462-6338.192l104.972-60.565v37.943l-104.972,60.566Z" transform="translate(1435.462 6398.758)" fill="#e0d9ce"/>
        </g>
      </g>
      <g id="Group_22126" data-name="Group 22126" transform="translate(-1438.974 -6377.069)">
        <g id="Group_22122" data-name="Group 22122" transform="translate(38.293 39.67)">
          <path id="Path_38879" data-name="Path 38879" d="M-1410.2-6272.02l114.9-66.3v-6.562l-114.9,66.3Z" transform="translate(1410.203 6344.881)" fill="#023b7d"/>
        </g>
        <g id="Group_22123" data-name="Group 22123" transform="translate(123.195 44.208)">
          <path id="Path_38880" data-name="Path 38880" d="M-1305.65-6340.9v14.427l-2.97,1.714v-3.85c0-4.338-3.048-6.1-6.8-3.929l-10.662,6.156a15.04,15.04,0,0,0-6.8,11.785v3.849l-2.765,1.6v-14.428Z" transform="translate(1335.654 6340.896)" fill="#00bdf2"/>
        </g>
        <g id="Group_22124" data-name="Group 22124" transform="translate(0 34.077)">
          <path id="Path_38881" data-name="Path 38881" d="M-1405.534-6277.9l-38.293-21.688,22.021-12.89,121.427-37.313,9.745,5.593Z" transform="translate(1443.827 6349.792)" fill="#d4ecff"/>
        </g>
        <g id="Group_22125" data-name="Group 22125" transform="translate(47.815)">
          <path id="Path_38882" data-name="Path 38882" d="M-1401.842-6319.148l104.972-60.566v37.944l-104.972,60.566Z" transform="translate(1401.842 6379.714)" fill="#00bdf2"/>
        </g>
      </g>
      <g id="Group_22127" data-name="Group 22127" transform="translate(-1429.451 -6398.757)">
        <path id="Path_38883" data-name="Path 38883" d="M-1397.173-6316.5l-38.292-21.688,104.972-60.565,38.292,21.688Z" transform="translate(1435.465 6398.758)" fill="#d4ecff"/>
      </g>
      <g id="Group_22128" data-name="Group 22128" transform="translate(-1429.447 -6338.189)">
        <path id="Path_38884" data-name="Path 38884" d="M-1435.462-6307.637l38.292,21.688v-37.942l-38.292-21.683Z" transform="translate(1435.462 6345.574)" fill="#023b7d"/>
      </g>
      <g id="Group_22129" data-name="Group 22129" transform="translate(-1439.665 -6292.488)">
        <path id="Path_38885" data-name="Path 38885" d="M-1404.776-6276.189l-39.658-22.461v-6.8l39.658,22.461Z" transform="translate(1444.434 6305.446)" fill="#44424d"/>
      </g>
      <g id="Group_22134" data-name="Group 22134" transform="translate(-1404.597 -6276.508)">
        <g id="Group_22131" data-name="Group 22131">
          <g id="Group_22130" data-name="Group 22130">
            <path id="Path_38886" data-name="Path 38886" d="M-1402.511-6277.107l-11.018-6.367.459-4.43-.572-3.511,9.92,2.858S-1401.01-6284.229-1402.511-6277.107Z" transform="translate(1413.642 6291.415)" fill="#023b7d"/>
          </g>
        </g>
      </g>
      <g id="Group_22153" data-name="Group 22153" transform="translate(-1458.479 -6321.714)">
        <g id="Group_22151" data-name="Group 22151">
          <g id="Group_22137" data-name="Group 22137">
            <g id="Group_22136" data-name="Group 22136">
              <path id="Path_38888" data-name="Path 38888" d="M-1456.028-6313.564a8.8,8.8,0,0,1,3.524-4.456l22.676-13.088v29.732c-1.012.513-2.214,1.167-3.638,1.988l-4.241,2.45a15.158,15.158,0,0,0-6.858,11.878v2.366c0,.182.008.356.017.528l-16.406,9.251v-18.278A89.386,89.386,0,0,1-1456.028-6313.564Z" transform="translate(1460.954 6331.108)" fill="#023b7d"/>
            </g>
          </g>
          <g id="Group_22143" data-name="Group 22143" transform="translate(3.237 5.004)">
            <path id="Path_38889" data-name="Path 38889" d="M-1434.674-6326.714l-18.277,10.551s-5.054,11.858-5.161,22.818l23.439-18.021Z" transform="translate(1458.112 6326.714)" fill="#536873"/>
            <g id="Group_38410" data-name="Group 38410">
              <g id="Group_38409" data-name="Group 38409" clip-path="url(#clip-path)">
                <g id="Group_22142" data-name="Group 22142" transform="translate(-3.923 2.327)">
                  <g id="Group_22139" data-name="Group 22139" transform="translate(6.257)">
                    <g id="Group_22138" data-name="Group 22138">
                      <path id="Path_38890" data-name="Path 38890" d="M-1448.746-6324.672l21.53,21.246-4.348,3.981-24.5-22.717Z" transform="translate(1456.063 6324.672)" fill="#6f8691"/>
                    </g>
                  </g>
                  <g id="Group_22141" data-name="Group 22141" transform="translate(0 5.324)">
                    <g id="Group_22140" data-name="Group 22140">
                      <path id="Path_38891" data-name="Path 38891" d="M-1458.269-6320l23.226,21-1.378,1.654-25.136-21.373Z" transform="translate(1461.557 6319.996)" fill="#6f8691"/>
                    </g>
                  </g>
                </g>
              </g>
            </g>
          </g>
          <g id="Group_22146" data-name="Group 22146" transform="translate(20.913 7.717)">
            <g id="Group_22145" data-name="Group 22145">
              <g id="Group_22144" data-name="Group 22144">
                <path id="Path_38893" data-name="Path 38893" d="M-1441.672-6306.289l-.919.531V-6323.8l.919-.53Z" transform="translate(1442.591 6324.333)" fill="#7ad5de"/>
              </g>
            </g>
          </g>
          <g id="Group_22148" data-name="Group 22148" transform="translate(14.627 31.148)">
            <g id="Group_22147" data-name="Group 22147" transform="translate(0 0)">
              <ellipse id="Ellipse_788" data-name="Ellipse 788" cx="9.591" cy="5.537" rx="9.591" ry="5.537" transform="translate(0 16.612) rotate(-60)" fill="#adadad"/>
            </g>
          </g>
          <g id="Group_22150" data-name="Group 22150" transform="translate(31.074 27.934)">
            <g id="Group_22149" data-name="Group 22149">
              <path id="Path_38894" data-name="Path 38894" d="M-1433.618-6304.784s2.337,3.624,1.436,11.063l.583-.275s1.166-8.817-2.07-12.584Z" transform="translate(1433.669 6306.581)" fill="#545454"/>
            </g>
          </g>
        </g>
      </g>
      <g id="Group_22155" data-name="Group 22155" transform="translate(-1451.829 -6321.713)">
        <g id="Group_22154" data-name="Group 22154">
          <path id="Path_38895" data-name="Path 38895" d="M-1455.115-6316.479l32.412,18.981,10.531-.813,13.984-14.076-32.452-18.723s-22.229,12.755-23.168,13.386A4.562,4.562,0,0,0-1455.115-6316.479Z" transform="translate(1455.115 6331.108)" fill="#d4ecff"/>
        </g>
      </g>
      <g id="Group_22174" data-name="Group 22174" transform="translate(-1434.29 -6302.992)">
        <g id="Group_22171" data-name="Group 22171" transform="translate(0 5.003)">
          <g id="Group_22166" data-name="Group 22166" transform="translate(0 38.323)">
            <g id="Group_22165" data-name="Group 22165" transform="translate(0 0)">
              <g id="Group_22157" data-name="Group 22157">
                <ellipse id="Ellipse_789" data-name="Ellipse 789" cx="8.035" cy="4.639" rx="8.035" ry="4.639" transform="translate(0 13.916) rotate(-59.999)" fill="#023b7d"/>
              </g>
              <path id="Path_69144" data-name="Path 69144" d="M-1421.888-6268.172l-7.168-5.279a4.993,4.993,0,0,1-1.192-1.312s2.827-1.8,4.906-1.318C-1423.3-6275.6-1421.048-6273.882-1421.888-6268.172Z" transform="translate(1441.029 6276.689)" fill="#023b7d"/>
              <g id="Group_22109-2" data-name="Group 22109" transform="translate(3.983 2.201)">
                <path id="Path_38874-2" data-name="Path 38874" d="M-1424.658-6272.532l-3.8-2.161-7.758,14.021,3.969,2.267Z" transform="translate(1436.217 6274.692)" fill="#023b7d"/>
              </g>
              <g id="Group_22164" data-name="Group 22164" transform="translate(3.624 2.11)">
                <g id="Group_22159" data-name="Group 22159" transform="translate(0 0)">
                  <ellipse id="Ellipse_790" data-name="Ellipse 790" cx="8.035" cy="4.639" rx="8.035" ry="4.639" transform="translate(0 13.917) rotate(-60)" fill="#00bdf2"/>
                </g>
                <g id="Group_22160" data-name="Group 22160" transform="translate(2.884 3.225)">
                  <ellipse id="Ellipse_791" data-name="Ellipse 791" cx="5.211" cy="3.009" rx="5.211" ry="3.009" transform="translate(0 9.026) rotate(-60)" fill="#d4ecff"/>
                </g>
                <g id="Group_22163" data-name="Group 22163" transform="translate(5.687 6.058)">
                  <g id="Group_22162" data-name="Group 22162">
                    <g id="Group_22161" data-name="Group 22161">
                      <path id="Path_38897" data-name="Path 38897" d="M-1428.62-6263.782c-.207.12-.392.059-.443-.148a.954.954,0,0,1,.34-.822c.244-.2.488-.167.537.086a.941.941,0,0,1-.339.819C-1428.555-6263.825-1428.587-6263.8-1428.62-6263.782Zm-1.711.529a.33.33,0,0,1-.278.047c-.195-.064-.222-.374-.074-.686s.443-.519.634-.45.221.374.067.693a.967.967,0,0,1-.352.4Zm3.088-2.583a.4.4,0,0,1-.2.063c-.222.006-.314-.254-.207-.576s.378-.582.6-.587.316.255.207.578a.988.988,0,0,1-.405.525Zm-3.845,1.2c-.248.142-.451.025-.451-.26v-.031a.993.993,0,0,1,.46-.779c.247-.142.443-.023.443.269v.022a.988.988,0,0,1-.455.78Zm3.857-3.23c-.166.1-.329.079-.406-.063a.811.811,0,0,1,.212-.813c.221-.254.5-.3.6-.1a.839.839,0,0,1-.215.821.9.9,0,0,1-.2.158Zm-3.078.937a.305.305,0,0,1-.356.007c-.153-.14-.116-.489.082-.779s.477-.412.63-.276.117.489-.074.777a.9.9,0,0,1-.285.271Zm1.714-1.421a.55.55,0,0,1-.1.043c-.244.079-.393-.117-.334-.432a.926.926,0,0,1,.54-.7c.244-.078.393.117.334.432a1,1,0,0,1-.44.651Z" transform="translate(1431.539 6269.454)" fill="#023b7d"/>
                    </g>
                  </g>
                </g>
              </g>
            </g>
          </g>
          <g id="Group_22170" data-name="Group 22170" transform="translate(11.5)">
            <path id="Path_38899" data-name="Path 38899" d="M-1406.179-6310.276l-18.276,10.551s-5.056,11.858-5.161,22.817l23.438-18.02Z" transform="translate(1429.617 6310.276)" fill="#2d1f2e"/>
          </g>
        </g>
        <path id="Path_69145" data-name="Path 69145" d="M-1432.035-6274.606a91.392,91.392,0,0,1,5.444-22.52,8.785,8.785,0,0,1,3.524-4.454l22.676-13.088v40.153c-.764.441-7.341,4.283-12.622,7.286-1.93,1.1-6.691,3.863-7.646,4.42.593-3.373-.123-6.263-2.166-7.442-2.994-1.729-7.745.831-10.931,5.753a15.891,15.891,0,0,0-1.838,3.606,12.993,12.993,0,0,0-.864,7.192l-.1.063-2.679,1.607Z" transform="translate(1439.78 6314.668)" fill="#00bdf2"/>
        <g id="Group_22173" data-name="Group 22173" transform="translate(11.5 5.003)">
          <g id="Group_22172" data-name="Group 22172">
            <path id="Path_38900" data-name="Path 38900" d="M-1406.179-6310.276l-18.276,10.551s-5.056,11.858-5.161,22.817l23.438-18.02Z" transform="translate(1429.617 6310.276)" fill="#023b7d"/>
          </g>
        </g>
      </g>
      <g id="Group_22182" data-name="Group 22182" transform="translate(-1440.613 -6322.709)">
        <g id="Group_22179" data-name="Group 22179" transform="translate(0 0.001)">
          <g id="Group_22176" data-name="Group 22176">
            <g id="Group_22175" data-name="Group 22175">
              <path id="Path_38901" data-name="Path 38901" d="M-1413.594-6320.888l-19.137-11.092-12.534,15.05,19.137,11.094Z" transform="translate(1445.266 6331.98)" fill="#d4ecff"/>
            </g>
          </g>
          <g id="Group_22178" data-name="Group 22178" transform="translate(19.138 11.092)">
            <g id="Group_22177" data-name="Group 22177">
              <path id="Path_38902" data-name="Path 38902" d="M-1415.928-6322.241c-9.064,5.233-12.535,15.051-12.535,15.051l12.509-7.222Z" transform="translate(1428.462 6322.241)" fill="#00bdf2"/>
            </g>
          </g>
        </g>
        <g id="Group_22181" data-name="Group 22181">
          <g id="Group_22180" data-name="Group 22180">
            <path id="Path_38903" data-name="Path 38903" d="M-1432.731-6331.982c-9.064,5.233-12.534,15.051-12.534,15.051l12.51-7.223Z" transform="translate(1445.266 6331.982)" fill="#d4ecff"/>
          </g>
        </g>
      </g>
      <g id="Group_22193" data-name="Group 22193" transform="translate(-1422.452 -6274.887)">
        <g id="Group_22183" data-name="Group 22183" transform="translate(0.4 5.89)">
          <path id="Path_38904" data-name="Path 38904" d="M-1428.969-6279.926l2.849,1.645c.345.2.625.037.625-.361v-6.146c.03,0,.058.008.088.009a.627.627,0,0,0,.244-.039v6.366c0,.61-.429.856-.957.553l-2.849-1.646Z" transform="translate(1428.969 6284.819)" fill="#d4ecff"/>
        </g>
        <g id="Group_22184" data-name="Group 22184" transform="translate(1.419 2.601)">
          <path id="Path_38905" data-name="Path 38905" d="M-1428.069-6286.6a.743.743,0,0,1,.333-.7l.024-.012.025-.014.025-.014.025-.013.024-.015.025-.012.025-.015.025-.013.024-.014.025-.014.025-.012.025-.014.025-.014.025-.014.025-.013.024-.013.025-.013.025-.014.025-.013.025-.015.025-.013.024-.014.025-.014.024-.012.025-.015a.748.748,0,0,1,.758.074l2.206,1.274a2.356,2.356,0,0,1,1.066,1.849v6.071a.738.738,0,0,1-.334.7l-.025.014-.025.013-.024.013-.024.013-.026.014-.025.014-.024.013-.025.013-.024.014-.025.014-.025.013-.025.014-.024.012-.025.014-.025.014-.025.014-.024.014-.025.012-.025.015-.025.013-.024.014-.025.014-.024.013-.025.014-.025.014a.745.745,0,0,1-.757-.075l-2.206-1.274a2.358,2.358,0,0,1-1.067-1.848Z" transform="translate(1428.074 6287.708)" fill="#d4ecff"/>
        </g>
        <g id="Group_22185" data-name="Group 22185" transform="translate(0.293)">
          <path id="Path_38906" data-name="Path 38906" d="M-1425.628-6286.9a1.386,1.386,0,0,0-.625-1.084l-2.81-1.626v-.383l2.81,1.628a2.115,2.115,0,0,1,.957,1.656v.176l-.331-.182Z" transform="translate(1429.063 6289.991)" fill="#d4ecff"/>
        </g>
        <g id="Group_22186" data-name="Group 22186" transform="translate(0 0.004)">
          <path id="Path_38907" data-name="Path 38907" d="M-1429.031-6289.987l-.289.181,1.552.911,1.6,1.146.444.74.17.656.289-.182-.129-.513-.3-.641-.429-.362Z" transform="translate(1429.32 6289.987)" fill="#d4ecff"/>
        </g>
        <g id="Group_22187" data-name="Group 22187" transform="translate(0.002 0.182)">
          <path id="Path_38908" data-name="Path 38908" d="M-1425.883-6286.741a1.388,1.388,0,0,0-.624-1.083l-2.811-1.626v-.381l2.811,1.626a2.115,2.115,0,0,1,.956,1.656v.176l-.331-.184Z" transform="translate(1429.318 6289.831)" fill="#023b7d"/>
        </g>
        <g id="Group_22188" data-name="Group 22188" transform="translate(0.026 10.783)">
          <path id="Path_38909" data-name="Path 38909" d="M-1428.923-6280.524l-.374.208,1.886,1.257,1.338.566.155.319.16-.046a3.339,3.339,0,0,0,.43-.255c.064-.067-.014-.152-.014-.152l-.3.028-.444-.095Z" transform="translate(1429.297 6280.524)" fill="#d4ecff"/>
        </g>
        <g id="Group_22189" data-name="Group 22189" transform="translate(0.026 10.783)">
          <path id="Path_38910" data-name="Path 38910" d="M-1428.923-6280.524l-.374.208,1.886,1.257,1.338.566.155.319.16-.046a3.339,3.339,0,0,0,.43-.255c.064-.067-.014-.152-.014-.152l-.3.028-.444-.095Z" transform="translate(1429.297 6280.524)" fill="#d4ecff"/>
        </g>
        <g id="Group_22190" data-name="Group 22190" transform="translate(0.026 6.096)">
          <path id="Path_38911" data-name="Path 38911" d="M-1429.3-6279.744l2.849,1.645c.345.2.625.038.625-.361v-6.146c.03,0,.058.007.088.009a.609.609,0,0,0,.244-.04v6.369c0,.608-.429.855-.957.551l-2.849-1.646Z" transform="translate(1429.297 6284.638)" fill="#023b7d"/>
        </g>
        <g id="Group_22192" data-name="Group 22192" transform="translate(1.424 2.945)">
          <g id="Group_22191" data-name="Group 22191">
            <path id="Path_38912" data-name="Path 38912" d="M-1427-6278.723l2.206,1.273c.592.34,1.067.064,1.067-.616v-6.07a2.359,2.359,0,0,0-1.067-1.849l-2.206-1.274c-.591-.341-1.066-.065-1.066.616v6.071A2.359,2.359,0,0,0-1427-6278.723Z" transform="translate(1428.07 6287.405)" fill="#023b7d"/>
          </g>
        </g>
      </g>
      <g id="Group_22194" data-name="Group 22194" transform="translate(-1458.029 -6307.084)">
        <path id="Path_38913" data-name="Path 38913" d="M-1460.559-6295.262l32.5,18.371c1.521-10.593,3.391-16.521,5.9-22.564l-32.2-18.808A94.28,94.28,0,0,0-1460.559-6295.262Z" transform="translate(1460.559 6318.263)" fill="#023b7d"/>
      </g>
      <g id="Group_22240" data-name="Group 22240" transform="translate(-1478.775 -6284.535)">
        <g id="Group_22197" data-name="Group 22197" transform="translate(0.001 20.204)">
          <g id="Group_22196" data-name="Group 22196">
            <g id="Group_22195" data-name="Group 22195">
              <path id="Path_38914" data-name="Path 38914" d="M-1478.774-6276.957l6.417-3.765,3.128,5.724-5.83,3.365c-1.531.887-2.837.358-3.084-1.245Z" transform="translate(1478.774 6280.722)" fill="#023b7d"/>
            </g>
          </g>
        </g>
        <g id="Group_22199" data-name="Group 22199" transform="translate(0.005 20.203)">
          <g id="Group_22198" data-name="Group 22198">
            <path id="Path_38915" data-name="Path 38915" d="M-1470.062-6279.437l-2.292-1.286-6.417,3.767,2.292,1.286Z" transform="translate(1478.771 6280.724)" fill="#d4ecff"/>
          </g>
        </g>
        <g id="Group_22200" data-name="Group 22200" transform="translate(4.357)">
          <path id="Path_38916" data-name="Path 38916" d="M-1442.51-6268.209l-32.438-18.7,16.454-11.554,32.438,18.7Z" transform="translate(1474.949 6298.463)" fill="#d4ecff"/>
          <path id="Path_38917" data-name="Path 38917" d="M-1438.239-6256.56l8.227-25.486-16.454,11.555v18.7Z" transform="translate(1478.904 6300.743)" fill="#00bdf2"/>
          <path id="Path_38918" data-name="Path 38918" d="M-1474.949-6269.618v-18.7l32.438,18.7v18.7Z" transform="translate(1474.949 6299.872)" fill="#023b7d"/>
        </g>
        <g id="Group_22202" data-name="Group 22202" transform="translate(0.001 23.971)">
          <g id="Group_22201" data-name="Group 22201">
            <path id="Path_38919" data-name="Path 38919" d="M-1440.187-6250.545l-37.049-21.293-.532-2.218-1.007-3.359,37.029,21.292,1.543,4.031Z" transform="translate(1478.774 6277.415)" fill="#023b7d"/>
          </g>
        </g>
        <g id="Group_22205" data-name="Group 22205" transform="translate(37.03 41.498)">
          <g id="Group_22204" data-name="Group 22204">
            <g id="Group_22203" data-name="Group 22203">
              <path id="Path_38920" data-name="Path 38920" d="M-1446.26-6258.258l6.417-3.767,3.128,5.725-5.829,3.366c-1.532.887-2.837.356-3.084-1.244Z" transform="translate(1446.26 6262.024)" fill="#00bdf2"/>
            </g>
          </g>
        </g>
        <g id="Group_22207" data-name="Group 22207" transform="translate(34.738 40.212)">
          <g id="Group_22206" data-name="Group 22206">
            <path id="Path_38921" data-name="Path 38921" d="M-1439.564-6261.868l-2.293-1.286-6.416,3.765,2.292,1.286Z" transform="translate(1448.273 6263.154)" fill="#d4ecff"/>
          </g>
        </g>
        <g id="Group_22209" data-name="Group 22209" transform="translate(0 23.436)">
          <g id="Group_22208" data-name="Group 22208">
            <path id="Path_38922" data-name="Path 38922" d="M-1441.915-6258.592l-32.453-18.71-1.454-.583-2.952.531,37.029,21.292Z" transform="translate(1478.775 6277.885)" fill="#d4ecff"/>
          </g>
        </g>
        <g id="Group_22239" data-name="Group 22239" transform="translate(6.323 17.072)">
          <g id="Group_22236" data-name="Group 22236">
            <g id="Group_22219" data-name="Group 22219" transform="translate(8.827 5.591)">
              <g id="Group_22210" data-name="Group 22210" transform="translate(10.085 5.822)">
                <path id="Path_38923" data-name="Path 38923" d="M-1456.362-6269.348c.14.082.254.015.254-.147v-3.476a.566.566,0,0,0-.254-.444c-.141-.082-.255-.015-.255.147v3.477A.563.563,0,0,0-1456.362-6269.348Z" transform="translate(1456.617 6273.45)" fill="#00bdf2"/>
              </g>
              <g id="Group_22211" data-name="Group 22211" transform="translate(8.824 5.096)">
                <path id="Path_38924" data-name="Path 38924" d="M-1457.469-6269.987c.141.081.255.035.255-.105v-3.558a.527.527,0,0,0-.255-.4c-.14-.081-.255-.035-.255.1v3.558A.527.527,0,0,0-1457.469-6269.987Z" transform="translate(1457.724 6274.087)" fill="#00bdf2"/>
              </g>
              <g id="Group_22212" data-name="Group 22212" transform="translate(7.562 4.369)">
                <path id="Path_38925" data-name="Path 38925" d="M-1458.577-6270.626c.141.082.255.035.255-.1v-3.558a.522.522,0,0,0-.255-.4c-.14-.083-.255-.036-.255.1v3.558A.526.526,0,0,0-1458.577-6270.626Z" transform="translate(1458.832 6274.727)" fill="#00bdf2"/>
              </g>
              <g id="Group_22213" data-name="Group 22213" transform="translate(6.303 3.64)">
                <path id="Path_38926" data-name="Path 38926" d="M-1459.683-6271.266c.14.081.255.035.255-.1v-3.558a.525.525,0,0,0-.255-.4c-.14-.082-.255-.035-.255.1v3.558A.525.525,0,0,0-1459.683-6271.266Z" transform="translate(1459.938 6275.366)" fill="#00bdf2"/>
              </g>
              <g id="Group_22214" data-name="Group 22214" transform="translate(5.043 2.913)">
                <path id="Path_38927" data-name="Path 38927" d="M-1460.789-6271.9c.14.081.255.033.255-.105v-3.558a.53.53,0,0,0-.255-.4c-.141-.081-.255-.033-.255.105v3.559A.529.529,0,0,0-1460.789-6271.9Z" transform="translate(1461.044 6276.005)" fill="#00bdf2"/>
              </g>
              <g id="Group_22215" data-name="Group 22215" transform="translate(3.782 2.185)">
                <path id="Path_38928" data-name="Path 38928" d="M-1461.9-6272.543c.14.082.255.035.255-.1v-3.559a.529.529,0,0,0-.255-.4c-.14-.081-.255-.035-.255.1v3.558A.525.525,0,0,0-1461.9-6272.543Z" transform="translate(1462.151 6276.644)" fill="#00bdf2"/>
              </g>
              <g id="Group_22216" data-name="Group 22216" transform="translate(2.521 1.457)">
                <path id="Path_38929" data-name="Path 38929" d="M-1463-6273.183c.14.082.255.035.255-.1v-3.558a.525.525,0,0,0-.255-.4c-.14-.082-.255-.034-.255.1v3.558A.525.525,0,0,0-1463-6273.183Z" transform="translate(1463.258 6277.283)" fill="#00bdf2"/>
              </g>
              <g id="Group_22217" data-name="Group 22217" transform="translate(1.26 0.73)">
                <path id="Path_38930" data-name="Path 38930" d="M-1464.111-6273.821c.141.081.255.034.255-.1v-3.559a.528.528,0,0,0-.255-.4c-.14-.081-.255-.034-.255.1v3.558A.528.528,0,0,0-1464.111-6273.821Z" transform="translate(1464.366 6277.922)" fill="#00bdf2"/>
              </g>
              <g id="Group_22218" data-name="Group 22218">
                <path id="Path_38931" data-name="Path 38931" d="M-1465.217-6274.461c.141.081.254.017.254-.148v-3.476a.564.564,0,0,0-.255-.444c-.141-.081-.254-.015-.254.149v3.475A.562.562,0,0,0-1465.217-6274.461Z" transform="translate(1465.472 6278.563)" fill="#00bdf2"/>
              </g>
            </g>
            <g id="Group_22227" data-name="Group 22227" transform="translate(21.301 11.802)">
              <g id="Group_22225" data-name="Group 22225">
                <g id="Group_22220" data-name="Group 22220">
                  <path id="Path_38932" data-name="Path 38932" d="M-1454.519-6269.337l4.674,2.7v-3.771l-4.674-2.7Z" transform="translate(1454.519 6273.109)" fill="#00bdf2"/>
                </g>
                <g id="Group_22221" data-name="Group 22221" transform="translate(0.396 0.565)">
                  <path id="Path_38933" data-name="Path 38933" d="M-1454.171-6269.514l3.881,2.242v-3.1l-3.881-2.241Z" transform="translate(1454.171 6272.613)" fill="#deeaf2"/>
                </g>
                <g id="Group_22224" data-name="Group 22224" transform="translate(0.124 4.118)">
                  <g id="Group_22222" data-name="Group 22222">
                    <path id="Path_38934" data-name="Path 38934" d="M-1454.41-6267.965l4.511,2.606v-1.528l-4.511-2.606Z" transform="translate(1454.41 6269.493)" fill="#00bdf2"/>
                  </g>
                  <g id="Group_22223" data-name="Group 22223" transform="translate(0.158 0.257)">
                    <path id="Path_38935" data-name="Path 38935" d="M-1454.271-6268.081l4.122,2.38v-1.188l-4.122-2.379Z" transform="translate(1454.271 6269.267)" fill="#deeaf2"/>
                  </g>
                </g>
              </g>
              <g id="Group_22226" data-name="Group 22226" transform="translate(4.986 2.848)">
                <path id="Path_38936" data-name="Path 38936" d="M-1448.017-6263.764l-2.124-1.227v-5.617l1.218.7Z" transform="translate(1450.141 6270.607)" fill="#fff"/>
              </g>
            </g>
            <g id="Group_22235" data-name="Group 22235">
              <g id="Group_22233" data-name="Group 22233" transform="translate(2.435 0.911)">
                <g id="Group_22228" data-name="Group 22228">
                  <path id="Path_38937" data-name="Path 38937" d="M-1466.411-6276.2l-4.674-2.7v-3.771l4.674,2.7Z" transform="translate(1471.085 6282.672)" fill="#00bdf2"/>
                </g>
                <g id="Group_22229" data-name="Group 22229" transform="translate(0.397 0.564)">
                  <path id="Path_38938" data-name="Path 38938" d="M-1466.856-6276.835l-3.88-2.241v-3.1l3.88,2.24Z" transform="translate(1470.736 6282.177)" fill="#deeaf2"/>
                </g>
                <g id="Group_22232" data-name="Group 22232" transform="translate(0.038 4.066)">
                  <g id="Group_22230" data-name="Group 22230">
                    <path id="Path_38939" data-name="Path 38939" d="M-1466.541-6274.969l-4.511-2.605v-1.528l4.511,2.607Z" transform="translate(1471.052 6279.103)" fill="#00bdf2"/>
                  </g>
                  <g id="Group_22231" data-name="Group 22231" transform="translate(0.232 0.301)">
                    <path id="Path_38940" data-name="Path 38940" d="M-1466.726-6275.271l-4.122-2.379v-1.187l4.122,2.38Z" transform="translate(1470.848 6278.838)" fill="#deeaf2"/>
                  </g>
                </g>
              </g>
              <g id="Group_22234" data-name="Group 22234">
                <path id="Path_38941" data-name="Path 38941" d="M-1473.223-6278.378l2.124,1.226v-5.616l-1.217-.7Z" transform="translate(1473.223 6283.472)" fill="#fff"/>
              </g>
            </g>
          </g>
          <g id="Group_22237" data-name="Group 22237" transform="translate(21.773 12.924)">
            <ellipse id="Ellipse_792" data-name="Ellipse 792" cx="1.047" cy="1.814" rx="1.047" ry="1.814" transform="translate(0 1.047) rotate(-30)" fill="#f2faff"/>
          </g>
          <g id="Group_22238" data-name="Group 22238" transform="translate(3.431 2.465)">
            <path id="Path_38942" data-name="Path 38942" d="M-1470.21-6280.394a2.838,2.838,0,0,0,1.282,2.219c.708.409,1.283.074,1.283-.741a2.836,2.836,0,0,0-1.282-2.218C-1469.635-6281.541-1470.21-6281.208-1470.21-6280.394Z" transform="translate(1470.21 6281.308)" fill="#f2faff"/>
          </g>
        </g>
      </g>
      <g id="coin" transform="translate(-1373.439 -6326.31)">
        <path id="Path_51293" data-name="Path 51293" d="M765.257,836.861l-.809-.465v-2.327l.809.465Z" transform="translate(-757.241 -808.397)" fill="#c9e6f8" fill-rule="evenodd"/>
        <path id="Path_51294" data-name="Path 51294" d="M744.3,821.872l3.311-1.91.806.466L745.1,822.34l.027.779.005.462.027.436.039.405.06.379.071.346.092.319.107.289.123.26.137.236.153.206.164.181.176.159.19.13-.8-.468-.191-.128-.179-.158-.164-.182-.148-.208-.138-.233-.125-.26-.107-.29-.089-.319-.075-.346-.057-.379-.041-.405-.024-.436-.008-.463Z" transform="translate(-744.295 -799.334)" fill="#c9e6f8" fill-rule="evenodd"/>
        <path id="Path_51295" data-name="Path 51295" d="M758.608,813.062V806.5l.809.468v6.564l-.349.176-.322.161-.3.143-.268.132-.239.113-.212.1-.185.083-.154.066-.143.054-.138.044-.13.033-.132.024-.125.012H756.6l-.117-.008-.114-.021-.107-.036-.1-.051-.808-.465.1.05.107.036.113.021.116.009h.123l.125-.012.128-.024.134-.033.138-.044.14-.054.158-.069.182-.08.212-.1.242-.113.265-.132.3-.146.322-.158Z" transform="translate(-751.401 -790.685)" fill="#c9e6f8" fill-rule="evenodd"/>
        <path id="Path_51296" data-name="Path 51296" d="M751.908,763.487,754,762.279l.808.469-2.088,1.2V766l-.549.323-.525.327-.5.325-.48.331-.457.328-.433.334-.411.331-.388.337-.363.343-.346.361-.328.376-.307.395-.286.408-.266.423-.244.442-.224.459-.205.475-.174.5-.148.516-.122.54-.1.561-.068.582-.039.6-.015.624.009.495.021.463.039.426.057.394.068.358.083.325.1.29.113.254.132.224.143.194.155.17.17.143-.808-.465-.167-.144-.158-.17-.143-.193-.128-.224-.117-.254-.1-.289-.086-.325-.069-.361-.054-.39-.038-.427-.024-.462-.01-.495.016-.624.041-.6.066-.581.095-.561.123-.54.148-.517.177-.5.2-.475.224-.459.247-.442.265-.423.287-.409.307-.394.324-.375.346-.361.367-.343.387-.337.409-.332.436-.334.456-.331.478-.328.5-.325.525-.328.548-.322Z" transform="translate(-744.702 -762.279)" fill="#c9e6f8" fill-rule="evenodd"/>
        <path id="Path_51297" data-name="Path 51297" d="M774.17,763.219l.334-.065.314-.024.295.015.275.057.254.1.233.137.808.465-.236-.137-.254-.1-.271-.057-.3-.015-.314.024-.334.065-.364.1-.4.13-.432.161-.468.192-.5.223-.538.254-.572.284-.608.316-.808-.468.608-.312.573-.284.537-.254.505-.223.465-.191.432-.164.4-.131Z" transform="translate(-760.994 -762.825)" fill="#c9e6f8" fill-rule="evenodd"/>
        <path id="Path_51298" data-name="Path 51298" d="M779.975,777.218l-.806-.466-.005-.044-.006-.047,0-.048-.006-.054V776.5l0-.059,0-.06v-.066l-.01-.379-.026-.337-.048-.292-.068-.251-.083-.205-.1-.161-.123-.12.806.465.122.12.1.161.086.205.066.251.047.292.029.338.01.381v.123l0,.059,0,.054,0,.054.006.052,0,.044Z" transform="translate(-766.384 -770.177)" fill="#c9e6f8" fill-rule="evenodd"/>
        <path id="Path_51299" data-name="Path 51299" d="M773.71,800.781l-.114-.095.806.465.116.1.1.122.093.152.078.185.063.218.051.25.036.283.021.314.005.349-.012.451-.039.429-.06.408-.089.388-.111.364-.137.343-.161.319-.185.3-.211.284-.239.277-.265.275-.292.265-.319.26-.343.251-.373.247-.4.242-.639.367-.808-.466.638-.366.4-.242.374-.247.345-.254.317-.26.293-.265.265-.272.239-.278.212-.283.188-.3.161-.32.137-.343.11-.363.086-.388.063-.408.036-.43.012-.453-.006-.346-.02-.317-.036-.28-.048-.251-.062-.218-.078-.185-.093-.152Z" transform="translate(-760.994 -786.952)" fill="#c9e6f8" fill-rule="evenodd"/>
        <path id="Path_51300" data-name="Path 51300" d="M758.784,786.718v-5.946l.809.466v5.945l-.448.247-.417.213-.388.169-.361.135-.328.095-.3.06-.271.018-.242-.015-.215-.065-.184-.114-.806-.465.185.113.211.066.245.015.271-.021.3-.057.331-.1.358-.134.387-.171.418-.211Z" transform="translate(-751.578 -774.159)" fill="#c9e6f8" fill-rule="evenodd"/>
        <path id="Path_51301" data-name="Path 51301" d="M771.1,791.307l-.808-.465.581-.307.556-.28.525-.256.5-.231.471-.2.441-.179.418-.153.388-.125.364-.1.343-.057.331-.018.31.021.293.06.275.1.256.134.809.468-.257-.137-.278-.1-.293-.06-.309-.02-.328.018-.346.057-.364.095-.387.125-.415.153-.442.179-.471.2-.5.23-.528.257-.551.28Z" transform="translate(-760.994 -779.405)" fill="#c9e6f8" fill-rule="evenodd"/>
        <path id="Path_51302" data-name="Path 51302" d="M755.845,768.988v6.029a22.537,22.537,0,0,1,3.875-1.733,2.426,2.426,0,0,1,2.41.32c.618.513.922,1.62.922,3.314a13.237,13.237,0,0,1-.665,4.46,9.167,9.167,0,0,1-2.076,3.32,20.361,20.361,0,0,1-3.829,2.979l-.636.371v2.327l-2.088,1.205v-2.327a18.488,18.488,0,0,1-2.938,1.408,4.545,4.545,0,0,1-2.247.286A2.031,2.031,0,0,1,747.1,789.8a6.282,6.282,0,0,1-.525-2.9l-.028-.779,3.312-1.912a7.739,7.739,0,0,0,.2,2.1c.135.435.353.689.651.758a1.657,1.657,0,0,0,1.018-.137c.379-.156,1.055-.483,2.026-.972v-6.565q-1.92.961-3.043,1.39a4.515,4.515,0,0,1-2.041.34,1.766,1.766,0,0,1-1.4-1.039,6.933,6.933,0,0,1-.491-3,10.331,10.331,0,0,1,.867-4.4,9.665,9.665,0,0,1,2.369-3.206,22.422,22.422,0,0,1,3.744-2.638v-2.052l2.088-1.208v2.055a18.9,18.9,0,0,1,3.881-1.661,1.87,1.87,0,0,1,2.109.609,6.494,6.494,0,0,1,.734,3.7l-3.236,1.868a3.216,3.216,0,0,1-.024-.432c0-1.071-.2-1.676-.606-1.819s-1.082.059-2.043.614l-.815.471Zm0,9.2v6.563l.636-.367a7.381,7.381,0,0,0,2.442-2.1,5.152,5.152,0,0,0,.794-3,2.661,2.661,0,0,0-.45-1.873,1.092,1.092,0,0,0-1.16-.195,19.507,19.507,0,0,0-2.262.972Zm-2.088-7.993-.51.295a13.061,13.061,0,0,0-1.748,1.19,3.878,3.878,0,0,0-1.029,1.346,4.936,4.936,0,0,0-.382,2.078c0,1.208.3,1.856.913,1.957a4.836,4.836,0,0,0,2.757-.922Z" transform="translate(-745.741 -763.115)" fill="#023b7d" fill-rule="evenodd"/>
      </g>
      <g id="coin-2" data-name="coin" transform="translate(-1346.106 -6342.254)">
        <path id="Path_51293-2" data-name="Path 51293" d="M765.257,836.861l-.809-.465v-2.327l.809.465Z" transform="translate(-757.241 -808.397)" fill="#c9e6f8" fill-rule="evenodd"/>
        <path id="Path_51294-2" data-name="Path 51294" d="M744.3,821.872l3.311-1.91.806.466L745.1,822.34l.027.779.005.462.027.436.039.405.06.379.071.346.092.319.107.289.123.26.137.236.153.206.164.181.176.159.19.13-.8-.468-.191-.128-.179-.158-.164-.182-.148-.208-.138-.233-.125-.26-.107-.29-.089-.319-.075-.346-.057-.379-.041-.405-.024-.436-.008-.463Z" transform="translate(-744.295 -799.334)" fill="#c9e6f8" fill-rule="evenodd"/>
        <path id="Path_51295-2" data-name="Path 51295" d="M758.608,813.062V806.5l.809.468v6.564l-.349.176-.322.161-.3.143-.268.132-.239.113-.212.1-.185.083-.154.066-.143.054-.138.044-.13.033-.132.024-.125.012H756.6l-.117-.008-.114-.021-.107-.036-.1-.051-.808-.465.1.05.107.036.113.021.116.009h.123l.125-.012.128-.024.134-.033.138-.044.14-.054.158-.069.182-.08.212-.1.242-.113.265-.132.3-.146.322-.158Z" transform="translate(-751.401 -790.685)" fill="#c9e6f8" fill-rule="evenodd"/>
        <path id="Path_51296-2" data-name="Path 51296" d="M751.908,763.487,754,762.279l.808.469-2.088,1.2V766l-.549.323-.525.327-.5.325-.48.331-.457.328-.433.334-.411.331-.388.337-.363.343-.346.361-.328.376-.307.395-.286.408-.266.423-.244.442-.224.459-.205.475-.174.5-.148.516-.122.54-.1.561-.068.582-.039.6-.015.624.009.495.021.463.039.426.057.394.068.358.083.325.1.29.113.254.132.224.143.194.155.17.17.143-.808-.465-.167-.144-.158-.17-.143-.193-.128-.224-.117-.254-.1-.289-.086-.325-.069-.361-.054-.39-.038-.427-.024-.462-.01-.495.016-.624.041-.6.066-.581.095-.561.123-.54.148-.517.177-.5.2-.475.224-.459.247-.442.265-.423.287-.409.307-.394.324-.375.346-.361.367-.343.387-.337.409-.332.436-.334.456-.331.478-.328.5-.325.525-.328.548-.322Z" transform="translate(-744.702 -762.279)" fill="#c9e6f8" fill-rule="evenodd"/>
        <path id="Path_51297-2" data-name="Path 51297" d="M774.17,763.219l.334-.065.314-.024.295.015.275.057.254.1.233.137.808.465-.236-.137-.254-.1-.271-.057-.3-.015-.314.024-.334.065-.364.1-.4.13-.432.161-.468.192-.5.223-.538.254-.572.284-.608.316-.808-.468.608-.312.573-.284.537-.254.505-.223.465-.191.432-.164.4-.131Z" transform="translate(-760.994 -762.825)" fill="#c9e6f8" fill-rule="evenodd"/>
        <path id="Path_51298-2" data-name="Path 51298" d="M779.975,777.218l-.806-.466-.005-.044-.006-.047,0-.048-.006-.054V776.5l0-.059,0-.06v-.066l-.01-.379-.026-.337-.048-.292-.068-.251-.083-.205-.1-.161-.123-.12.806.465.122.12.1.161.086.205.066.251.047.292.029.338.01.381v.123l0,.059,0,.054,0,.054.006.052,0,.044Z" transform="translate(-766.384 -770.177)" fill="#c9e6f8" fill-rule="evenodd"/>
        <path id="Path_51299-2" data-name="Path 51299" d="M773.71,800.781l-.114-.095.806.465.116.1.1.122.093.152.078.185.063.218.051.25.036.283.021.314.005.349-.012.451-.039.429-.06.408-.089.388-.111.364-.137.343-.161.319-.185.3-.211.284-.239.277-.265.275-.292.265-.319.26-.343.251-.373.247-.4.242-.639.367-.808-.466.638-.366.4-.242.374-.247.345-.254.317-.26.293-.265.265-.272.239-.278.212-.283.188-.3.161-.32.137-.343.11-.363.086-.388.063-.408.036-.43.012-.453-.006-.346-.02-.317-.036-.28-.048-.251-.062-.218-.078-.185-.093-.152Z" transform="translate(-760.994 -786.952)" fill="#c9e6f8" fill-rule="evenodd"/>
        <path id="Path_51300-2" data-name="Path 51300" d="M758.784,786.718v-5.946l.809.466v5.945l-.448.247-.417.213-.388.169-.361.135-.328.095-.3.06-.271.018-.242-.015-.215-.065-.184-.114-.806-.465.185.113.211.066.245.015.271-.021.3-.057.331-.1.358-.134.387-.171.418-.211Z" transform="translate(-751.578 -774.159)" fill="#c9e6f8" fill-rule="evenodd"/>
        <path id="Path_51301-2" data-name="Path 51301" d="M771.1,791.307l-.808-.465.581-.307.556-.28.525-.256.5-.231.471-.2.441-.179.418-.153.388-.125.364-.1.343-.057.331-.018.31.021.293.06.275.1.256.134.809.468-.257-.137-.278-.1-.293-.06-.309-.02-.328.018-.346.057-.364.095-.387.125-.415.153-.442.179-.471.2-.5.23-.528.257-.551.28Z" transform="translate(-760.994 -779.405)" fill="#c9e6f8" fill-rule="evenodd"/>
        <path id="Path_51302-2" data-name="Path 51302" d="M755.845,768.988v6.029a22.537,22.537,0,0,1,3.875-1.733,2.426,2.426,0,0,1,2.41.32c.618.513.922,1.62.922,3.314a13.237,13.237,0,0,1-.665,4.46,9.167,9.167,0,0,1-2.076,3.32,20.361,20.361,0,0,1-3.829,2.979l-.636.371v2.327l-2.088,1.205v-2.327a18.488,18.488,0,0,1-2.938,1.408,4.545,4.545,0,0,1-2.247.286A2.031,2.031,0,0,1,747.1,789.8a6.282,6.282,0,0,1-.525-2.9l-.028-.779,3.312-1.912a7.739,7.739,0,0,0,.2,2.1c.135.435.353.689.651.758a1.657,1.657,0,0,0,1.018-.137c.379-.156,1.055-.483,2.026-.972v-6.565q-1.92.961-3.043,1.39a4.515,4.515,0,0,1-2.041.34,1.766,1.766,0,0,1-1.4-1.039,6.933,6.933,0,0,1-.491-3,10.331,10.331,0,0,1,.867-4.4,9.665,9.665,0,0,1,2.369-3.206,22.422,22.422,0,0,1,3.744-2.638v-2.052l2.088-1.208v2.055a18.9,18.9,0,0,1,3.881-1.661,1.87,1.87,0,0,1,2.109.609,6.494,6.494,0,0,1,.734,3.7l-3.236,1.868a3.216,3.216,0,0,1-.024-.432c0-1.071-.2-1.676-.606-1.819s-1.082.059-2.043.614l-.815.471Zm0,9.2v6.563l.636-.367a7.381,7.381,0,0,0,2.442-2.1,5.152,5.152,0,0,0,.794-3,2.661,2.661,0,0,0-.45-1.873,1.092,1.092,0,0,0-1.16-.195,19.507,19.507,0,0,0-2.262.972Zm-2.088-7.993-.51.295a13.061,13.061,0,0,0-1.748,1.19,3.878,3.878,0,0,0-1.029,1.346,4.936,4.936,0,0,0-.382,2.078c0,1.208.3,1.856.913,1.957a4.836,4.836,0,0,0,2.757-.922Z" transform="translate(-745.741 -763.115)" fill="#023b7d" fill-rule="evenodd"/>
      </g>
      <g id="coin-3" data-name="coin" transform="translate(-1318.774 -6358.198)">
        <path id="Path_51293-3" data-name="Path 51293" d="M765.257,836.861l-.809-.465v-2.327l.809.465Z" transform="translate(-757.241 -808.397)" fill="#c9e6f8" fill-rule="evenodd"/>
        <path id="Path_51294-3" data-name="Path 51294" d="M744.3,821.872l3.311-1.91.806.466L745.1,822.34l.027.779.005.462.027.436.039.405.06.379.071.346.092.319.107.289.123.26.137.236.153.206.164.181.176.159.19.13-.8-.468-.191-.128-.179-.158-.164-.182-.148-.208-.138-.233-.125-.26-.107-.29-.089-.319-.075-.346-.057-.379-.041-.405-.024-.436-.008-.463Z" transform="translate(-744.295 -799.334)" fill="#c9e6f8" fill-rule="evenodd"/>
        <path id="Path_51295-3" data-name="Path 51295" d="M758.608,813.062V806.5l.809.468v6.564l-.349.176-.322.161-.3.143-.268.132-.239.113-.212.1-.185.083-.154.066-.143.054-.138.044-.13.033-.132.024-.125.012H756.6l-.117-.008-.114-.021-.107-.036-.1-.051-.808-.465.1.05.107.036.113.021.116.009h.123l.125-.012.128-.024.134-.033.138-.044.14-.054.158-.069.182-.08.212-.1.242-.113.265-.132.3-.146.322-.158Z" transform="translate(-751.401 -790.685)" fill="#c9e6f8" fill-rule="evenodd"/>
        <path id="Path_51296-3" data-name="Path 51296" d="M751.908,763.487,754,762.279l.808.469-2.088,1.2V766l-.549.323-.525.327-.5.325-.48.331-.457.328-.433.334-.411.331-.388.337-.363.343-.346.361-.328.376-.307.395-.286.408-.266.423-.244.442-.224.459-.205.475-.174.5-.148.516-.122.54-.1.561-.068.582-.039.6-.015.624.009.495.021.463.039.426.057.394.068.358.083.325.1.29.113.254.132.224.143.194.155.17.17.143-.808-.465-.167-.144-.158-.17-.143-.193-.128-.224-.117-.254-.1-.289-.086-.325-.069-.361-.054-.39-.038-.427-.024-.462-.01-.495.016-.624.041-.6.066-.581.095-.561.123-.54.148-.517.177-.5.2-.475.224-.459.247-.442.265-.423.287-.409.307-.394.324-.375.346-.361.367-.343.387-.337.409-.332.436-.334.456-.331.478-.328.5-.325.525-.328.548-.322Z" transform="translate(-744.702 -762.279)" fill="#c9e6f8" fill-rule="evenodd"/>
        <path id="Path_51297-3" data-name="Path 51297" d="M774.17,763.219l.334-.065.314-.024.295.015.275.057.254.1.233.137.808.465-.236-.137-.254-.1-.271-.057-.3-.015-.314.024-.334.065-.364.1-.4.13-.432.161-.468.192-.5.223-.538.254-.572.284-.608.316-.808-.468.608-.312.573-.284.537-.254.505-.223.465-.191.432-.164.4-.131Z" transform="translate(-760.994 -762.825)" fill="#c9e6f8" fill-rule="evenodd"/>
        <path id="Path_51298-3" data-name="Path 51298" d="M779.975,777.218l-.806-.466-.005-.044-.006-.047,0-.048-.006-.054V776.5l0-.059,0-.06v-.066l-.01-.379-.026-.337-.048-.292-.068-.251-.083-.205-.1-.161-.123-.12.806.465.122.12.1.161.086.205.066.251.047.292.029.338.01.381v.123l0,.059,0,.054,0,.054.006.052,0,.044Z" transform="translate(-766.384 -770.177)" fill="#c9e6f8" fill-rule="evenodd"/>
        <path id="Path_51299-3" data-name="Path 51299" d="M773.71,800.781l-.114-.095.806.465.116.1.1.122.093.152.078.185.063.218.051.25.036.283.021.314.005.349-.012.451-.039.429-.06.408-.089.388-.111.364-.137.343-.161.319-.185.3-.211.284-.239.277-.265.275-.292.265-.319.26-.343.251-.373.247-.4.242-.639.367-.808-.466.638-.366.4-.242.374-.247.345-.254.317-.26.293-.265.265-.272.239-.278.212-.283.188-.3.161-.32.137-.343.11-.363.086-.388.063-.408.036-.43.012-.453-.006-.346-.02-.317-.036-.28-.048-.251-.062-.218-.078-.185-.093-.152Z" transform="translate(-760.994 -786.952)" fill="#c9e6f8" fill-rule="evenodd"/>
        <path id="Path_51300-3" data-name="Path 51300" d="M758.784,786.718v-5.946l.809.466v5.945l-.448.247-.417.213-.388.169-.361.135-.328.095-.3.06-.271.018-.242-.015-.215-.065-.184-.114-.806-.465.185.113.211.066.245.015.271-.021.3-.057.331-.1.358-.134.387-.171.418-.211Z" transform="translate(-751.578 -774.159)" fill="#c9e6f8" fill-rule="evenodd"/>
        <path id="Path_51301-3" data-name="Path 51301" d="M771.1,791.307l-.808-.465.581-.307.556-.28.525-.256.5-.231.471-.2.441-.179.418-.153.388-.125.364-.1.343-.057.331-.018.31.021.293.06.275.1.256.134.809.468-.257-.137-.278-.1-.293-.06-.309-.02-.328.018-.346.057-.364.095-.387.125-.415.153-.442.179-.471.2-.5.23-.528.257-.551.28Z" transform="translate(-760.994 -779.405)" fill="#c9e6f8" fill-rule="evenodd"/>
        <path id="Path_51302-3" data-name="Path 51302" d="M755.845,768.988v6.029a22.537,22.537,0,0,1,3.875-1.733,2.426,2.426,0,0,1,2.41.32c.618.513.922,1.62.922,3.314a13.237,13.237,0,0,1-.665,4.46,9.167,9.167,0,0,1-2.076,3.32,20.361,20.361,0,0,1-3.829,2.979l-.636.371v2.327l-2.088,1.205v-2.327a18.488,18.488,0,0,1-2.938,1.408,4.545,4.545,0,0,1-2.247.286A2.031,2.031,0,0,1,747.1,789.8a6.282,6.282,0,0,1-.525-2.9l-.028-.779,3.312-1.912a7.739,7.739,0,0,0,.2,2.1c.135.435.353.689.651.758a1.657,1.657,0,0,0,1.018-.137c.379-.156,1.055-.483,2.026-.972v-6.565q-1.92.961-3.043,1.39a4.515,4.515,0,0,1-2.041.34,1.766,1.766,0,0,1-1.4-1.039,6.933,6.933,0,0,1-.491-3,10.331,10.331,0,0,1,.867-4.4,9.665,9.665,0,0,1,2.369-3.206,22.422,22.422,0,0,1,3.744-2.638v-2.052l2.088-1.208v2.055a18.9,18.9,0,0,1,3.881-1.661,1.87,1.87,0,0,1,2.109.609,6.494,6.494,0,0,1,.734,3.7l-3.236,1.868a3.216,3.216,0,0,1-.024-.432c0-1.071-.2-1.676-.606-1.819s-1.082.059-2.043.614l-.815.471Zm0,9.2v6.563l.636-.367a7.381,7.381,0,0,0,2.442-2.1,5.152,5.152,0,0,0,.794-3,2.661,2.661,0,0,0-.45-1.873,1.092,1.092,0,0,0-1.16-.195,19.507,19.507,0,0,0-2.262.972Zm-2.088-7.993-.51.295a13.061,13.061,0,0,0-1.748,1.19,3.878,3.878,0,0,0-1.029,1.346,4.936,4.936,0,0,0-.382,2.078c0,1.208.3,1.856.913,1.957a4.836,4.836,0,0,0,2.757-.922Z" transform="translate(-745.741 -763.115)" fill="#023b7d" fill-rule="evenodd"/>
      </g>
      <g id="Group_41921" data-name="Group 41921" transform="translate(-1418.898 -6393.822)">
        <path id="Path_74508" data-name="Path 74508" d="M141.895,63,107.928,43.386c-2.314-1.336-4.208.1-4.208,3.182V70.013c0,3.086,1.894,6.7,4.208,8.04L118.8,84.33l6.111,15.113,6.112-8.055,10.872,6.276c2.314,1.336,4.208-.1,4.208-3.182V71.038C146.1,67.951,144.209,64.333,141.895,63Z" transform="translate(-103.72 -39.764)" fill="#00bdf2"/>
        <path id="Path_74509" data-name="Path 74509" d="M115.2,93.53l5.245-3.122,2.867-3.779-2-1.155Z" transform="translate(-94.013 -33.85)" fill="#00aeea"/>
        <path id="Path_74510" data-name="Path 74510" d="M141.031,60.255l-33.966-19.61a2.689,2.689,0,0,0-2.748-.216c-.893.515-5.2,3.1-5.2,3.1v0a2.7,2.7,0,0,1,2.7.237l33.967,19.611c2.314,1.336,4.208,4.954,4.208,8.04V94.863a3.75,3.75,0,0,1-1.426,3.37l0,0s4.464-2.672,5.2-3.1c.894-.515,1.462-1.708,1.462-3.4V68.3C145.239,65.21,143.346,61.592,141.031,60.255Z" transform="translate(-97.612 -40.144)" fill="#003168"/>
        <g id="Group_41860" data-name="Group 41860" transform="translate(7.652 20.272)">
          <path id="Path_74511" data-name="Path 74511" d="M113.343,69.076c-1.6-.926-2.9.057-2.9,2.2a6.954,6.954,0,0,0,2.9,5.55c1.6.926,2.9-.057,2.9-2.2A6.957,6.957,0,0,0,113.343,69.076Z" transform="translate(-89.168 -56.448)" fill="#bbe5fa"/>
          <path id="Path_74512" data-name="Path 74512" d="M122.681,63.685c-1.6-.926-2.9.057-2.9,2.2a6.955,6.955,0,0,0,2.9,5.549c1.6.927,2.905-.057,2.905-2.2A6.953,6.953,0,0,0,122.681,63.685Z" transform="translate(-109.142 -57.196)" fill="#bbe5fa"/>
          <path id="Path_74513" data-name="Path 74513" d="M132.02,58.293c-1.6-.926-2.9.057-2.9,2.2a6.954,6.954,0,0,0,2.9,5.55c1.6.926,2.9-.057,2.9-2.2A6.957,6.957,0,0,0,132.02,58.293Z" transform="translate(-129.116 -57.945)" fill="#bbe5fa"/>
        </g>
      </g>
    </g>
  </g>
</svg>
