<svg xmlns="http://www.w3.org/2000/svg" xmlns:xlink="http://www.w3.org/1999/xlink" width="200" height="200" viewBox="0 0 200 200">
  <defs>
    <clipPath id="clip-path">
      <path id="Path_65857" data-name="Path 65857" d="M-2634.784-4309.576l-17.414,10.053s-4.816,11.3-4.917,21.741l22.333-17.17Z" transform="translate(2657.116 4309.576)" fill="none"/>
    </clipPath>
  </defs>
  <g id="dropdown-1D-fleet" transform="translate(9632.246 14608.43)">
    <rect id="Rectangle_2268" data-name="Rectangle 2268" width="200" height="200" transform="translate(-9632.246 -14608.43)" fill="none"/>
    <g id="Group_58098" data-name="Group 58098">
      <g id="Group_22241" data-name="Group 22241" transform="translate(-9624.246 -14565.874)">
        <g id="Group_22095" data-name="Group 22095" transform="translate(16.327 100.096)">
          <g id="Group_22093" data-name="Group 22093">
            <g id="Group_22084" data-name="Group 22084" transform="translate(0 0.41)">
              <path id="Path_38861" data-name="Path 38861" d="M-2664.39-4281.866a.7.7,0,0,1,.318-.667l.023-.013.024-.013.022-.012.024-.014.023-.012.023-.013.023-.013.024-.013.023-.012.024-.012.023-.014.024-.012.023-.013.024-.012.023-.013.024-.013.023-.012.024-.013.023-.013.024-.013.023-.012.025-.013.022-.013.024-.013.023-.012a.712.712,0,0,1,.722.069l2.1,1.214a2.251,2.251,0,0,1,1.016,1.761v5.787a.7.7,0,0,1-.318.667l-.023.013-.024.013-.023.012-.025.015-.023.012-.023.012-.023.013-.024.013-.023.014-.024.011-.022.013-.024.014-.023.013-.024.012-.024.013-.023.012-.024.012-.023.013-.023.012-.024.014-.024.012-.023.012-.024.013-.023.013-.024.013a.709.709,0,0,1-.722-.071l-2.1-1.212a2.255,2.255,0,0,1-1.016-1.762Z" transform="translate(2664.394 4282.919)" fill="#d4ecff"/>
            </g>
            <g id="Group_22085" data-name="Group 22085" transform="translate(2.209)">
              <path id="Path_38862" data-name="Path 38862" d="M-2661.757-4282.758c0-.58.408-.816.911-.526l2.677,1.55v.364l-2.677-1.551c-.329-.189-.6-.035-.6.344v.357l-.315-.189Z" transform="translate(2661.757 4283.409)" fill="#d4ecff"/>
            </g>
            <g id="Group_22086" data-name="Group 22086" transform="translate(2.209 2.685)">
              <path id="Path_38863" data-name="Path 38863" d="M-2661.441-4280.11v6.709a1.323,1.323,0,0,0,.6,1.032l2.715,1.566v.365l-2.715-1.567a2.021,2.021,0,0,1-.911-1.579v-6.62A.73.73,0,0,0-2661.441-4280.11Z" transform="translate(2661.757 4280.204)" fill="#d4ecff"/>
            </g>
            <g id="Group_22087" data-name="Group 22087" transform="translate(1.943 0.174)">
              <path id="Path_38864" data-name="Path 38864" d="M-2658.217-4281.707l-.352.212-2.73-1.48h-.216l.013.807-.343.189-.23-.454.385-.446.519-.323Z" transform="translate(2662.074 4283.202)" fill="#d4ecff"/>
            </g>
            <g id="Group_22088" data-name="Group 22088" transform="translate(1.859 0.21)">
              <path id="Path_38865" data-name="Path 38865" d="M-2662.174-4282.509c0-.582.409-.815.912-.526l2.678,1.55v.364l-2.678-1.549c-.329-.189-.6-.036-.6.344v.358l-.316-.189Z" transform="translate(2662.174 4283.159)" fill="#023b7d"/>
            </g>
            <g id="Group_22089" data-name="Group 22089" transform="translate(2.158 9.474)">
              <path id="Path_38866" data-name="Path 38866" d="M-2658.14-4269.486l-.352.212-2.151-1.079-1.019-.66-.148-.485-.006-.6.519.8,1.382.916Z" transform="translate(2661.817 4272.098)" fill="#d4ecff"/>
            </g>
            <g id="Group_22090" data-name="Group 22090" transform="translate(1.859 2.898)">
              <path id="Path_38867" data-name="Path 38867" d="M-2661.858-4279.856v6.709a1.318,1.318,0,0,0,.6,1.032l2.714,1.567v.364l-2.714-1.566a2.018,2.018,0,0,1-.912-1.579v-6.619A.744.744,0,0,0-2661.858-4279.856Z" transform="translate(2662.174 4279.949)" fill="#023b7d"/>
            </g>
            <g id="Group_22092" data-name="Group 22092" transform="translate(0.002 0.735)">
              <g id="Group_22091" data-name="Group 22091">
                <path id="Path_38868" data-name="Path 38868" d="M-2663.375-4274.258l2.1,1.214c.563.323,1.016.061,1.016-.587v-5.786a2.243,2.243,0,0,0-1.016-1.761l-2.1-1.214c-.563-.324-1.016-.061-1.016.587v5.785A2.247,2.247,0,0,0-2663.375-4274.258Z" transform="translate(2664.391 4282.531)" fill="#023b7d"/>
              </g>
            </g>
          </g>
          <g id="Group_22094" data-name="Group 22094" transform="translate(5.483 12.086)">
            <path id="Path_38869" data-name="Path 38869" d="M-2657.5-4268.979l-.352.213v.364l.352-.212Z" transform="translate(2657.848 4268.979)" fill="#353636"/>
          </g>
        </g>
        <g id="Group_22096" data-name="Group 22096" transform="translate(168.735 68.578)">
          <path id="Path_38870" data-name="Path 38870" d="M-2470.105-4311.447l-12.331-7,4.479-2.255,5.013-.338a19.17,19.17,0,0,1,2.169.394c.31.142.986,1.55.986,1.55l.282,1.634s.085,1.211.141,1.437S-2470.105-4311.447-2470.105-4311.447Z" transform="translate(2482.437 4321.037)" fill="#4b4854"/>
        </g>
        <g id="Group_22097" data-name="Group 22097" transform="translate(142.823 79.284)">
          <path id="Path_38871" data-name="Path 38871" d="M-2500.889-4294.5l-12.483-7.249,10.619-6.507h2.986s-.142,2.114-.169,2.226S-2500.889-4294.5-2500.889-4294.5Z" transform="translate(2513.372 4308.256)" fill="#023b7d"/>
        </g>
        <g id="Group_22107" data-name="Group 22107" transform="translate(164.295 67.451)">
          <g id="Group_22106" data-name="Group 22106" transform="translate(0 0)">
            <g id="Group_22098" data-name="Group 22098" transform="translate(0)">
              <ellipse id="Ellipse_782" data-name="Ellipse 782" cx="7.179" cy="4.145" rx="7.179" ry="4.145" transform="translate(0 12.434) rotate(-59.999)" fill="#023b7d"/>
            </g>
            <g id="Group_22099" data-name="Group 22099" transform="translate(3.697 2.01)">
              <path id="Path_38872" data-name="Path 38872" d="M-2472.968-4318.049l-3.405-1.934-6.95,12.56,3.555,2.032Z" transform="translate(2483.323 4319.983)" fill="#023b7d"/>
            </g>
            <g id="Group_22105" data-name="Group 22105" transform="translate(3.511 2.002)">
              <g id="Group_22100" data-name="Group 22100" transform="translate(0 0)">
                <ellipse id="Ellipse_783" data-name="Ellipse 783" cx="7.179" cy="4.145" rx="7.179" ry="4.145" transform="translate(0 12.434) rotate(-59.999)" fill="#00bdf2"/>
              </g>
              <g id="Group_22101" data-name="Group 22101" transform="translate(2.577 2.883)">
                <ellipse id="Ellipse_784" data-name="Ellipse 784" cx="4.655" cy="2.688" rx="4.655" ry="2.688" transform="translate(0 8.063) rotate(-59.999)" fill="#d4ecff"/>
              </g>
              <g id="Group_22104" data-name="Group 22104" transform="translate(5.079 5.413)">
                <g id="Group_22103" data-name="Group 22103">
                  <g id="Group_22102" data-name="Group 22102">
                    <path id="Path_38873" data-name="Path 38873" d="M-2474.872-4308.464c-.185.107-.353.054-.395-.135a.852.852,0,0,1,.305-.733c.217-.18.434-.148.479.077a.844.844,0,0,1-.3.732C-2474.812-4308.5-2474.842-4308.483-2474.872-4308.464Zm-1.529.475a.3.3,0,0,1-.25.041c-.173-.057-.2-.334-.063-.613s.393-.459.563-.4.2.334.061.621A.874.874,0,0,1-2476.4-4307.99Zm2.759-2.309a.379.379,0,0,1-.177.056c-.2,0-.282-.228-.186-.515s.338-.52.54-.524.281.228.185.515a.887.887,0,0,1-.361.47Zm-3.438,1.071c-.22.127-.4.023-.4-.232v-.029a.883.883,0,0,1,.41-.7c.221-.127.4-.021.395.241v.019a.891.891,0,0,1-.4.7Zm3.446-2.886c-.148.087-.294.071-.362-.055a.724.724,0,0,1,.189-.727c.2-.228.442-.265.539-.093a.748.748,0,0,1-.193.733.829.829,0,0,1-.174.141Zm-2.748.836a.271.271,0,0,1-.317.007c-.136-.125-.1-.437.07-.7s.423-.369.564-.247.1.437-.07.694a.8.8,0,0,1-.249.242Zm1.532-1.269a.4.4,0,0,1-.092.04c-.218.07-.353-.1-.3-.386a.829.829,0,0,1,.482-.623c.218-.07.353.1.3.387a.885.885,0,0,1-.394.58Z" transform="translate(2477.481 4313.53)" fill="#023b7d"/>
                  </g>
                </g>
              </g>
            </g>
          </g>
        </g>
        <g id="Group_22117" data-name="Group 22117" transform="translate(153.528 75.132)">
          <g id="Group_22116" data-name="Group 22116" transform="translate(0 0)">
            <g id="Group_22108" data-name="Group 22108" transform="translate(0)">
              <ellipse id="Ellipse_785" data-name="Ellipse 785" cx="7.179" cy="4.145" rx="7.179" ry="4.145" transform="translate(0 12.434) rotate(-59.999)" fill="#023b7d"/>
            </g>
            <g id="Group_22109" data-name="Group 22109" transform="translate(3.697 2.01)">
              <path id="Path_38874" data-name="Path 38874" d="M-2485.823-4308.877l-3.4-1.935-6.95,12.562,3.555,2.03Z" transform="translate(2496.177 4310.813)" fill="#023b7d"/>
            </g>
            <g id="Group_22115" data-name="Group 22115" transform="translate(3.511 2.002)">
              <g id="Group_22110" data-name="Group 22110" transform="translate(0 0)">
                <ellipse id="Ellipse_786" data-name="Ellipse 786" cx="7.179" cy="4.145" rx="7.179" ry="4.145" transform="translate(0 12.434) rotate(-59.999)" fill="#00bdf2"/>
              </g>
              <g id="Group_22111" data-name="Group 22111" transform="translate(2.577 2.883)">
                <ellipse id="Ellipse_787" data-name="Ellipse 787" cx="4.655" cy="2.688" rx="4.655" ry="2.688" transform="translate(0 8.063) rotate(-59.999)" fill="#d4ecff"/>
              </g>
              <g id="Group_22114" data-name="Group 22114" transform="translate(5.079 5.414)">
                <g id="Group_22113" data-name="Group 22113">
                  <g id="Group_22112" data-name="Group 22112">
                    <path id="Path_38875" data-name="Path 38875" d="M-2487.727-4299.293c-.184.108-.352.053-.394-.134a.858.858,0,0,1,.3-.734c.218-.181.435-.148.479.077a.844.844,0,0,1-.3.731A.886.886,0,0,1-2487.727-4299.293Zm-1.527.473a.3.3,0,0,1-.25.043c-.173-.058-.2-.334-.065-.613s.395-.459.564-.4.2.335.061.621a.865.865,0,0,1-.311.351Zm2.757-2.307a.366.366,0,0,1-.177.057c-.2,0-.281-.228-.184-.516s.338-.52.539-.525.282.228.185.516a.89.89,0,0,1-.363.468Zm-3.437,1.07c-.221.127-.4.023-.4-.231v-.029a.89.89,0,0,1,.411-.7c.221-.126.4-.021.393.242v.019a.883.883,0,0,1-.4.7Zm3.446-2.885c-.149.085-.293.069-.362-.056a.726.726,0,0,1,.19-.727c.2-.228.443-.265.539-.093a.753.753,0,0,1-.193.734A.83.83,0,0,1-2486.488-4302.942Zm-2.748.835a.275.275,0,0,1-.319.007c-.136-.125-.1-.437.072-.7s.422-.367.564-.247.1.436-.071.694a.78.78,0,0,1-.248.241Zm1.532-1.269a.447.447,0,0,1-.093.04c-.217.07-.352-.1-.3-.386a.827.827,0,0,1,.483-.621c.217-.07.352.1.3.385a.891.891,0,0,1-.393.581Z" transform="translate(2490.336 4304.359)" fill="#023b7d"/>
                  </g>
                </g>
              </g>
            </g>
          </g>
        </g>
        <g id="Group_22121" data-name="Group 22121" transform="translate(37.924 0)">
          <g id="Group_22118" data-name="Group 22118" transform="translate(0 37.799)">
            <path id="Path_38876" data-name="Path 38876" d="M-2638.611-4288.36l109.48-63.17v-6.254l-109.48,63.171Z" transform="translate(2638.611 4357.784)" fill="#00bdf2"/>
          </g>
          <g id="Group_22119" data-name="Group 22119" transform="translate(33.176 42.124)">
            <path id="Path_38877" data-name="Path 38877" d="M-2522.692-4352.622v13.745l-2.83,1.633v-3.668c0-4.134-2.9-5.81-6.483-3.742l-57.88,33.381a14.326,14.326,0,0,0-6.482,11.229v3.669l-2.634,1.521V-4308.6Z" transform="translate(2599 4352.622)" fill="#00bdf2"/>
          </g>
          <g id="Group_22120" data-name="Group 22120" transform="translate(9.077)">
            <path id="Path_38878" data-name="Path 38878" d="M-2627.772-4345.2l100.021-57.709v36.154l-100.021,57.71Z" transform="translate(2627.772 4402.913)" fill="#e0d9ce"/>
          </g>
        </g>
        <g id="Group_22126" data-name="Group 22126" transform="translate(37.924 20.665)">
          <g id="Group_22122" data-name="Group 22122" transform="translate(36.487 37.799)">
            <path id="Path_38879" data-name="Path 38879" d="M-2595.049-4263.688l109.479-63.171v-6.252l-109.479,63.172Z" transform="translate(2595.049 4333.112)" fill="#023b7d"/>
          </g>
          <g id="Group_22123" data-name="Group 22123" transform="translate(117.383 42.124)">
            <path id="Path_38880" data-name="Path 38880" d="M-2469.879-4327.95v13.745l-2.831,1.634v-3.668c0-4.134-2.9-5.81-6.482-3.743l-10.158,5.866a14.327,14.327,0,0,0-6.483,11.229v3.668l-2.635,1.521v-13.747Z" transform="translate(2498.468 4327.95)" fill="#00bdf2"/>
          </g>
          <g id="Group_22124" data-name="Group 22124" transform="translate(0 32.47)">
            <path id="Path_38881" data-name="Path 38881" d="M-2602.124-4270.975l-36.487-20.665,20.982-12.282,115.7-35.554,9.284,5.33Z" transform="translate(2638.611 4339.476)" fill="#d4ecff"/>
          </g>
          <g id="Group_22125" data-name="Group 22125" transform="translate(45.56)">
            <path id="Path_38882" data-name="Path 38882" d="M-2584.216-4320.531l100.02-57.709v36.154l-100.02,57.708Z" transform="translate(2584.216 4378.241)" fill="#00bdf2"/>
          </g>
        </g>
        <g id="Group_22127" data-name="Group 22127" transform="translate(46.997 0)">
          <path id="Path_38883" data-name="Path 38883" d="M-2591.29-4324.538l-36.486-20.666,100.02-57.709,36.487,20.664Z" transform="translate(2627.777 4402.913)" fill="#c8eafd"/>
        </g>
        <g id="Group_22128" data-name="Group 22128" transform="translate(47.001 57.712)">
          <path id="Path_38884" data-name="Path 38884" d="M-2627.772-4297.862l36.486,20.664v-36.154l-36.486-20.658Z" transform="translate(2627.772 4334.01)" fill="#023b7d"/>
        </g>
        <g id="Group_22129" data-name="Group 22129" transform="translate(37.265 101.256)">
          <path id="Path_38885" data-name="Path 38885" d="M-2601.611-4254.145l-37.785-21.4v-6.476l37.785,21.4Z" transform="translate(2639.396 4282.023)" fill="#44424d"/>
        </g>
        <g id="Group_22134" data-name="Group 22134" transform="translate(70.68 116.483)">
          <g id="Group_22131" data-name="Group 22131">
            <g id="Group_22130" data-name="Group 22130">
              <path id="Path_38886" data-name="Path 38886" d="M-2588.9-4250.211l-10.5-6.068.438-4.221-.544-3.344,9.45,2.722S-2587.468-4257-2588.9-4250.211Z" transform="translate(2599.503 4263.845)" fill="#023b7d"/>
            </g>
          </g>
        </g>
        <g id="Group_22153" data-name="Group 22153" transform="translate(19.338 73.409)">
          <g id="Group_22151" data-name="Group 22151">
            <g id="Group_22137" data-name="Group 22137">
              <g id="Group_22136" data-name="Group 22136">
                <path id="Path_38888" data-name="Path 38888" d="M-2656.106-4298.553a8.375,8.375,0,0,1,3.358-4.246l21.606-12.472v28.33c-.965.487-2.11,1.112-3.465,1.895l-4.042,2.334a14.441,14.441,0,0,0-6.534,11.317v2.255c0,.172.008.339.017.5l-15.632,8.815v-17.415A85.191,85.191,0,0,1-2656.106-4298.553Z" transform="translate(2660.8 4315.27)" fill="#023b7d"/>
              </g>
            </g>
            <g id="Group_22143" data-name="Group 22143" transform="translate(3.085 4.768)">
              <path id="Path_38889" data-name="Path 38889" d="M-2634.784-4309.576l-17.414,10.053s-4.816,11.3-4.917,21.741l22.333-17.17Z" transform="translate(2657.116 4309.576)" fill="#536873"/>
              <g id="Group_37658" data-name="Group 37658">
                <g id="Group_37657" data-name="Group 37657" clip-path="url(#clip-path)">
                  <g id="Group_22142" data-name="Group 22142" transform="translate(-3.739 2.216)">
                    <g id="Group_22139" data-name="Group 22139" transform="translate(5.962)">
                      <g id="Group_22138" data-name="Group 22138">
                        <path id="Path_38890" data-name="Path 38890" d="M-2647.49-4306.931l20.513,20.244-4.143,3.793-23.343-21.645Z" transform="translate(2654.462 4306.931)" fill="#6f8691"/>
                      </g>
                    </g>
                    <g id="Group_22141" data-name="Group 22141" transform="translate(0 5.073)">
                      <g id="Group_22140" data-name="Group 22140">
                        <path id="Path_38891" data-name="Path 38891" d="M-2658.447-4300.874l22.13,20.012-1.313,1.574-23.949-20.363Z" transform="translate(2661.58 4300.874)" fill="#6f8691"/>
                      </g>
                    </g>
                  </g>
                </g>
              </g>
            </g>
            <g id="Group_22146" data-name="Group 22146" transform="translate(19.926 7.352)">
              <g id="Group_22145" data-name="Group 22145">
                <g id="Group_22144" data-name="Group 22144">
                  <path id="Path_38893" data-name="Path 38893" d="M-2636.134-4289.3l-.875.506v-17.192l.875-.507Z" transform="translate(2637.009 4306.492)" fill="#7ad5de"/>
                </g>
              </g>
            </g>
            <g id="Group_22148" data-name="Group 22148" transform="translate(13.937 29.678)">
              <g id="Group_22147" data-name="Group 22147" transform="translate(0 0)">
                <ellipse id="Ellipse_788" data-name="Ellipse 788" cx="9.138" cy="5.276" rx="9.138" ry="5.276" transform="translate(0 15.828) rotate(-60)" fill="#adadad"/>
              </g>
            </g>
            <g id="Group_22150" data-name="Group 22150" transform="translate(29.608 26.616)">
              <g id="Group_22149" data-name="Group 22149">
                <path id="Path_38894" data-name="Path 38894" d="M-2625.4-4281.78s2.228,3.452,1.369,10.54l.556-.263s1.111-8.4-1.973-11.99Z" transform="translate(2625.45 4283.493)" fill="#545454"/>
              </g>
            </g>
          </g>
        </g>
        <g id="Group_22155" data-name="Group 22155" transform="translate(25.675 73.41)">
          <g id="Group_22154" data-name="Group 22154">
            <path id="Path_38895" data-name="Path 38895" d="M-2653.234-4301.33l30.883,18.087,10.034-.774,13.325-13.413-30.921-17.837s-21.181,12.153-22.076,12.753A4.33,4.33,0,0,0-2653.234-4301.33Z" transform="translate(2653.234 4315.268)" fill="#c8eafd"/>
          </g>
        </g>
        <g id="Group_22174" data-name="Group 22174" transform="translate(45.015 91.248)">
          <g id="Group_22171" data-name="Group 22171" transform="translate(0 4.768)">
            <g id="Group_22166" data-name="Group 22166" transform="translate(0 35.066)">
              <g id="Group_22165" data-name="Group 22165" transform="translate(0 0)">
                <g id="Group_22157" data-name="Group 22157">
                  <ellipse id="Ellipse_789" data-name="Ellipse 789" cx="7.656" cy="4.42" rx="7.656" ry="4.42" transform="translate(0 13.26) rotate(-59.999)" fill="#023b7d"/>
                  <path id="Path_98140" data-name="Path 98140" d="M-2617.948-4243.779l3.321,2.213-7.685,13.217-3.417-2.272Z" transform="translate(2629.427 4245.986)" fill="#023b7d"/>
                </g>
                <g id="Group_22164" data-name="Group 22164" transform="translate(3.189 2.102)">
                  <g id="Group_22159" data-name="Group 22159" transform="translate(0 0)">
                    <ellipse id="Ellipse_790" data-name="Ellipse 790" cx="7.656" cy="4.42" rx="7.656" ry="4.42" transform="translate(0 13.26) rotate(-60)" fill="#00bdf2"/>
                  </g>
                  <g id="Group_22160" data-name="Group 22160" transform="translate(2.748 3.073)">
                    <ellipse id="Ellipse_791" data-name="Ellipse 791" cx="4.966" cy="2.867" rx="4.966" ry="2.867" transform="translate(0 8.601) rotate(-60)" fill="#d4ecff"/>
                  </g>
                  <g id="Group_22163" data-name="Group 22163" transform="translate(5.419 5.772)">
                    <g id="Group_22162" data-name="Group 22162">
                      <g id="Group_22161" data-name="Group 22161">
                        <path id="Path_38897" data-name="Path 38897" d="M-2617.085-4231.611c-.2.113-.374.057-.423-.142a.907.907,0,0,1,.325-.781c.232-.193.464-.159.51.082a.9.9,0,0,1-.322.78A.927.927,0,0,1-2617.085-4231.611Zm-1.63.5a.31.31,0,0,1-.265.044c-.186-.061-.212-.356-.071-.654s.422-.493.6-.428.212.356.064.661a.922.922,0,0,1-.335.376Zm2.942-2.461a.389.389,0,0,1-.188.061c-.212.006-.3-.244-.2-.55s.36-.554.574-.559.3.242.2.549a.938.938,0,0,1-.386.5Zm-3.664,1.143c-.236.136-.429.024-.429-.248v-.03a.943.943,0,0,1,.438-.741c.236-.137.423-.023.423.256v.02a.944.944,0,0,1-.434.743Zm3.675-3.078c-.159.091-.313.075-.386-.06a.774.774,0,0,1,.2-.775c.211-.244.472-.282.574-.1a.8.8,0,0,1-.205.782.829.829,0,0,1-.187.151Zm-2.934.892a.292.292,0,0,1-.338.006c-.146-.134-.111-.466.077-.743s.455-.392.6-.262.112.465-.07.74a.858.858,0,0,1-.272.258Zm1.634-1.354a.459.459,0,0,1-.1.042c-.232.075-.373-.111-.317-.411a.885.885,0,0,1,.514-.665c.232-.073.374.112.318.412a.948.948,0,0,1-.419.621Z" transform="translate(2619.867 4237.015)" fill="#023b7d"/>
                      </g>
                    </g>
                  </g>
                </g>
              </g>
            </g>
            <g id="Group_22170" data-name="Group 22170" transform="translate(8.329)">
              <path id="Path_38899" data-name="Path 38899" d="M-2597.868-4288.28l-17.415,10.053s-4.816,11.3-4.917,21.742l22.333-17.17Z" transform="translate(2620.2 4288.28)" fill="#2d1f2e"/>
            </g>
          </g>
          <path id="Path_65858" data-name="Path 65858" d="M-2624.568-4255.938a85.158,85.158,0,0,1,4.694-21.318,8.373,8.373,0,0,1,3.357-4.245l21.607-12.472v38.261c-.728.42-6.995,4.083-12.026,6.944-1.84,1.046-3.991,2.3-4.9,2.829.566-3.214-.116-5.967-2.063-7.092-2.853-1.649-7.381.793-10.416,5.482a15.081,15.081,0,0,0-1.751,3.436,12.369,12.369,0,0,0-.823,6.852v.017l-1.207.74Z" transform="translate(2629.812 4293.973)" fill="#00bdf2"/>
          <g id="Group_22173" data-name="Group 22173" transform="translate(8.329 4.768)">
            <g id="Group_22172" data-name="Group 22172">
              <path id="Path_38900" data-name="Path 38900" d="M-2597.868-4288.28l-17.415,10.053s-4.816,11.3-4.917,21.742l22.333-17.17Z" transform="translate(2620.2 4288.28)" fill="#023b7d"/>
            </g>
          </g>
        </g>
        <g id="Group_22182" data-name="Group 22182" transform="translate(36.362 72.462)">
          <g id="Group_22179" data-name="Group 22179" transform="translate(0 0.001)">
            <g id="Group_22176" data-name="Group 22176">
              <g id="Group_22175" data-name="Group 22175">
                <path id="Path_38901" data-name="Path 38901" d="M-2610.3-4305.83l-18.235-10.57-11.944,14.34,18.235,10.569Z" transform="translate(2640.475 4316.4)" fill="#c8eafd"/>
              </g>
            </g>
            <g id="Group_22178" data-name="Group 22178" transform="translate(18.235 10.57)">
              <g id="Group_22177" data-name="Group 22177">
                <path id="Path_38902" data-name="Path 38902" d="M-2606.761-4303.781c-8.636,4.986-11.944,14.34-11.944,14.34l11.919-6.881Z" transform="translate(2618.705 4303.781)" fill="#c8eafd"/>
              </g>
            </g>
          </g>
          <g id="Group_22181" data-name="Group 22181">
            <g id="Group_22180" data-name="Group 22180">
              <path id="Path_38903" data-name="Path 38903" d="M-2628.531-4316.4c-8.638,4.986-11.944,14.34-11.944,14.34l11.921-6.881Z" transform="translate(2640.475 4316.401)" fill="#c8eafd"/>
            </g>
          </g>
        </g>
        <g id="Group_22193" data-name="Group 22193" transform="translate(53.666 118.028)">
          <g id="Group_22183" data-name="Group 22183" transform="translate(0.382 5.611)">
            <path id="Path_38904" data-name="Path 38904" d="M-2619.361-4250.637l2.715,1.565c.328.191.6.037.6-.342v-5.857a.677.677,0,0,0,.083.009.6.6,0,0,0,.232-.038v6.067c0,.58-.409.816-.911.525l-2.715-1.567Z" transform="translate(2619.361 4255.301)" fill="#d4ecff"/>
          </g>
          <g id="Group_22184" data-name="Group 22184" transform="translate(1.353 2.478)">
            <path id="Path_38905" data-name="Path 38905" d="M-2618.2-4257.986a.705.705,0,0,1,.318-.667l.023-.013.024-.011.022-.014.025-.014.023-.013.023-.012.024-.013.022-.012.024-.014.024-.013.023-.013.024-.013.024-.012.024-.014.024-.013.023-.014.024-.013.024-.012.023-.013.024-.013.023-.013.023-.012.024-.013.023-.012.024-.013a.711.711,0,0,1,.722.07l2.1,1.213a2.244,2.244,0,0,1,1.016,1.762v5.785a.7.7,0,0,1-.317.668l-.023.013-.024.013-.024.012-.023.012-.024.014-.024.013-.022.012-.025.013-.023.013-.023.014-.024.012-.023.014-.023.012-.025.013-.022.013-.024.013-.023.013-.023.013-.023.012-.024.013-.023.013-.024.013-.023.013-.024.013-.023.012a.71.71,0,0,1-.722-.07l-2.1-1.214a2.245,2.245,0,0,1-1.016-1.761Z" transform="translate(2618.201 4259.041)" fill="#d4ecff"/>
          </g>
          <g id="Group_22185" data-name="Group 22185" transform="translate(0.279)">
            <path id="Path_38906" data-name="Path 38906" d="M-2616.21-4259.052a1.321,1.321,0,0,0-.594-1.033l-2.678-1.55V-4262l2.678,1.55a2.02,2.02,0,0,1,.91,1.579v.169l-.315-.175Z" transform="translate(2619.483 4262)" fill="#d4ecff"/>
          </g>
          <g id="Group_22186" data-name="Group 22186" transform="translate(0 0.004)">
            <path id="Path_38907" data-name="Path 38907" d="M-2619.54-4261.995l-.276.171,1.48.868,1.526,1.092.423.706.162.625.276-.172-.123-.489-.289-.612-.409-.343Z" transform="translate(2619.816 4261.995)" fill="#d4ecff"/>
          </g>
          <g id="Group_22187" data-name="Group 22187" transform="translate(0.002 0.173)">
            <path id="Path_38908" data-name="Path 38908" d="M-2616.54-4258.847a1.319,1.319,0,0,0-.6-1.033l-2.677-1.55v-.363l2.677,1.551a2.019,2.019,0,0,1,.912,1.578v.167l-.316-.174Z" transform="translate(2619.813 4261.793)" fill="#023b7d"/>
          </g>
          <g id="Group_22188" data-name="Group 22188" transform="translate(0.025 10.275)">
            <path id="Path_38909" data-name="Path 38909" d="M-2619.429-4249.733l-.356.2,1.8,1.2,1.276.541.147.3.152-.044a3.13,3.13,0,0,0,.411-.242c.06-.065-.013-.146-.013-.146l-.287.027-.423-.09Z" transform="translate(2619.786 4249.733)" fill="#d4ecff"/>
          </g>
          <g id="Group_22189" data-name="Group 22189" transform="translate(0.025 10.275)">
            <path id="Path_38910" data-name="Path 38910" d="M-2619.429-4249.733l-.356.2,1.8,1.2,1.276.541.147.3.152-.044a3.13,3.13,0,0,0,.411-.242c.06-.065-.013-.146-.013-.146l-.287.027-.423-.09Z" transform="translate(2619.786 4249.733)" fill="#d4ecff"/>
          </g>
          <g id="Group_22190" data-name="Group 22190" transform="translate(0.025 5.81)">
            <path id="Path_38911" data-name="Path 38911" d="M-2619.786-4250.4l2.715,1.567c.328.189.6.035.6-.345v-5.855c.028,0,.056.007.084.008a.592.592,0,0,0,.232-.037V-4249c0,.58-.409.816-.911.526l-2.715-1.568Z" transform="translate(2619.786 4255.063)" fill="#023b7d"/>
          </g>
          <g id="Group_22192" data-name="Group 22192" transform="translate(1.357 2.806)">
            <g id="Group_22191" data-name="Group 22191">
              <path id="Path_38912" data-name="Path 38912" d="M-2617.18-4250.377l2.1,1.213c.564.325,1.016.062,1.016-.586v-5.785a2.243,2.243,0,0,0-1.016-1.762l-2.1-1.214c-.564-.324-1.016-.061-1.016.587v5.785A2.247,2.247,0,0,0-2617.18-4250.377Z" transform="translate(2618.196 4258.65)" fill="#023b7d"/>
            </g>
          </g>
        </g>
        <g id="Group_22194" data-name="Group 22194" transform="translate(19.767 87.35)">
          <path id="Path_38913" data-name="Path 38913" d="M-2660.287-4276.711l30.966,17.5c1.449-10.091,3.231-15.741,5.623-21.5l-30.681-17.919A89.8,89.8,0,0,0-2660.287-4276.711Z" transform="translate(2660.287 4298.626)" fill="#023b7d"/>
        </g>
        <g id="Group_22240" data-name="Group 22240" transform="translate(0 108.835)">
          <g id="Group_22197" data-name="Group 22197" transform="translate(0.001 19.25)">
            <g id="Group_22196" data-name="Group 22196">
              <g id="Group_22195" data-name="Group 22195">
                <path id="Path_38914" data-name="Path 38914" d="M-2683.886-4246.4l6.114-3.589,2.981,5.456-5.554,3.207c-1.459.845-2.7.339-2.939-1.186Z" transform="translate(2683.886 4249.993)" fill="#023b7d"/>
              </g>
            </g>
          </g>
          <g id="Group_22199" data-name="Group 22199" transform="translate(0.004 19.25)">
            <g id="Group_22198" data-name="Group 22198">
              <path id="Path_38915" data-name="Path 38915" d="M-2675.584-4248.768l-2.184-1.226-6.114,3.589,2.185,1.225Z" transform="translate(2683.883 4249.994)" fill="#d4ecff"/>
            </g>
          </g>
          <g id="Group_22200" data-name="Group 22200" transform="translate(4.152)">
            <path id="Path_38916" data-name="Path 38916" d="M-2648.021-4244.148l-30.908-17.817,15.678-11.009,30.908,17.817Z" transform="translate(2678.93 4272.975)" fill="#c8eafd"/>
            <path id="Path_38917" data-name="Path 38917" d="M-2629.776-4229.981l3.425-21.726-15.678,11.009v17.816Z" transform="translate(2672.937 4269.521)" fill="#00bdf2"/>
            <path id="Path_38918" data-name="Path 38918" d="M-2678.93-4242.015v-17.817l30.908,17.817v17.817Z" transform="translate(2678.93 4270.84)" fill="#023b7d"/>
          </g>
          <g id="Group_22202" data-name="Group 22202" transform="translate(0.001 22.84)">
            <g id="Group_22201" data-name="Group 22201">
              <path id="Path_38919" data-name="Path 38919" d="M-2647.118-4220.1l-35.3-20.288-.506-2.115-.96-3.2,35.283,20.288,1.471,3.841Z" transform="translate(2683.886 4245.707)" fill="#023b7d"/>
            </g>
          </g>
          <g id="Group_22205" data-name="Group 22205" transform="translate(35.284 39.54)">
            <g id="Group_22204" data-name="Group 22204">
              <g id="Group_22203" data-name="Group 22203">
                <path id="Path_38920" data-name="Path 38920" d="M-2641.762-4222.179l6.114-3.589,2.98,5.456-5.554,3.206c-1.459.846-2.7.34-2.938-1.185Z" transform="translate(2641.762 4225.768)" fill="#00bdf2"/>
              </g>
            </g>
          </g>
          <g id="Group_22207" data-name="Group 22207" transform="translate(33.099 38.314)">
            <g id="Group_22206" data-name="Group 22206">
              <path id="Path_38921" data-name="Path 38921" d="M-2636.072-4226.006l-2.185-1.226-6.114,3.588,2.185,1.225Z" transform="translate(2644.37 4227.232)" fill="#d4ecff"/>
            </g>
          </g>
          <g id="Group_22209" data-name="Group 22209" transform="translate(0 22.33)">
            <g id="Group_22208" data-name="Group 22208">
              <path id="Path_38922" data-name="Path 38922" d="M-2648.767-4227.935l-30.922-17.826-1.386-.556-2.812.506,35.282,20.288Z" transform="translate(2683.887 4246.316)" fill="#d4ecff"/>
            </g>
          </g>
          <g id="Group_22239" data-name="Group 22239" transform="translate(6.024 16.267)">
            <g id="Group_22236" data-name="Group 22236">
              <g id="Group_22219" data-name="Group 22219" transform="translate(8.411 5.327)">
                <g id="Group_22210" data-name="Group 22210" transform="translate(9.609 5.548)">
                  <path id="Path_38923" data-name="Path 38923" d="M-2654.937-4236.662c.133.077.242.014.242-.14v-3.312a.535.535,0,0,0-.242-.422c-.134-.079-.244-.016-.244.14v3.311A.536.536,0,0,0-2654.937-4236.662Z" transform="translate(2655.181 4240.57)" fill="#00bdf2"/>
                </g>
                <g id="Group_22211" data-name="Group 22211" transform="translate(8.409 4.855)">
                  <path id="Path_38924" data-name="Path 38924" d="M-2656.371-4237.489c.134.078.243.033.243-.1v-3.39a.5.5,0,0,0-.243-.379c-.134-.079-.243-.034-.243.1v3.391A.5.5,0,0,0-2656.371-4237.489Z" transform="translate(2656.614 4241.397)" fill="#00bdf2"/>
                </g>
                <g id="Group_22212" data-name="Group 22212" transform="translate(7.207 4.163)">
                  <path id="Path_38925" data-name="Path 38925" d="M-2657.806-4238.316c.134.078.243.034.243-.1v-3.391a.5.5,0,0,0-.243-.38c-.134-.078-.243-.034-.243.1v3.391A.5.5,0,0,0-2657.806-4238.316Z" transform="translate(2658.049 4242.224)" fill="#00bdf2"/>
                </g>
                <g id="Group_22213" data-name="Group 22213" transform="translate(6.006 3.468)">
                  <path id="Path_38926" data-name="Path 38926" d="M-2659.239-4239.146c.133.077.243.032.243-.1v-3.391a.5.5,0,0,0-.243-.379c-.134-.078-.244-.033-.244.1v3.391A.5.5,0,0,0-2659.239-4239.146Z" transform="translate(2659.483 4243.053)" fill="#00bdf2"/>
                </g>
                <g id="Group_22214" data-name="Group 22214" transform="translate(4.805 2.776)">
                  <path id="Path_38927" data-name="Path 38927" d="M-2660.673-4239.973c.134.077.243.034.243-.1v-3.39a.5.5,0,0,0-.243-.381c-.134-.077-.243-.033-.243.1v3.389A.5.5,0,0,0-2660.673-4239.973Z" transform="translate(2660.916 4243.88)" fill="#00bdf2"/>
                </g>
                <g id="Group_22215" data-name="Group 22215" transform="translate(3.604 2.082)">
                  <path id="Path_38928" data-name="Path 38928" d="M-2662.107-4240.8c.133.077.243.032.243-.1v-3.39a.5.5,0,0,0-.243-.379c-.134-.077-.243-.033-.243.1v3.391A.507.507,0,0,0-2662.107-4240.8Z" transform="translate(2662.35 4244.708)" fill="#00bdf2"/>
                </g>
                <g id="Group_22216" data-name="Group 22216" transform="translate(2.403 1.388)">
                  <path id="Path_38929" data-name="Path 38929" d="M-2663.541-4241.63c.134.079.243.034.243-.1v-3.391a.5.5,0,0,0-.243-.38c-.134-.078-.243-.033-.243.1v3.39A.5.5,0,0,0-2663.541-4241.63Z" transform="translate(2663.784 4245.537)" fill="#00bdf2"/>
                </g>
                <g id="Group_22217" data-name="Group 22217" transform="translate(1.201 0.696)">
                  <path id="Path_38930" data-name="Path 38930" d="M-2664.976-4242.456c.134.077.243.032.243-.1v-3.392a.5.5,0,0,0-.243-.379c-.134-.077-.243-.033-.243.1v3.39A.507.507,0,0,0-2664.976-4242.456Z" transform="translate(2665.219 4246.363)" fill="#00bdf2"/>
                </g>
                <g id="Group_22218" data-name="Group 22218">
                  <path id="Path_38931" data-name="Path 38931" d="M-2666.41-4243.285c.135.077.242.015.242-.141v-3.312a.538.538,0,0,0-.243-.423c-.135-.077-.243-.015-.243.142v3.312A.537.537,0,0,0-2666.41-4243.285Z" transform="translate(2666.653 4247.194)" fill="#00bdf2"/>
                </g>
              </g>
              <g id="Group_22227" data-name="Group 22227" transform="translate(20.298 11.246)">
                <g id="Group_22225" data-name="Group 22225">
                  <g id="Group_22220" data-name="Group 22220">
                    <path id="Path_38932" data-name="Path 38932" d="M-2652.462-4236.535l4.453,2.571v-3.593l-4.453-2.571Z" transform="translate(2652.462 4240.128)" fill="#00bdf2"/>
                  </g>
                  <g id="Group_22221" data-name="Group 22221" transform="translate(0.377 0.539)">
                    <path id="Path_38933" data-name="Path 38933" d="M-2652.011-4236.532l3.7,2.135v-2.954l-3.7-2.134Z" transform="translate(2652.011 4239.485)" fill="#deeaf2"/>
                  </g>
                  <g id="Group_22224" data-name="Group 22224" transform="translate(0.119 3.923)">
                    <g id="Group_22222" data-name="Group 22222">
                      <path id="Path_38934" data-name="Path 38934" d="M-2652.32-4233.988l4.3,2.483v-1.456l-4.3-2.483Z" transform="translate(2652.32 4235.444)" fill="#00bdf2"/>
                    </g>
                    <g id="Group_22223" data-name="Group 22223" transform="translate(0.151 0.245)">
                      <path id="Path_38935" data-name="Path 38935" d="M-2652.14-4234.019l3.927,2.267v-1.132l-3.927-2.267Z" transform="translate(2652.14 4235.151)" fill="#deeaf2"/>
                    </g>
                  </g>
                </g>
                <g id="Group_22226" data-name="Group 22226" transform="translate(4.75 2.714)">
                  <path id="Path_38936" data-name="Path 38936" d="M-2644.767-4230.367l-2.024-1.169v-5.352l1.161.67Z" transform="translate(2646.791 4236.888)" fill="#fff"/>
                </g>
              </g>
              <g id="Group_22235" data-name="Group 22235">
                <g id="Group_22233" data-name="Group 22233" transform="translate(2.321 0.869)">
                  <g id="Group_22228" data-name="Group 22228">
                    <path id="Path_38937" data-name="Path 38937" d="M-2669.471-4246.353l-4.453-2.571v-3.593l4.453,2.572Z" transform="translate(2673.924 4252.518)" fill="#00bdf2"/>
                  </g>
                  <g id="Group_22229" data-name="Group 22229" transform="translate(0.378 0.536)">
                    <path id="Path_38938" data-name="Path 38938" d="M-2669.775-4246.788l-3.7-2.135v-2.955l3.7,2.135Z" transform="translate(2673.472 4251.877)" fill="#deeaf2"/>
                  </g>
                  <g id="Group_22232" data-name="Group 22232" transform="translate(0.036 3.874)">
                    <g id="Group_22230" data-name="Group 22230">
                      <path id="Path_38939" data-name="Path 38939" d="M-2669.582-4243.953l-4.3-2.483v-1.457l4.3,2.484Z" transform="translate(2673.881 4247.893)" fill="#00bdf2"/>
                    </g>
                    <g id="Group_22231" data-name="Group 22231" transform="translate(0.221 0.287)">
                      <path id="Path_38940" data-name="Path 38940" d="M-2669.69-4244.151l-3.927-2.267v-1.132l3.927,2.269Z" transform="translate(2673.617 4247.55)" fill="#deeaf2"/>
                    </g>
                  </g>
                </g>
                <g id="Group_22234" data-name="Group 22234">
                  <path id="Path_38941" data-name="Path 38941" d="M-2676.695-4248.7l2.024,1.169v-5.352l-1.16-.669Z" transform="translate(2676.695 4253.554)" fill="#fff"/>
                </g>
              </g>
            </g>
            <g id="Group_22237" data-name="Group 22237" transform="translate(20.747 12.314)">
              <ellipse id="Ellipse_792" data-name="Ellipse 792" cx="0.998" cy="1.728" rx="0.998" ry="1.728" transform="translate(0 0.998) rotate(-30)" fill="#f2faff"/>
            </g>
            <g id="Group_22238" data-name="Group 22238" transform="translate(3.271 2.349)">
              <path id="Path_38942" data-name="Path 38942" d="M-2672.79-4249.88a2.7,2.7,0,0,0,1.221,2.114c.675.389,1.223.07,1.223-.7a2.7,2.7,0,0,0-1.222-2.114C-2672.243-4250.972-2672.79-4250.655-2672.79-4249.88Z" transform="translate(2672.79 4250.75)" fill="#f2faff"/>
            </g>
          </g>
        </g>
      </g>
      <g id="Group_58088" data-name="Group 58088" transform="translate(-9560.315 -14608.43)">
        <g id="Group_37673" data-name="Group 37673" transform="translate(0 0)">
          <g id="Group_37670" data-name="Group 37670" transform="translate(45.333)">
            <path id="Path_65987" data-name="Path 65987" d="M-2774.946-4216.808l-17.4-10.113,50.971-29.429,17.4,10.113Z" transform="translate(2792.348 4256.35)" fill="#c8eafd"/>
          </g>
          <g id="Group_37671" data-name="Group 37671" transform="translate(17.402 10.113)">
            <path id="Path_65988" data-name="Path 65988" d="M-2793.809-4225.027l.042,15.034,50.972-29.428.086,30.19-50.973,29.431.042,15-45.461-3.9Z" transform="translate(2839.1 4239.421)" fill="#00bdf2"/>
          </g>
          <g id="Group_37672" data-name="Group 37672" transform="translate(0 14.394)">
            <path id="Path_65989" data-name="Path 65989" d="M-2850.825-4165.815l-17.4-10.113,45.29-56.329,17.4,10.114Z" transform="translate(2868.227 4232.257)" fill="#c8eafd"/>
          </g>
        </g>
      </g>
      <g id="Group_58090" data-name="Group 58090" transform="translate(-9597.03 -14541.787)">
        <path id="Path_65975" data-name="Path 65975" d="M-2613.167-4341.807l-36.306-20.962c-2.475-1.428-4.5.1-4.5,3.4v25.061c0,3.3,2.024,7.167,4.5,8.595l11.62,6.709,6.533,16.155,6.533-8.612,11.62,6.709c2.474,1.428,4.5-.1,4.5-3.4v-25.062C-2608.668-4336.511-2610.693-4340.379-2613.167-4341.807Z" transform="translate(2653.971 4366.641)" fill="#023b7d"/>
        <path id="Path_65976" data-name="Path 65976" d="M-2630.736-4301.516l5.606-3.337,3.065-4.04-2.138-1.235Z" transform="translate(2653.388 4365.307)" fill="#05bbf1"/>
        <path id="Path_65977" data-name="Path 65977" d="M-2607.519-4345.229l-36.306-20.963a2.875,2.875,0,0,0-2.937-.231c-.954.551-5.561,3.312-5.561,3.312v0a2.89,2.89,0,0,1,2.891.255l36.306,20.961c2.474,1.428,4.5,5.3,4.5,8.594v25.061c0,1.779-.592,3.038-1.523,3.6l0,0s4.772-2.855,5.562-3.31c.956-.55,1.563-1.826,1.563-3.633v-25.06C-2603.02-4339.934-2605.044-4343.8-2607.519-4345.229Z" transform="translate(2653.929 4366.727)" fill="#05bbf1"/>
        <g id="Group_37666" data-name="Group 37666" transform="translate(8.179 21.669)">
          <path id="Path_65978" data-name="Path 65978" d="M-2619.156-4330.663c-1.715-.99-3.105.062-3.105,2.347a7.431,7.431,0,0,0,3.105,5.931c1.714.99,3.1-.061,3.1-2.346A7.437,7.437,0,0,0-2619.156-4330.663Z" transform="translate(2644.997 4344.162)" fill="#c8eafd"/>
          <path id="Path_65979" data-name="Path 65979" d="M-2630.817-4337.4c-1.714-.99-3.1.061-3.1,2.348a7.435,7.435,0,0,0,3.1,5.931c1.715.99,3.105-.061,3.105-2.346A7.435,7.435,0,0,0-2630.817-4337.4Z" transform="translate(2645.29 4344.331)" fill="#c8eafd"/>
          <path id="Path_65980" data-name="Path 65980" d="M-2642.477-4344.128c-1.715-.989-3.105.062-3.105,2.347a7.435,7.435,0,0,0,3.105,5.932c1.714.99,3.1-.061,3.1-2.348A7.438,7.438,0,0,0-2642.477-4344.128Z" transform="translate(2645.582 4344.5)" fill="#c8eafd"/>
        </g>
      </g>
    </g>
  </g>
</svg>
