<svg xmlns="http://www.w3.org/2000/svg" width="100" height="100" viewBox="0 0 100 100">
  <g id="blog" transform="translate(-3288 11925)">
    <rect id="Rectangle_2347" data-name="Rectangle 2347" width="100" height="100" transform="translate(3288 -11925)" fill="none"/>
    <g id="Group_61565" data-name="Group 61565" transform="translate(3303.758 -11913)">
      <g id="Group_56210" data-name="Group 56210" transform="translate(19.335 0)">
        <g id="Group_56208" data-name="Group 56208" transform="translate(0)">
          <path id="Path_125442" data-name="Path 125442" d="M703.575,1120.3l.019,36.8c0,3.628,2.209,7.843,4.932,9.411l38.16,22.005c2.722,1.57,4.927-.1,4.925-3.727l-.019-36.8Z" transform="translate(-703.574 -1112.827)" fill="#05bbf1"/>
          <path id="Path_125443" data-name="Path 125443" d="M801.714,1176.378l.019,36.8c0,2.007-.676,3.412-1.74,4v0l2.572-1.5c1.037-.606,1.695-2,1.694-3.973l-.019-36.8Z" transform="translate(-753.695 -1141.212)" fill="#c8eafd"/>
          <path id="Path_125444" data-name="Path 125444" d="M751.59,1139.8c0-3.629-2.209-7.843-4.932-9.412l-38.16-22c-2.722-1.571-4.927.1-4.925,3.727v1.69l48.016,27.69Z" transform="translate(-703.573 -1106.324)" fill="#023b7d"/>
          <path id="Path_125445" data-name="Path 125445" d="M751.006,1127.327l-38.161-22a3.207,3.207,0,0,0-3.111-.317l-2.662,1.543.006,0a3.134,3.134,0,0,1,3.242.24l38.16,22c2.722,1.57,4.93,5.784,4.932,9.412v1.69l2.526-1.47v-1.69C755.934,1133.111,753.726,1128.9,751.006,1127.327Z" transform="translate(-705.392 -1104.733)" fill="#05bbf1"/>
          <path id="Path_125446" data-name="Path 125446" d="M751.873,1188.07,710.138,1164l-.02-37.709,41.735,24.066Z" transform="translate(-706.975 -1115.941)" fill="#c8eafd"/>
          <ellipse id="Ellipse_4706" data-name="Ellipse 4706" cx="1.701" cy="3.007" rx="1.701" ry="3.007" transform="translate(40.287 26.201) rotate(-23.081)" fill="#c8eafd"/>
          <path id="Path_125447" data-name="Path 125447" d="M781.326,1154.97c0,1.441-.876,2.106-1.959,1.482a4.692,4.692,0,0,1-1.961-3.742c0-1.442.877-2.106,1.959-1.482A4.7,4.7,0,0,1,781.326,1154.97Z" transform="translate(-741.954 -1128.781)" fill="#c8eafd"/>
          <path id="Path_125448" data-name="Path 125448" d="M769.614,1148.218c0,1.44-.877,2.106-1.958,1.482a4.692,4.692,0,0,1-1.961-3.742c0-1.443.876-2.106,1.958-1.481A4.692,4.692,0,0,1,769.614,1148.218Z" transform="translate(-735.866 -1125.271)" fill="#c8eafd"/>
          <ellipse id="Ellipse_4707" data-name="Ellipse 4707" cx="1.701" cy="3.007" rx="1.701" ry="3.007" transform="translate(39.912 26.418) rotate(-23.081)" fill="#05bbf1"/>
          <path id="Path_125449" data-name="Path 125449" d="M780.54,1155.421c0,1.44-.876,2.106-1.958,1.482a4.691,4.691,0,0,1-1.961-3.742c0-1.443.876-2.106,1.958-1.482A4.692,4.692,0,0,1,780.54,1155.421Z" transform="translate(-741.546 -1129.015)" fill="#05bbf1"/>
          <path id="Path_125450" data-name="Path 125450" d="M768.832,1148.669c0,1.443-.876,2.106-1.958,1.482a4.69,4.69,0,0,1-1.961-3.743c0-1.442.876-2.106,1.958-1.482A4.7,4.7,0,0,1,768.832,1148.669Z" transform="translate(-735.46 -1125.505)" fill="#05bbf1"/>
        </g>
        <g id="Group_56209" data-name="Group 56209" transform="translate(9.602 21.124)">
          <path id="Path_125451" data-name="Path 125451" d="M752.386,1167.346l-28.816-16.634v-1.987l28.817,16.636Z" transform="translate(-723.57 -1148.726)" fill="#003b7d" fill-rule="evenodd"/>
          <path id="Path_125452" data-name="Path 125452" d="M752.386,1178.838,723.57,1162.2v-1.987l28.817,16.636Z" transform="translate(-723.57 -1154.698)" fill="#003b7d" fill-rule="evenodd"/>
          <path id="Path_125453" data-name="Path 125453" d="M752.386,1190.579l-28.816-16.636v-1.987l28.817,16.636Z" transform="translate(-723.57 -1160.802)" fill="#003b7d" fill-rule="evenodd"/>
          <path id="Path_125454" data-name="Path 125454" d="M752.386,1203.208l-28.816-16.636v-1.986l28.817,16.636Z" transform="translate(-723.57 -1167.367)" fill="#003b7d" fill-rule="evenodd"/>
          <path id="Path_125455" data-name="Path 125455" d="M752.386,1215.017l-28.816-16.636v-1.987l28.817,16.636Z" transform="translate(-723.57 -1173.505)" fill="#003b7d" fill-rule="evenodd"/>
        </g>
      </g>
      <g id="Group_48770" data-name="Group 48770" transform="translate(0 18.546)">
        <path id="Path_103539" data-name="Path 103539" d="M313.536-73.043,285.957-88.966c-1.881-1.085-3.417.077-3.417,2.583v19.037a8.213,8.213,0,0,0,3.417,6.529l8.827,5.1,4.961,12.272,4.963-6.541,8.827,5.1c1.879,1.085,3.417-.077,3.417-2.583V-66.515A8.208,8.208,0,0,0,313.536-73.043Z" transform="translate(-282.54 91.908)" fill="#023b7d"/>
        <path id="Path_103540" data-name="Path 103540" d="M313.026,30.218l4.259-2.535,2.328-3.069-1.624-.938Z" transform="translate(-295.821 18.24)" fill="#05bbf1"/>
        <path id="Path_103541" data-name="Path 103541" d="M304.348-80.322,276.769-96.245a2.174,2.174,0,0,0-2.229-.174c-.725.418-4.225,2.515-4.225,2.515v0a2.194,2.194,0,0,1,2.195.193l27.579,15.923a8.214,8.214,0,0,1,3.417,6.529v19.037a3.043,3.043,0,0,1-1.157,2.736l0,0s3.625-2.17,4.224-2.514a3.023,3.023,0,0,0,1.188-2.76V-73.793A8.214,8.214,0,0,0,304.348-80.322Z" transform="translate(-269.093 96.652)" fill="#05bbf1"/>
        <g id="Group_48769" data-name="Group 48769" transform="translate(6.213 16.462)">
          <path id="Path_103542" data-name="Path 103542" d="M302.73-20.49c-1.3-.752-2.358.046-2.358,1.783A5.648,5.648,0,0,0,302.73-14.2c1.3.752,2.358-.046,2.358-1.783A5.648,5.648,0,0,0,302.73-20.49Z" transform="translate(-283.101 30.744)" fill="#c8eafd"/>
          <path id="Path_103543" data-name="Path 103543" d="M327.522-34.805c-1.3-.752-2.358.046-2.358,1.783a5.647,5.647,0,0,0,2.358,4.506c1.3.752,2.358-.046,2.358-1.783A5.647,5.647,0,0,0,327.522-34.805Z" transform="translate(-316.53 40.073)" fill="#c8eafd"/>
          <path id="Path_103544" data-name="Path 103544" d="M352.308-49.114c-1.3-.752-2.358.046-2.358,1.783a5.649,5.649,0,0,0,2.358,4.506c1.3.752,2.358-.046,2.358-1.783A5.647,5.647,0,0,0,352.308-49.114Z" transform="translate(-349.95 49.397)" fill="#c8eafd"/>
        </g>
      </g>
    </g>
  </g>
</svg>
