<svg xmlns="http://www.w3.org/2000/svg" width="100" height="100" viewBox="0 0 100 100">
  <g id="careers" transform="translate(-4324 11925)">
    <rect id="Rectangle_2353" data-name="Rectangle 2353" width="100" height="100" transform="translate(4324 -11925)" fill="none"/>
    <g id="Group_61570" data-name="Group 61570" transform="translate(4346 -11915)">
      <g id="Group_57342" data-name="Group 57342" transform="translate(31.467 0)">
        <g id="Group_57341" data-name="Group 57341" transform="translate(0 0)">
          <path id="Path_130311" data-name="Path 130311" d="M-360.8,905.665a14.049,14.049,0,0,0,.3,3.192,15.866,15.866,0,0,0,3.087,2.128,2.845,2.845,0,0,0,1.851.01c.091-.086-2.9-2.923-2.787-3.379.087-.344,2.194,1.241,2.194,1.241s.86.06-1.649-2.316-2.288-3.608-2.288-3.608Z" transform="translate(364.264 -870.239)" fill="#c8eafd"/>
          <path id="Path_130312" data-name="Path 130312" d="M-359.464,855.315c1.22.6,3.441,3.091,2.971,4.453s-2.6,9.425-2.6,9.425a91.989,91.989,0,0,0,.987,9.728c-4.253,2.171-4.836.883-4.836.883s-.59-10.188-.542-11.006c.313-5.4.993-12.654.993-12.654S-360.9,854.61-359.464,855.315Z" transform="translate(365.808 -842.74)" fill="#023b7d"/>
          <g id="Group_57340" data-name="Group 57340" transform="translate(0 34.835)">
            <g id="Group_57339" data-name="Group 57339">
              <path id="Path_130313" data-name="Path 130313" d="M-357.506,986.241a25.417,25.417,0,0,0,.462,4,5.03,5.03,0,0,1-1.539.586s-.513-.344-.748-.139a15.64,15.64,0,0,1-3.411,2.2,20.117,20.117,0,0,1-5.978.171c-1.228-.972,2.674-3.049,3.133-3.4s3.738-3.35,3.738-3.35Z" transform="translate(368.957 -952.994)" fill="#05bbf1"/>
              <path id="Path_130314" data-name="Path 130314" d="M-332.087,999.641a25.413,25.413,0,0,0,.462,4,5.025,5.025,0,0,1-1.539.586s-.513-.343-.748-.139a15.634,15.634,0,0,1-3.411,2.2,20.122,20.122,0,0,1-5.979.171c-1.228-.972,2.676-3.049,3.134-3.4s3.737-3.35,3.737-3.35Z" transform="translate(354.335 -960.702)" fill="#05bbf1"/>
              <g id="Group_57338" data-name="Group 57338" transform="translate(4.028)">
                <path id="Path_130315" data-name="Path 130315" d="M-359.474,908.952l1.574,32.2-.787,1.674a5.516,5.516,0,0,0,6.621,1.643c.625-.28.355-2.759.355-2.759l2.035-31.06Z" transform="translate(359.474 -908.535)" fill="#023b7d"/>
                <path id="Path_130316" data-name="Path 130316" d="M-344.463,907.971s4.061,21.08,4.706,27.529,1.418,9.55,1.161,9.921-1.289,1.674-.967,1.922,3.352,1.8,4.642,1.8,3.16-1.488,3.16-1.488l-4.349-38.156Z" transform="translate(350.839 -907.971)" fill="#023b7d"/>
                <path id="Path_130317" data-name="Path 130317" d="M-337.967,923.551l5.611-.775,3.418,30.79S-332.278,924.659-337.967,923.551Z" transform="translate(347.103 -916.487)" fill="#023b7d"/>
              </g>
            </g>
            <path id="Path_130318" data-name="Path 130318" d="M-362.861,992.794s-4.506,2.674-3.762,2.908,4.549-.562,5.292-.8l.744-.239a30.027,30.027,0,0,1-4.672.477C-365.714,994.941-362.861,992.794-362.861,992.794Z" transform="translate(367.662 -956.763)" fill="#05bbf1"/>
            <path id="Path_130319" data-name="Path 130319" d="M-337.9,1006.743s-4.506,2.674-3.762,2.908,4.549-.562,5.292-.8l.744-.239a30.029,30.029,0,0,1-4.672.477C-340.752,1008.892-337.9,1006.743-337.9,1006.743Z" transform="translate(353.304 -964.787)" fill="#05bbf1"/>
          </g>
          <path id="Path_130320" data-name="Path 130320" d="M-320.237,914.172a17.448,17.448,0,0,1,.072,3.573,15.766,15.766,0,0,1-2.821,2.663c-.4.231-1.559.435-1.841.192-.1-.087,2.543-3.528,2.375-4.023-.127-.374-2.036,1.592-2.036,1.592s-.85.151,1.368-2.732,1.852-4.228,1.852-4.228Z" transform="translate(343.573 -874.999)" fill="#c8eafd"/>
          <path id="Path_130321" data-name="Path 130321" d="M-352.313,852.679s5.84,2.188,7.241,3.424-2.713,13.509-1.837,15.98,2.115,7.961,2.115,7.961-1.505,1.613-5.243,2.455c-2,.451-5.661-.695-8.154-1.728l-.174-1.875-.713,1.507a18.439,18.439,0,0,1-2.813-1.78s.993-9.546.759-10.726-3.667-13.537.759-14.716A20.164,20.164,0,0,1-352.313,852.679Z" transform="translate(365.312 -841.219)" fill="#05bbf1"/>
          <path id="Path_130322" data-name="Path 130322" d="M-330.55,858.85c-1.144.781-3.06,3.766-2.431,5.233s3.693,10.21,3.693,10.21.378,5.4.162,10.895c4.486,2,4.914.509,4.914.509s.528-11.761.427-12.67c-.125-1.134-3.2-9.912-3.195-10.414a18.717,18.717,0,0,0-.347-2.142S-329.2,857.928-330.55,858.85Z" transform="translate(348.334 -844.765)" fill="#023b7d"/>
          <path id="Path_130323" data-name="Path 130323" d="M-348.083,852.7l-5.9,16.321s-2.161-9.6-1.869-11.908a14.067,14.067,0,0,1,1.459-4.412A11.784,11.784,0,0,1-348.083,852.7Z" transform="translate(361.434 -841.106)" fill="#c8eafd"/>
          <path id="Path_130324" data-name="Path 130324" d="M-348.014,854.3l-1.865,4.5H-351.1l1.051,1.181-6.424,9.6-3.738-11.29.876-.225.35-4.437a4.091,4.091,0,0,1,2.1-.369c-1.869,5.48.657,15.634.657,15.634l5.652-15.634Z" transform="translate(363.929 -841.664)" fill="#023b7d"/>
          <path id="Path_130325" data-name="Path 130325" d="M-345.432,843.078a22.524,22.524,0,0,0-.333,4.258c-2.1,2.125-3.49,2.059-4.148,1.646a9.081,9.081,0,0,1-1.05-1.01v-4.041Z" transform="translate(358.606 -835.808)" fill="#c8eafd"/>
          <path id="Path_130326" data-name="Path 130326" d="M-350.22,829.079s-5.2-.585-5.807,1.542-.5,7.766.5,8.457,4.811-1.01,5.2-1.7-.055-1.33.387-1.49a4.378,4.378,0,0,0,1.549-2.127C-348.229,833.069-348.721,829.414-350.22,829.079Z" transform="translate(361.735 -827.713)" fill="#c8eafd"/>
          <path id="Path_130327" data-name="Path 130327" d="M-351.446,826a5.891,5.891,0,0,0-4.286,1.256,2.335,2.335,0,0,0-.789,2.441s4.4.964,5.178.539c.885.372.567,2.121,1.01,1.855s1.762-.638.986,1.393c-.291.764.452,1.984.452,1.984s.411-1.4.568-2.049c.2-.821,1.424-2.526,1.267-3.455C-347.557,827.036-349.46,826.305-351.446,826Z" transform="translate(361.854 -825.963)" fill="#023b7d"/>
          <path id="Path_130328" data-name="Path 130328" d="M-350.449,826.942a3.532,3.532,0,0,0-2.589,1.038,4.048,4.048,0,0,1,1.526-.337v.442s2.639-1.095,4.015-.579A6.64,6.64,0,0,0-350.449,826.942Z" transform="translate(359.8 -826.52)" fill="#023b7d"/>
          <path id="Path_130329" data-name="Path 130329" d="M-335.613,902.26l-1.427,7.583s3.939.28,6.158-1.348C-334.27,908.27-335.613,902.26-335.613,902.26Z" transform="translate(350.598 -869.851)" fill="#05bbf1"/>
          <path id="Path_130330" data-name="Path 130330" d="M-359.28,890.393l2.19,9.731-.745,1.559-2.38-1.389Z" transform="translate(363.928 -863.025)" fill="#05bbf1"/>
          <path id="Path_130331" data-name="Path 130331" d="M-344.59,851.682l-4.323,2.078.548,1.1,4.584-2.387Z" transform="translate(357.427 -840.757)" fill="#023b7d"/>
          <path id="Path_130332" data-name="Path 130332" d="M-350.786,854.464l-.79.953-.593-2.389.595-.122Z" transform="translate(359.3 -841.461)" fill="#023b7d"/>
          <path id="Path_130333" data-name="Path 130333" d="M-349.556,856.574l-.474.572s.131.356.306.412.533-.253.533-.253Z" transform="translate(358.07 -843.571)" fill="#023b7d"/>
          <path id="Path_130334" data-name="Path 130334" d="M-350.817,858.339l.295,4.564-.446,6.76-.734,2.032-.643-2.748.166-6.171,1.007-4.648Z" transform="translate(359.401 -844.465)" fill="#023b7d"/>
        </g>
      </g>
      <g id="Group_57352" data-name="Group 57352" transform="translate(0 0)">
        <g id="Group_57351" data-name="Group 57351">
          <g id="Group_57350" data-name="Group 57350" transform="translate(0 2.071)">
            <path id="Path_130444" data-name="Path 130444" d="M-410.822,852.8a3.186,3.186,0,0,1,2.449,4.184c-.934,3.521-3.276,7.4-2.727,8.015.425.477,6.339,4.966,9.494,7.007a3.916,3.916,0,0,0-2.006,1.727c-3.568-1.958-10.053-5.518-10.417-6.358C-414.485,866.323-413.019,854.124-410.822,852.8Z" transform="translate(423.48 -841.156)" fill="#05bbf1"/>
            <path id="Path_130445" data-name="Path 130445" d="M-385.531,901.406a7.214,7.214,0,0,0,1.853,1c1.1.088,2.638,4.269,2.135,4.269s-2.135-1.365-3.965-2.421c-.376-.217-1.106-.618-2.028-1.124A3.915,3.915,0,0,1-385.531,901.406Z" transform="translate(407.406 -870.552)" fill="#c8eafd"/>
            <path id="Path_130446" data-name="Path 130446" d="M-417.056,989.135l2.7.8s1.547,2.884,2.208,3.892,1.76,3,1.38,3.395-3.758.16-4.458-.639-.9-3.066-1.581-3.254-1.1,2.193-1.25,2.5-.8-.029-.8-.029l.757-2.808a17.179,17.179,0,0,1,.27-2.34A12.573,12.573,0,0,1-417.056,989.135Z" transform="translate(426.348 -923.614)" fill="#023b7d"/>
            <path id="Path_130447" data-name="Path 130447" d="M-426.176,996.36h3.689a18.79,18.79,0,0,0,2.386,3.191c.927.792,2.558,2.409,2.307,2.892s-3.564,1.159-4.467.579-1.757-2.7-2.459-2.7-.471,2.095-.521,2.433-.778.187-.778.187l-.04-2.593a17.176,17.176,0,0,1-.417-2.32A12.273,12.273,0,0,1-426.176,996.36Z" transform="translate(430.959 -927.984)" fill="#023b7d"/>
            <path id="Path_130448" data-name="Path 130448" d="M-423.691,936.862s-.549,8.846-.824,10.629-.068,12.278-.068,13.268,2.814,3.4,2.814,3.4-2.4.627-3.226-.165-2.951-2.575-3.157-3.631-.372-4.407-1.076-8.073c-.643-3.347.184-4.271.253-6.053.1-2.708-.961-7.592-.892-9.373Z" transform="translate(433.012 -891.997)" fill="#c8eafd"/>
            <path id="Path_130449" data-name="Path 130449" d="M-414.238,930.094s3.845,5.875,3.569,7.129-1.922,2.245-2.608,4.423-.961,10.166-.961,10.166l-.343,1.254s3.088,8.053,4.394,4.225l-1.579-4.027c1.1-3.5,6.108-13.928,6.657-15.05s-1.51-8.516-2.608-9.7Z" transform="translate(423.764 -886.946)" fill="#c8eafd"/>
            <path id="Path_130450" data-name="Path 130450" d="M-415.919,831.927l-.925,4.5s3.68.234,4.071-.23c1.687-2.01.479-10.506.479-10.506s-2.671-1.068-3.974-.7S-415.919,831.927-415.919,831.927Z" transform="translate(425.132 -824.288)" fill="#05bbf1"/>
            <path id="Path_130451" data-name="Path 130451" d="M-427.959,835.6l.6-.313,1.465-.349v-3.757s-5.924-5.173-2.066-6.673,7.107-1.649,7.47,0,.562,7.081-.3,7.755a2.784,2.784,0,0,1-1.68.642l-.312,1.575.725.011,1.926,5.837-1.17,2.474a29,29,0,0,1-3.782-.6c-.349-.225-1.742-4.349-1.742-4.349Z" transform="translate(432.645 -823.327)" fill="#c8eafd"/>
            <path id="Path_130452" data-name="Path 130452" d="M-419.286,852.094s.84,3.383-.291,3.765c-.6.2-2.094-2-3.42-2.86-3.814-2.477,4.277,6.857,4.277,6.857l1.109-1.755Z" transform="translate(429.472 -840.726)" fill="#c8eafd"/>
            <path id="Path_130453" data-name="Path 130453" d="M-435.235,853.371l2.914-1.267a.821.821,0,0,1,.972.221c1.043,1.49,5.693,5.024,5.693,5.024,0,.98-1.451-6.013-.584-5.8-.6-.147,2.316.514,2.316.514s3.028,6.358,2.754,7.752-1.7,7.651-1.729,8.384,3.965,14.188,4.608,15.927-3.161,5.794-9.533,5.806c-2.9.006-8.132.456-8.044-.517.049-.546-1.265-8.678,1.091-14.234.24-.567,3.642-5.548,3.642-6.448,0-.788-3.86-12.772-4.456-14.709A.545.545,0,0,1-435.235,853.371Z" transform="translate(436.834 -840.384)" fill="#023b7d"/>
            <path id="Path_130454" data-name="Path 130454" d="M-419.609,858.553a6.632,6.632,0,0,0-1.968-.908c-.434-.064-.611.395-.73.54l-3.887-4.53.674-.137Z" transform="translate(430.788 -841.588)" fill="#05bbf1"/>
            <path id="Path_130455" data-name="Path 130455" d="M-410.647,851.5l.84.388s.836,4.323.948,4.365c.035.013-.7-.267-1.056-.087-.284.145-.181.686-.291,1.167C-410.591,859.029-410.647,851.5-410.647,851.5Z" transform="translate(421.384 -840.369)" fill="#05bbf1"/>
            <path id="Path_130456" data-name="Path 130456" d="M-425.047,914.514s2.5,3.5,1.442,5.143-3.611-4-3.873-4.936c-.092-.325-.665-1.583-1.421-3.2a21.9,21.9,0,0,1,2.769-.149Z" transform="translate(432.424 -876.582)" fill="#c8eafd"/>
            <path id="Path_130457" data-name="Path 130457" d="M-437.645,857.312a1.3,1.3,0,0,1,.531-.859c.728-.524,2.338-1.435,3.037.144l.628,14.918.069.365,2.542,7.364a1.333,1.333,0,0,1-.86,1.677,1.325,1.325,0,0,1-.359.063l-.027,0a1.374,1.374,0,0,1-1.346-.771c-1.374-2.918-3.134-6.593-3.852-8.276C-437.628,871.131-438.068,860.063-437.645,857.312Z" transform="translate(437.819 -842.915)" fill="#05bbf1"/>
          </g>
          <path id="Path_130458" data-name="Path 130458" d="M-422.571,818.906c-2.1-1.457-8.594-1.385-8.537,3.7s-1,6.975.547,9.148,2.4,5.841,3.634,7.877c.366.6.166-1.3.166-1.3s.262.632.269.276c.058-2.846-.109-7.991-.232-11.185.773-1.736,1.583-3.432,1.583-3.434h0s-.5,2.149-.223,1.355a14.857,14.857,0,0,1,1.9-2.682l-.026,0a7.519,7.519,0,0,1,1.581-1.079c.619-.054.27,3.867.4,3.735C-420.881,824.686-420.47,820.363-422.571,818.906Z" transform="translate(433.941 -818.087)" fill="#05bbf1"/>
        </g>
      </g>
    </g>
  </g>
</svg>
