<svg id="company" xmlns="http://www.w3.org/2000/svg" width="100" height="100" viewBox="0 0 100 100">
  <rect id="Rectangle_2350" data-name="Rectangle 2350" width="100" height="100" fill="none"/>
  <g id="Group_47338" data-name="Group 47338" transform="translate(4.335 4.53)">
    <path id="Path_99802" data-name="Path 99802" d="M133.055,137.127,89.666,112.076a1.75,1.75,0,0,0-1.47-.18l0,0-.079.03-.019.007-1.568.6,1.407.689c-.006.027-.014.05-.02.077l-7.666,34.865a4.062,4.062,0,0,0,1.582,4.2l42.346,24.448-.151,1.795,1.714-.664a2.408,2.408,0,0,0,1.227-1.746l7.667-34.865A4.064,4.064,0,0,0,133.055,137.127Z" transform="translate(-43.398 -111.81)" fill="#023b7d"/>
    <path id="Path_99803" data-name="Path 99803" d="M136.9,137.127,93.512,112.076a1.75,1.75,0,0,0-1.47-.18l0,0-.079.03-.019.007-1.568.6,1.407.689c-.006.027-.014.05-.02.077l-5.257,23.9,21.23,16.54,30.534-14.875A3.368,3.368,0,0,0,136.9,137.127Z" transform="translate(-47.244 -111.81)" fill="#05bbf1"/>
    <path id="Path_99804" data-name="Path 99804" d="M205.245,181.372l3.3-1.406a4.137,4.137,0,0,0-1.338-3.307l-5.228,2.2Z" transform="translate(-117.223 -151.109)" fill="#05bbf1"/>
    <path id="Path_99805" data-name="Path 99805" d="M118.366,179.358,74.976,154.306a4.063,4.063,0,0,1-1.582-4.2l7.667-34.865c.353-1.61,1.635-2.341,2.863-1.632l43.39,25.051a4.063,4.063,0,0,1,1.582,4.2l-7.666,34.865C120.875,179.335,119.593,180.066,118.366,179.358Z" transform="translate(-39.241 -112.737)" fill="#d4ecff"/>
    <path id="Path_99806" data-name="Path 99806" d="M142.079,138.281,98.689,113.23a1.715,1.715,0,0,0-1.708-.074,1.783,1.783,0,0,1,1.293.227l43.39,25.05a4.063,4.063,0,0,1,1.582,4.2L135.579,177.5a2.447,2.447,0,0,1-1.155,1.706A2.237,2.237,0,0,0,136,177.345l7.666-34.865A4.065,4.065,0,0,0,142.079,138.281Z" transform="translate(-53.591 -112.509)" fill="#d4ecff"/>
    <path id="Path_99807" data-name="Path 99807" d="M120.17,180.593,79.362,157.045a3.719,3.719,0,0,1-1.447-3.842l7.066-32.133c.323-1.473,1.5-2.142,2.62-1.494l40.807,23.549a3.719,3.719,0,0,1,1.448,3.842L122.789,179.1C122.466,180.573,121.293,181.242,120.17,180.593Z" transform="translate(-41.985 -116.366)" fill="#d4ecff"/>
    <path id="Path_99808" data-name="Path 99808" d="M120.17,180.593,79.362,157.045a3.719,3.719,0,0,1-1.447-3.842l7.066-32.133c.323-1.473,1.5-2.142,2.62-1.494l40.807,23.549a3.719,3.719,0,0,1,1.448,3.842L122.789,179.1C122.466,180.573,121.293,181.242,120.17,180.593Z" transform="translate(-41.985 -116.366)" fill="#023b7d"/>
    <path id="Path_99809" data-name="Path 99809" d="M120.526,180.52,79.718,156.972a3.718,3.718,0,0,1-1.447-3.842L85.337,121a2.259,2.259,0,0,1,1.028-1.55,2.078,2.078,0,0,0-1.384,1.694l-7.067,32.133a3.72,3.72,0,0,0,1.447,3.842l40.807,23.548a1.568,1.568,0,0,0,1.591.056A1.627,1.627,0,0,1,120.526,180.52Z" transform="translate(-41.986 -116.438)" fill="#00bdf2"/>
    <path id="Path_99810" data-name="Path 99810" d="M66.573,247.733l-5.931-.783-38.286-22.1a5.325,5.325,0,0,0-4.789.2L-9.563,240.7l-3.586-.474v2.035h0a1.4,1.4,0,0,0,.823,1.257l43.389,25.051a5.325,5.325,0,0,0,4.789-.2L65.4,251.321a1.933,1.933,0,0,0,1.171-1.611h0Z" transform="translate(13.151 -180.023)" fill="#023b7d"/>
    <path id="Path_99811" data-name="Path 99811" d="M37.807,245.807l-2.72-1.57H5.182l-14.743,8.506-3.586-.474V254.3h0a1.4,1.4,0,0,0,.824,1.257l43.389,25.051a4.485,4.485,0,0,0,2.471.463Z" transform="translate(13.15 -192.064)" fill="#00bdf2"/>
    <path id="Path_99812" data-name="Path 99812" d="M-11.557,264.836l-1.591-.21v2.035h0a1.4,1.4,0,0,0,.824,1.257l.764.442Z" transform="translate(13.15 -204.42)" fill="#00bdf2"/>
    <path id="Path_99813" data-name="Path 99813" d="M100.192,329.712a5.555,5.555,0,0,0,4.069-.253v-4.539h-4.069Z" transform="translate(-55.536 -240.96)" fill="#00bdf2"/>
    <path id="Path_99814" data-name="Path 99814" d="M31.065,261.35-12.325,236.3c-1.228-.709-1.074-1.947.344-2.765l29.545-17.052a5.322,5.322,0,0,1,4.789-.2l43.389,25.051c1.227.709,1.073,1.947-.344,2.765L35.853,261.152A5.323,5.323,0,0,1,31.065,261.35Z" transform="translate(13.154 -174.834)" fill="#d4ecff"/>
    <path id="Path_99815" data-name="Path 99815" d="M65.4,272.452,35.858,289.5a5.324,5.324,0,0,1-4.788.2L-12.32,264.652a1.613,1.613,0,0,1-.763-.835,1.313,1.313,0,0,0,.763,1.578L31.07,290.446a5.323,5.323,0,0,0,4.788-.2L65.4,273.2c.953-.55,1.332-1.289,1.107-1.93A2.3,2.3,0,0,1,65.4,272.452Z" transform="translate(13.149 -203.93)" fill="#d4ecff"/>
    <g id="Group_47336" data-name="Group 47336" transform="translate(17.213 42.515)">
      <path id="Path_99816" data-name="Path 99816" d="M32.608,242.292l-1.963-1.133c-.158-.091-.138-.25.044-.355L33,239.466a.684.684,0,0,1,.615-.026l1.963,1.133c.158.091.138.25-.044.355l-2.317,1.338A.683.683,0,0,1,32.608,242.292Z" transform="translate(-30.538 -231.635)" fill="#00bdf2"/>
      <path id="Path_99817" data-name="Path 99817" d="M40.3,246.734,38.339,245.6c-.158-.091-.138-.25.044-.355l2.316-1.338a.684.684,0,0,1,.615-.027l1.963,1.133c.158.091.138.25-.044.355l-2.317,1.338A.682.682,0,0,1,40.3,246.734Z" transform="translate(-35.201 -234.327)" fill="#00bdf2"/>
      <path id="Path_99818" data-name="Path 99818" d="M48,251.178l-1.964-1.133c-.157-.091-.138-.25.045-.355l2.317-1.338a.684.684,0,0,1,.615-.026l1.963,1.133c.158.091.138.25-.044.355l-2.317,1.338A.683.683,0,0,1,48,251.178Z" transform="translate(-39.865 -237.02)" fill="#00bdf2"/>
      <path id="Path_99819" data-name="Path 99819" d="M58.641,247.839l-1.964-1.133c-.157-.091-.137-.25.045-.355l1.945-1.123a.684.684,0,0,1,.615-.026l1.963,1.133c.158.091.138.25-.044.355l-1.945,1.123A.682.682,0,0,1,58.641,247.839Z" transform="translate(-46.315 -235.127)" fill="#00bdf2"/>
      <path id="Path_99820" data-name="Path 99820" d="M66.336,252.283l-1.963-1.134c-.158-.091-.138-.25.044-.355l1.945-1.123a.684.684,0,0,1,.615-.026l1.963,1.133c.158.091.138.25-.044.355l-1.945,1.123A.684.684,0,0,1,66.336,252.283Z" transform="translate(-50.978 -237.819)" fill="#00bdf2"/>
      <path id="Path_99821" data-name="Path 99821" d="M74.031,256.724l-1.963-1.133c-.158-.091-.138-.251.044-.355l1.945-1.123a.682.682,0,0,1,.615-.027l1.963,1.133c.158.091.138.25-.045.355L74.646,256.7A.683.683,0,0,1,74.031,256.724Z" transform="translate(-55.642 -240.511)" fill="#00bdf2"/>
      <path id="Path_99822" data-name="Path 99822" d="M81.727,261.167l-1.964-1.134c-.157-.091-.138-.25.044-.355l1.945-1.123a.684.684,0,0,1,.615-.027l1.963,1.134c.158.091.138.25-.044.355l-1.945,1.123A.686.686,0,0,1,81.727,261.167Z" transform="translate(-60.305 -243.203)" fill="#00bdf2"/>
      <path id="Path_99823" data-name="Path 99823" d="M89.422,265.611l-1.964-1.133c-.157-.091-.138-.25.045-.355L89.448,263a.685.685,0,0,1,.615-.025l1.963,1.133c.158.091.138.25-.044.355l-1.945,1.123A.684.684,0,0,1,89.422,265.611Z" transform="translate(-64.969 -245.897)" fill="#00bdf2"/>
      <path id="Path_99824" data-name="Path 99824" d="M97.117,270.053l-1.963-1.133c-.158-.091-.138-.25.044-.355l1.945-1.123a.684.684,0,0,1,.615-.027l1.964,1.133c.157.091.138.25-.045.355l-1.945,1.123A.684.684,0,0,1,97.117,270.053Z" transform="translate(-69.632 -248.588)" fill="#00bdf2"/>
      <path id="Path_99825" data-name="Path 99825" d="M104.813,274.5l-1.963-1.133c-.158-.091-.138-.25.044-.355l1.945-1.123a.682.682,0,0,1,.615-.025l1.963,1.133c.158.091.138.25-.044.355l-1.945,1.123A.683.683,0,0,1,104.813,274.5Z" transform="translate(-74.296 -251.282)" fill="#00bdf2"/>
      <path id="Path_99826" data-name="Path 99826" d="M112.508,278.939l-1.964-1.133c-.158-.091-.138-.25.044-.355l1.945-1.123a.684.684,0,0,1,.615-.027l1.963,1.133c.158.091.138.25-.044.355l-1.945,1.123A.684.684,0,0,1,112.508,278.939Z" transform="translate(-78.959 -253.973)" fill="#00bdf2"/>
      <path id="Path_99827" data-name="Path 99827" d="M120.2,283.382l-1.963-1.134c-.158-.091-.138-.25.044-.355l1.945-1.123a.684.684,0,0,1,.615-.027l1.963,1.133c.158.091.138.25-.044.355l-1.945,1.123A.684.684,0,0,1,120.2,283.382Z" transform="translate(-83.623 -256.666)" fill="#00bdf2"/>
      <path id="Path_99828" data-name="Path 99828" d="M127.9,287.824l-1.963-1.133c-.158-.091-.138-.25.044-.355l1.945-1.123a.684.684,0,0,1,.615-.027l1.964,1.133c.157.091.137.25-.045.355l-1.945,1.123A.684.684,0,0,1,127.9,287.824Z" transform="translate(-88.287 -259.358)" fill="#00bdf2"/>
      <path id="Path_99829" data-name="Path 99829" d="M69.976,245.735,68.012,244.6c-.158-.091-.138-.25.045-.355L70,243.123a.685.685,0,0,1,.615-.027l1.963,1.133c.158.091.138.25-.044.355l-1.945,1.123A.684.684,0,0,1,69.976,245.735Z" transform="translate(-53.184 -233.851)" fill="#00bdf2"/>
      <path id="Path_99830" data-name="Path 99830" d="M62.169,241.227l-1.964-1.133c-.157-.091-.137-.25.045-.355l1.945-1.123a.682.682,0,0,1,.615-.026l1.963,1.133c.158.091.138.251-.044.355L62.784,241.2A.685.685,0,0,1,62.169,241.227Z" transform="translate(-48.453 -231.12)" fill="#00bdf2"/>
      <path id="Path_99831" data-name="Path 99831" d="M50.863,234.7l-4.228-2.441c-.158-.091-.138-.25.044-.355l1.945-1.123a.684.684,0,0,1,.615-.027l4.228,2.441c.158.091.138.25-.044.355l-1.945,1.123A.682.682,0,0,1,50.863,234.7Z" transform="translate(-40.229 -226.37)" fill="#00bdf2"/>
      <path id="Path_99832" data-name="Path 99832" d="M57.556,229.913l-3.431-1.981c-.158-.091-.138-.25.044-.355l1.945-1.123a.685.685,0,0,1,.615-.027l3.432,1.981c.158.091.138.25-.045.355l-1.945,1.123A.684.684,0,0,1,57.556,229.913Z" transform="translate(-44.768 -223.749)" fill="#00bdf2"/>
      <path id="Path_99833" data-name="Path 99833" d="M77.675,250.179l-1.963-1.133c-.158-.091-.138-.25.045-.355l1.945-1.123a.682.682,0,0,1,.615-.025l1.964,1.133c.157.091.138.25-.045.355l-1.945,1.123A.684.684,0,0,1,77.675,250.179Z" transform="translate(-57.85 -236.545)" fill="#00bdf2"/>
      <path id="Path_99834" data-name="Path 99834" d="M85.37,254.62l-1.963-1.133c-.158-.091-.138-.25.044-.355l1.945-1.123a.684.684,0,0,1,.615-.027l1.963,1.133c.158.091.138.25-.044.355l-1.945,1.123A.684.684,0,0,1,85.37,254.62Z" transform="translate(-62.513 -239.236)" fill="#00bdf2"/>
      <path id="Path_99835" data-name="Path 99835" d="M93.066,259.065,91.1,257.931c-.158-.091-.138-.25.044-.355l1.945-1.123a.684.684,0,0,1,.615-.026l1.963,1.134c.158.091.138.25-.044.355l-1.945,1.123A.684.684,0,0,1,93.066,259.065Z" transform="translate(-67.177 -241.93)" fill="#00bdf2"/>
      <path id="Path_99836" data-name="Path 99836" d="M100.761,263.506,98.8,262.373c-.158-.091-.138-.25.045-.355l1.945-1.123a.682.682,0,0,1,.615-.027L103.365,262c.158.091.138.25-.045.355l-1.945,1.123A.683.683,0,0,1,100.761,263.506Z" transform="translate(-71.84 -244.621)" fill="#00bdf2"/>
      <path id="Path_99837" data-name="Path 99837" d="M108.455,267.951l-1.963-1.133c-.158-.091-.138-.25.044-.355l1.945-1.123a.683.683,0,0,1,.615-.026l1.963,1.133c.158.091.138.25-.044.355l-1.945,1.123A.684.684,0,0,1,108.455,267.951Z" transform="translate(-76.504 -247.315)" fill="#00bdf2"/>
      <path id="Path_99838" data-name="Path 99838" d="M116.151,272.392l-1.963-1.133c-.158-.091-.138-.25.044-.355l1.945-1.123a.682.682,0,0,1,.615-.027l1.963,1.133c.158.091.138.25-.044.355l-1.945,1.123A.684.684,0,0,1,116.151,272.392Z" transform="translate(-81.167 -250.006)" fill="#00bdf2"/>
      <path id="Path_99839" data-name="Path 99839" d="M123.846,276.835l-1.963-1.133c-.158-.091-.138-.25.044-.355l1.945-1.123a.684.684,0,0,1,.615-.027l1.963,1.134c.158.091.138.25-.044.355l-1.945,1.123A.684.684,0,0,1,123.846,276.835Z" transform="translate(-85.831 -252.698)" fill="#00bdf2"/>
      <path id="Path_99840" data-name="Path 99840" d="M131.542,281.278l-1.964-1.133c-.157-.091-.138-.25.044-.355l1.945-1.123a.684.684,0,0,1,.615-.027l1.963,1.133c.158.091.137.25-.044.355l-1.945,1.123A.683.683,0,0,1,131.542,281.278Z" transform="translate(-90.494 -255.391)" fill="#00bdf2"/>
      <path id="Path_99841" data-name="Path 99841" d="M139.237,285.721l-1.963-1.133c-.158-.091-.138-.25.044-.355l1.945-1.123a.684.684,0,0,1,.615-.027l1.964,1.134c.157.091.137.25-.045.355l-1.945,1.123A.684.684,0,0,1,139.237,285.721Z" transform="translate(-95.158 -258.083)" fill="#00bdf2"/>
      <path id="Path_99842" data-name="Path 99842" d="M149.349,291.56l-4.283-2.473c-.158-.091-.138-.25.044-.355l1.945-1.123a.685.685,0,0,1,.615-.025l4.284,2.473c.158.091.138.25-.044.355l-1.945,1.123A.685.685,0,0,1,149.349,291.56Z" transform="translate(-99.88 -260.811)" fill="#00bdf2"/>
      <path id="Path_99843" data-name="Path 99843" d="M165.358,283.5l-3.616-2.088c-.158-.091-.138-.25.044-.355l1.945-1.123a.684.684,0,0,1,.615-.026L167.962,282c.158.091.138.25-.044.355l-1.945,1.123A.684.684,0,0,1,165.358,283.5Z" transform="translate(-109.986 -256.162)" fill="#00bdf2"/>
      <path id="Path_99844" data-name="Path 99844" d="M91.151,249.309l-1.963-1.133c-.158-.091-.138-.25.044-.355l1.945-1.123a.684.684,0,0,1,.615-.027l1.963,1.133c.158.091.138.25-.044.355l-1.945,1.123A.686.686,0,0,1,91.151,249.309Z" transform="translate(-66.017 -236.017)" fill="#00bdf2"/>
      <path id="Path_99845" data-name="Path 99845" d="M83.264,244.755,81.3,243.621c-.157-.091-.138-.25.044-.355l1.945-1.123a.682.682,0,0,1,.615-.027l1.963,1.133c.158.091.138.25-.044.355l-1.945,1.123A.683.683,0,0,1,83.264,244.755Z" transform="translate(-61.237 -233.257)" fill="#00bdf2"/>
      <path id="Path_99846" data-name="Path 99846" d="M75.375,240.2l-1.963-1.133c-.158-.091-.138-.25.044-.355l1.945-1.123a.682.682,0,0,1,.615-.025L77.98,238.7c.157.091.137.25-.045.355l-1.945,1.123A.684.684,0,0,1,75.375,240.2Z" transform="translate(-56.456 -230.499)" fill="#00bdf2"/>
      <path id="Path_99847" data-name="Path 99847" d="M67.491,235.65l-1.963-1.133c-.158-.091-.138-.25.044-.355l1.945-1.123a.684.684,0,0,1,.615-.026l1.963,1.133c.158.091.138.25-.044.355l-1.945,1.123A.684.684,0,0,1,67.491,235.65Z" transform="translate(-51.678 -227.739)" fill="#00bdf2"/>
      <path id="Path_99848" data-name="Path 99848" d="M98.846,253.753l-1.963-1.134c-.158-.091-.138-.25.044-.355l1.945-1.123a.681.681,0,0,1,.615-.025l1.963,1.133c.158.091.138.25-.044.355l-1.945,1.123A.685.685,0,0,1,98.846,253.753Z" transform="translate(-70.68 -238.71)" fill="#00bdf2"/>
      <path id="Path_99849" data-name="Path 99849" d="M106.542,258.2l-1.963-1.133c-.158-.091-.138-.25.044-.355l1.945-1.123a.683.683,0,0,1,.615-.026l1.963,1.133c.158.091.138.25-.044.355l-1.945,1.123A.683.683,0,0,1,106.542,258.2Z" transform="translate(-75.344 -241.403)" fill="#00bdf2"/>
      <path id="Path_99850" data-name="Path 99850" d="M114.237,262.637l-1.963-1.133c-.158-.091-.138-.25.044-.355l1.945-1.123a.683.683,0,0,1,.615-.027l1.964,1.134c.158.091.138.25-.044.355l-1.945,1.123A.683.683,0,0,1,114.237,262.637Z" transform="translate(-80.008 -244.094)" fill="#00bdf2"/>
      <path id="Path_99851" data-name="Path 99851" d="M121.932,267.081l-1.963-1.133c-.158-.091-.138-.251.044-.355l1.945-1.123a.685.685,0,0,1,.615-.025l1.963,1.133c.158.091.138.25-.044.355l-1.945,1.123A.681.681,0,0,1,121.932,267.081Z" transform="translate(-84.671 -246.788)" fill="#00bdf2"/>
      <path id="Path_99852" data-name="Path 99852" d="M129.627,271.523l-1.963-1.133c-.158-.091-.138-.25.044-.355l1.945-1.123a.682.682,0,0,1,.615-.027l1.963,1.134c.158.091.138.25-.044.355l-1.945,1.123A.684.684,0,0,1,129.627,271.523Z" transform="translate(-89.334 -249.479)" fill="#00bdf2"/>
      <path id="Path_99853" data-name="Path 99853" d="M137.323,275.967l-1.963-1.133c-.158-.091-.138-.25.044-.355l1.945-1.123a.685.685,0,0,1,.615-.025l1.963,1.133c.158.091.138.25-.044.355l-1.945,1.123A.684.684,0,0,1,137.323,275.967Z" transform="translate(-93.998 -252.173)" fill="#00bdf2"/>
      <path id="Path_99854" data-name="Path 99854" d="M145.018,280.409l-1.964-1.133c-.157-.091-.138-.25.044-.355l1.945-1.123a.682.682,0,0,1,.615-.027l1.963,1.133c.158.091.138.25-.044.355l-1.945,1.123A.684.684,0,0,1,145.018,280.409Z" transform="translate(-98.661 -254.864)" fill="#00bdf2"/>
      <path id="Path_99855" data-name="Path 99855" d="M152.713,284.852l-1.963-1.133c-.158-.091-.138-.25.044-.355l1.945-1.123a.683.683,0,0,1,.615-.027l1.964,1.133c.157.091.138.25-.045.355l-1.945,1.123A.684.684,0,0,1,152.713,284.852Z" transform="translate(-103.325 -257.557)" fill="#00bdf2"/>
      <path id="Path_99856" data-name="Path 99856" d="M160.409,289.295l-1.963-1.134c-.158-.091-.138-.25.044-.355l1.945-1.123a.684.684,0,0,1,.615-.027l1.963,1.133c.158.091.138.25-.044.355l-1.945,1.123A.684.684,0,0,1,160.409,289.295Z" transform="translate(-107.988 -260.249)" fill="#00bdf2"/>
      <path id="Path_99857" data-name="Path 99857" d="M87.1,238.321l-1.964-1.133c-.157-.091-.138-.25.044-.355l1.945-1.123a.684.684,0,0,1,.615-.026l1.963,1.133c.158.091.138.25-.045.355l-1.945,1.123A.684.684,0,0,1,87.1,238.321Z" transform="translate(-63.561 -229.358)" fill="#00bdf2"/>
      <path id="Path_99858" data-name="Path 99858" d="M79.442,233.9l-1.964-1.133c-.157-.091-.137-.25.045-.355l1.945-1.123a.682.682,0,0,1,.615-.025l1.964,1.133c.158.091.138.25-.044.355l-1.945,1.123A.684.684,0,0,1,79.442,233.9Z" transform="translate(-58.921 -226.679)" fill="#00bdf2"/>
      <path id="Path_99859" data-name="Path 99859" d="M71.785,229.48l-1.964-1.133c-.157-.091-.138-.25.045-.355l1.945-1.123a.682.682,0,0,1,.615-.025l1.964,1.133c.158.091.138.25-.045.355L72.4,229.454A.683.683,0,0,1,71.785,229.48Z" transform="translate(-54.28 -224)" fill="#00bdf2"/>
      <path id="Path_99860" data-name="Path 99860" d="M64.128,225.057l-1.963-1.133c-.157-.091-.137-.25.045-.355l1.945-1.123a.683.683,0,0,1,.615-.027l1.964,1.134c.158.091.138.25-.044.355l-1.945,1.123A.684.684,0,0,1,64.128,225.057Z" transform="translate(-49.64 -221.32)" fill="#00bdf2"/>
      <path id="Path_99861" data-name="Path 99861" d="M72,221.668l-1.963-1.133c-.158-.091-.138-.25.044-.355l.643-.372a.684.684,0,0,1,.615-.026l1.964,1.133c.157.091.138.25-.045.355l-.643.372A.685.685,0,0,1,72,221.668Z" transform="translate(-54.412 -219.722)" fill="#00bdf2"/>
      <path id="Path_99862" data-name="Path 99862" d="M81.994,227.437,80.031,226.3c-.157-.091-.137-.25.045-.355l.643-.372a.684.684,0,0,1,.615-.026l1.963,1.133c.158.091.137.25-.044.355l-.643.372A.684.684,0,0,1,81.994,227.437Z" transform="translate(-60.467 -223.219)" fill="#00bdf2"/>
      <path id="Path_99863" data-name="Path 99863" d="M89.619,231.839l-1.964-1.133c-.157-.091-.138-.25.044-.355l.643-.371a.684.684,0,0,1,.615-.027l1.963,1.133c.158.091.138.25-.044.355l-.643.372A.685.685,0,0,1,89.619,231.839Z" transform="translate(-65.088 -225.885)" fill="#00bdf2"/>
      <path id="Path_99864" data-name="Path 99864" d="M97.247,236.239l-1.963-1.133c-.158-.091-.138-.25.044-.355l.643-.371a.683.683,0,0,1,.615-.027l1.963,1.133c.158.091.138.25-.044.355l-.643.372A.682.682,0,0,1,97.247,236.239Z" transform="translate(-69.711 -228.552)" fill="#00bdf2"/>
      <path id="Path_99865" data-name="Path 99865" d="M104.869,240.644l-1.963-1.134c-.158-.091-.138-.25.044-.355l.643-.372a.684.684,0,0,1,.615-.027l1.963,1.133c.158.091.138.25-.044.355l-.643.371A.684.684,0,0,1,104.869,240.644Z" transform="translate(-74.33 -231.221)" fill="#00bdf2"/>
      <path id="Path_99866" data-name="Path 99866" d="M147.439,265.219l-1.964-1.133c-.157-.091-.138-.25.044-.355l.643-.371a.684.684,0,0,1,.615-.027l1.963,1.134c.158.091.138.25-.044.355l-.643.371A.684.684,0,0,1,147.439,265.219Z" transform="translate(-100.128 -246.115)" fill="#00bdf2"/>
      <path id="Path_99867" data-name="Path 99867" d="M155.064,269.625l-1.963-1.134c-.158-.091-.138-.25.044-.355l.643-.371a.684.684,0,0,1,.615-.026l1.963,1.134c.158.091.138.25-.044.355l-.643.372A.683.683,0,0,1,155.064,269.625Z" transform="translate(-104.749 -248.785)" fill="#00bdf2"/>
      <path id="Path_99868" data-name="Path 99868" d="M162.689,274.027l-1.963-1.133c-.158-.091-.138-.25.044-.355l.643-.371a.685.685,0,0,1,.615-.026l1.963,1.134c.158.091.138.25-.044.355L163.3,274A.684.684,0,0,1,162.689,274.027Z" transform="translate(-109.371 -251.453)" fill="#00bdf2"/>
      <path id="Path_99869" data-name="Path 99869" d="M170.314,278.429l-1.963-1.133c-.158-.091-.138-.251.044-.355l.643-.371a.684.684,0,0,1,.615-.026l1.963,1.133c.158.091.138.25-.044.355l-.643.371A.684.684,0,0,1,170.314,278.429Z" transform="translate(-113.992 -254.121)" fill="#00bdf2"/>
      <path id="Path_99870" data-name="Path 99870" d="M94.794,242.762l-1.963-1.133c-.158-.091-.138-.25.044-.355l1.945-1.123a.682.682,0,0,1,.615-.027l1.964,1.133c.157.091.137.25-.045.355l-1.945,1.123A.684.684,0,0,1,94.794,242.762Z" transform="translate(-68.225 -232.049)" fill="#00bdf2"/>
      <path id="Path_99871" data-name="Path 99871" d="M102.489,247.205l-1.963-1.134c-.158-.091-.138-.25.044-.355l1.945-1.123a.685.685,0,0,1,.615-.027l1.963,1.134c.158.091.138.25-.044.355l-1.945,1.123A.684.684,0,0,1,102.489,247.205Z" transform="translate(-72.888 -234.742)" fill="#00bdf2"/>
      <path id="Path_99872" data-name="Path 99872" d="M110.184,251.648l-1.963-1.133c-.158-.091-.138-.25.044-.355l1.945-1.123a.682.682,0,0,1,.615-.027l1.963,1.133c.158.091.137.25-.044.355l-1.945,1.123A.682.682,0,0,1,110.184,251.648Z" transform="translate(-77.551 -237.435)" fill="#00bdf2"/>
      <path id="Path_99873" data-name="Path 99873" d="M117.88,256.091l-1.964-1.134c-.157-.091-.137-.25.045-.355l1.945-1.123a.684.684,0,0,1,.615-.027l1.963,1.134c.158.091.138.25-.044.355l-1.945,1.123A.684.684,0,0,1,117.88,256.091Z" transform="translate(-82.215 -240.127)" fill="#00bdf2"/>
      <path id="Path_99874" data-name="Path 99874" d="M125.575,260.535l-1.963-1.133c-.158-.091-.138-.25.044-.355l1.945-1.123a.684.684,0,0,1,.615-.025l1.963,1.133c.158.091.138.25-.044.355l-1.945,1.123A.684.684,0,0,1,125.575,260.535Z" transform="translate(-86.879 -242.821)" fill="#00bdf2"/>
      <path id="Path_99875" data-name="Path 99875" d="M133.271,264.978l-1.963-1.133c-.158-.091-.138-.25.044-.355l1.945-1.123a.683.683,0,0,1,.615-.026l1.963,1.133c.158.091.138.25-.044.355l-1.945,1.123A.684.684,0,0,1,133.271,264.978Z" transform="translate(-91.542 -245.513)" fill="#00bdf2"/>
      <path id="Path_99876" data-name="Path 99876" d="M140.966,269.421,139,268.287c-.158-.091-.138-.25.044-.355l1.945-1.123a.685.685,0,0,1,.615-.026l1.963,1.134c.158.091.138.25-.044.355l-1.945,1.123A.684.684,0,0,1,140.966,269.421Z" transform="translate(-96.206 -248.206)" fill="#00bdf2"/>
      <path id="Path_99877" data-name="Path 99877" d="M148.661,273.864,146.7,272.73c-.158-.091-.138-.25.044-.355l1.945-1.123a.684.684,0,0,1,.615-.026l1.963,1.133c.158.091.138.25-.044.355l-1.945,1.123A.684.684,0,0,1,148.661,273.864Z" transform="translate(-100.869 -250.898)" fill="#00bdf2"/>
      <path id="Path_99878" data-name="Path 99878" d="M156.357,278.307l-1.963-1.134c-.158-.091-.138-.25.045-.355l1.945-1.123a.684.684,0,0,1,.615-.026l1.963,1.133c.158.091.138.25-.044.355l-1.945,1.123A.684.684,0,0,1,156.357,278.307Z" transform="translate(-105.533 -253.591)" fill="#00bdf2"/>
      <path id="Path_99879" data-name="Path 99879" d="M44.925,239.919l-5.782-3.339c-.158-.091-.138-.25.044-.355l1.945-1.123a.682.682,0,0,1,.615-.026l5.782,3.339c.158.091.138.25-.044.355l-1.945,1.123A.684.684,0,0,1,44.925,239.919Z" transform="translate(-35.688 -228.991)" fill="#00bdf2"/>
      <path id="Path_99880" data-name="Path 99880" d="M139.464,294.5l-5.782-3.339c-.157-.091-.138-.25.044-.355l1.945-1.123a.684.684,0,0,1,.615-.027L142.068,293c.157.091.137.25-.045.355l-1.945,1.123A.684.684,0,0,1,139.464,294.5Z" transform="translate(-92.981 -262.068)" fill="#00bdf2"/>
      <path id="Path_99881" data-name="Path 99881" d="M114.563,289.609l-1.963-1.133c-.158-.091-.138-.25.044-.355l2.317-1.338a.684.684,0,0,1,.615-.026l1.963,1.133c.158.091.138.25-.044.355l-2.317,1.338A.683.683,0,0,1,114.563,289.609Z" transform="translate(-80.205 -260.31)" fill="#00bdf2"/>
      <path id="Path_99882" data-name="Path 99882" d="M56.87,256.3l-3.14-1.813c-.158-.091-.138-.25.044-.355l2.317-1.338a.683.683,0,0,1,.615-.027l3.14,1.813c.158.091.138.25-.044.355l-2.316,1.338A.684.684,0,0,1,56.87,256.3Z" transform="translate(-44.529 -239.712)" fill="#00bdf2"/>
      <path id="Path_99883" data-name="Path 99883" d="M105.339,284.286l-3.14-1.813c-.158-.091-.138-.25.044-.355l2.317-1.338a.681.681,0,0,1,.615-.026l3.14,1.813c.158.091.138.25-.044.355l-2.317,1.338A.684.684,0,0,1,105.339,284.286Z" transform="translate(-73.902 -256.672)" fill="#00bdf2"/>
      <path id="Path_99884" data-name="Path 99884" d="M67.972,262.71,64.833,260.9c-.158-.091-.138-.25.044-.355l2.316-1.338a.685.685,0,0,1,.615-.025l3.14,1.813c.158.091.138.25-.044.355l-2.317,1.338A.684.684,0,0,1,67.972,262.71Z" transform="translate(-51.257 -243.597)" fill="#00bdf2"/>
      <path id="Path_99885" data-name="Path 99885" d="M68.027,259.3l13.65,7.881a.189.189,0,0,1,0,.355L79.315,268.9a.678.678,0,0,1-.613,0l-13.651-7.881Z" transform="translate(-51.454 -243.71)" fill="#00bdf2"/>
      <path id="Path_99886" data-name="Path 99886" d="M136.828,302.069l2.187,1.262c.129.075.113.2-.036.291l-.948.547a.56.56,0,0,1-.5.021l-2.187-1.263c-.129-.074-.113-.2.036-.291l.948-.548A.562.562,0,0,1,136.828,302.069Z" transform="translate(-93.998 -269.596)" fill="#00bdf2"/>
      <path id="Path_99887" data-name="Path 99887" d="M129.071,297.589l2.187,1.262c.13.075.113.205-.036.291l-.948.547a.559.559,0,0,1-.5.021l-2.187-1.263c-.129-.074-.113-.2.036-.291l.948-.547A.559.559,0,0,1,129.071,297.589Z" transform="translate(-89.296 -266.881)" fill="#00bdf2"/>
      <path id="Path_99888" data-name="Path 99888" d="M121.376,293.146l2.187,1.263c.129.074.113.2-.036.291l-.948.548a.56.56,0,0,1-.5.021l-2.187-1.263c-.129-.074-.113-.2.036-.291l.948-.547A.56.56,0,0,1,121.376,293.146Z" transform="translate(-84.633 -264.189)" fill="#00bdf2"/>
      <path id="Path_99889" data-name="Path 99889" d="M133.32,295.134l2.187,1.263c.129.074.113.2-.036.291l-.948.548a.562.562,0,0,1-.5.02l-2.187-1.262c-.129-.074-.113-.2.037-.291l.948-.547A.56.56,0,0,1,133.32,295.134Z" transform="translate(-91.872 -265.393)" fill="#00bdf2"/>
    </g>
    <path id="Path_58489" data-name="Path 58489" d="M8.568,11.077A3.821,3.821,0,0,1,6.721,7.039c.311-.347.627-.688.945-1.019A60.022,60.022,0,0,1,14.5,0l-.652.068A52.474,52.474,0,0,0,7.016,5.776,14.124,14.124,0,0,1,9.361,1.608L7.8,2.393s-2.422,2.7-2.768,5.5C1,12.527-.729,16.752.284,18.884c1.152,2.426,5.458,2.3,5.458,2.3l1.775-1.023S2.481,20.2,1.864,17.2c-.482-2.347,1.015-5.316,3.145-8.1A4.067,4.067,0,0,0,7.143,12.29c1.912,1.2,5.507,1.437,8.539,1.2a41.181,41.181,0,0,0,12.4-3.138l.754-.674C23.246,12.1,13.259,14,8.568,11.077Z" transform="translate(66.988 19.625) rotate(60)" fill="#caecff"/>
  </g>
</svg>
