<svg xmlns="http://www.w3.org/2000/svg" width="100" height="100" viewBox="0 0 100 100">
  <g id="events" transform="translate(-3623 11925)">
    <rect id="Rectangle_2349" data-name="Rectangle 2349" width="100" height="100" transform="translate(3623 -11925)" fill="none"/>
    <g id="Group_61567" data-name="Group 61567" transform="translate(3647.343 -11916)">
      <g id="Group_360" data-name="Group 360" transform="translate(0 0)">
        <path id="Path_1883" data-name="Path 1883" d="M1170.486,1737.708a2.071,2.071,0,0,1-1.037-3.865,14.255,14.255,0,0,0,6.341-10.983,2.071,2.071,0,1,1,4.142,0,18.344,18.344,0,0,1-8.412,14.57A2.065,2.065,0,0,1,1170.486,1737.708Z" transform="translate(-1159.736 -1715.516)" fill="#003b7d"/>
        <ellipse id="Ellipse_7" data-name="Ellipse 7" cx="1.775" cy="3.074" rx="1.775" ry="3.074" transform="matrix(0.866, -0.5, 0.5, 0.866, 14.572, 14.661)" fill="#c11f1d"/>
        <path id="Path_1884" data-name="Path 1884" d="M1212.849,1761.934a2.071,2.071,0,0,1-1.037-3.865,14.253,14.253,0,0,0,6.341-10.983,2.071,2.071,0,0,1,4.142,0,18.343,18.343,0,0,1-8.412,14.57A2.065,2.065,0,0,1,1212.849,1761.934Z" transform="translate(-1177.359 -1725.594)" fill="#003b7d"/>
        <ellipse id="Ellipse_8" data-name="Ellipse 8" cx="1.775" cy="3.074" rx="1.775" ry="3.074" transform="matrix(0.866, -0.5, 0.5, 0.866, 38.306, 28.364)" fill="#c11f1d"/>
        <path id="Path_1885" data-name="Path 1885" d="M1201.609,1743.813l-36.956-21.336c-1.8-1.04-3.261-.2-3.261,1.882v5.08l-4.576-2.642c-1.8-1.039-3.26-.2-3.26,1.883v42.673a7.2,7.2,0,0,0,3.26,5.648l36.956,21.337a2.309,2.309,0,0,0,2.279.243h0l7.837-4.321h0a2.274,2.274,0,0,0,.981-2.125v-42.673A7.207,7.207,0,0,0,1201.609,1743.813Z" transform="translate(-1153.555 -1716.032)" fill="#00bdf3"/>
        <path id="Path_1886" data-name="Path 1886" d="M1197.033,1756.859v42.674c0,2.08-1.459,2.923-3.261,1.882l-36.956-21.337a7.2,7.2,0,0,1-3.26-5.648v-42.673c0-2.08,1.459-2.922,3.26-1.883l36.956,21.337A7.205,7.205,0,0,1,1197.033,1756.859Z" transform="translate(-1153.555 -1719.11)" fill="#caecff"/>
        <g id="Group_357" data-name="Group 357" transform="translate(4.386 39.811)">
          <path id="Path_1887" data-name="Path 1887" d="M1191.14,1788.713l-4.788-2.764a.484.484,0,0,1-.2-.386v-5.457c0-.149.09-.217.2-.153l4.788,2.765a.485.485,0,0,1,.2.387v5.456C1191.342,1788.71,1191.251,1788.778,1191.14,1788.713Z" transform="translate(-1171.501 -1779.929)" fill="#00bdf3"/>
          <path id="Path_1888" data-name="Path 1888" d="M1203.681,1795.954l-4.788-2.765a.483.483,0,0,1-.2-.386v-5.457c0-.149.09-.218.2-.153l4.788,2.765a.484.484,0,0,1,.2.386v5.456C1203.884,1795.95,1203.793,1796.019,1203.681,1795.954Z" transform="translate(-1176.718 -1782.941)" fill="#00bdf3"/>
          <path id="Path_1889" data-name="Path 1889" d="M1216.223,1803.2l-4.788-2.765a.484.484,0,0,1-.2-.387v-5.456c0-.149.091-.218.2-.153l4.788,2.765a.484.484,0,0,1,.2.387v5.456C1216.425,1803.191,1216.334,1803.259,1216.223,1803.2Z" transform="translate(-1181.935 -1785.953)" fill="#00bdf3"/>
          <path id="Path_1890" data-name="Path 1890" d="M1166.057,1790.881l-4.788-2.765a.483.483,0,0,1-.2-.387v-5.456c0-.149.09-.218.2-.153l4.788,2.765a.483.483,0,0,1,.2.386v5.457C1166.259,1790.877,1166.168,1790.945,1166.057,1790.881Z" transform="translate(-1161.066 -1780.83)" fill="#00bdf3"/>
          <path id="Path_1891" data-name="Path 1891" d="M1178.6,1798.122l-4.788-2.765a.484.484,0,0,1-.2-.387v-5.456c0-.149.09-.218.2-.153l4.788,2.764a.485.485,0,0,1,.2.387v5.457C1178.8,1798.118,1178.71,1798.186,1178.6,1798.122Z" transform="translate(-1166.283 -1783.843)" fill="#00bdf3"/>
          <path id="Path_1892" data-name="Path 1892" d="M1191.14,1805.363l-4.788-2.765a.484.484,0,0,1-.2-.387v-5.457c0-.149.09-.217.2-.153l4.788,2.764a.486.486,0,0,1,.2.387v5.457C1191.342,1805.359,1191.251,1805.427,1191.14,1805.363Z" transform="translate(-1171.501 -1786.854)" fill="#00bdf3"/>
          <path id="Path_1893" data-name="Path 1893" d="M1203.681,1812.6l-4.788-2.764a.485.485,0,0,1-.2-.387V1804c0-.149.09-.217.2-.153l4.788,2.765a.484.484,0,0,1,.2.386v5.457C1203.884,1812.6,1203.793,1812.668,1203.681,1812.6Z" transform="translate(-1176.718 -1789.867)" fill="#00bdf3"/>
          <path id="Path_1894" data-name="Path 1894" d="M1216.223,1819.844l-4.788-2.764a.486.486,0,0,1-.2-.386v-5.457c0-.149.091-.217.2-.153l4.788,2.765a.485.485,0,0,1,.2.387v5.456C1216.425,1819.84,1216.334,1819.909,1216.223,1819.844Z" transform="translate(-1181.935 -1792.879)" fill="#00bdf3"/>
          <path id="Path_1895" data-name="Path 1895" d="M1166.057,1807.53l-4.788-2.765a.482.482,0,0,1-.2-.386v-5.457c0-.149.09-.217.2-.153l4.788,2.765a.484.484,0,0,1,.2.386v5.456C1166.259,1807.526,1166.168,1807.6,1166.057,1807.53Z" transform="translate(-1161.066 -1787.756)" fill="#00bdf3"/>
          <path id="Path_1896" data-name="Path 1896" d="M1178.6,1814.771l-4.788-2.765a.484.484,0,0,1-.2-.387v-5.456c0-.149.09-.218.2-.153l4.788,2.764a.483.483,0,0,1,.2.386v5.457C1178.8,1814.767,1178.71,1814.835,1178.6,1814.771Z" transform="translate(-1166.283 -1790.769)" fill="#00bdf3"/>
          <path id="Path_1897" data-name="Path 1897" d="M1191.14,1822.012l-4.788-2.765a.483.483,0,0,1-.2-.386V1813.4c0-.15.09-.218.2-.153l4.788,2.764a.485.485,0,0,1,.2.386v5.457C1191.342,1822.008,1191.251,1822.076,1191.14,1822.012Z" transform="translate(-1171.501 -1793.781)" fill="#00bdf3"/>
          <path id="Path_1898" data-name="Path 1898" d="M1203.681,1829.253l-4.788-2.765a.485.485,0,0,1-.2-.387v-5.457c0-.149.09-.217.2-.153l4.788,2.764a.484.484,0,0,1,.2.386v5.457C1203.884,1829.249,1203.793,1829.317,1203.681,1829.253Z" transform="translate(-1176.718 -1796.793)" fill="#00bdf3"/>
        </g>
        <path id="Path_1899" data-name="Path 1899" d="M1204.861,1749.421a7.252,7.252,0,0,0-3.026-5.512l-37.409-21.6a1.953,1.953,0,0,0-1.959-.174h0l-7.837,4.32h0a2.663,2.663,0,0,0-1.076,2.468v10.885l43.477,25.1,7.837-4.321v-11.166Z" transform="translate(-1153.555 -1715.997)" fill="#caecff"/>
        <path id="Path_1900" data-name="Path 1900" d="M1197.033,1756.859v11.167l-43.477-25.1v-11.167c0-2.08,1.459-2.922,3.26-1.883l36.956,21.337A7.205,7.205,0,0,1,1197.033,1756.859Z" transform="translate(-1153.555 -1719.11)" fill="#00bdf3"/>
        <path id="Path_1901" data-name="Path 1901" d="M1170.235,1746.543v.042c-.02,1.355-.985,1.9-2.174,1.213a3.008,3.008,0,0,1-.347-.233,4.869,4.869,0,0,1-1.826-3.532,2.475,2.475,0,0,1,.037-.446c.19-1.053,1.073-1.422,2.136-.809a2.7,2.7,0,0,1,.232.149A4.853,4.853,0,0,1,1170.235,1746.543Z" transform="translate(-1158.686 -1724.54)" fill="#003b7d"/>
        <path id="Path_1902" data-name="Path 1902" d="M1174.678,1719.1a2.071,2.071,0,0,1-4.142,0c0-1.482-.41-2.569-1.126-2.982s-1.861-.225-3.145.517a14.254,14.254,0,0,0-6.341,10.982c0,1.483.41,2.57,1.124,2.983a1.641,1.641,0,0,0,.673.2,4.265,4.265,0,0,0,2.369-.66,4.853,4.853,0,0,1,1.941,3.615v.043a9.7,9.7,0,0,1-2.521.979,7.161,7.161,0,0,1-1.579.182,5.832,5.832,0,0,1-2.953-.776c-2.061-1.19-3.2-3.523-3.2-6.569a18.344,18.344,0,0,1,8.411-14.569c2.639-1.524,5.226-1.707,7.287-.517S1174.678,1716.058,1174.678,1719.1Z" transform="translate(-1154.482 -1711.759)" fill="#003b7d"/>
        <path id="Path_1903" data-name="Path 1903" d="M1212.6,1770.768v.042c-.02,1.355-.985,1.9-2.174,1.213a3.019,3.019,0,0,1-.347-.234,4.868,4.868,0,0,1-1.826-3.532,2.477,2.477,0,0,1,.037-.446c.19-1.053,1.073-1.422,2.136-.809.079.045.155.1.233.149A4.856,4.856,0,0,1,1212.6,1770.768Z" transform="translate(-1176.309 -1734.617)" fill="#003b7d"/>
        <path id="Path_1904" data-name="Path 1904" d="M1217.041,1743.329a2.071,2.071,0,0,1-4.142,0c0-1.482-.411-2.57-1.126-2.983s-1.861-.224-3.145.517a14.253,14.253,0,0,0-6.34,10.982c0,1.482.41,2.569,1.124,2.982a1.629,1.629,0,0,0,.673.2,4.266,4.266,0,0,0,2.369-.66,4.855,4.855,0,0,1,1.941,3.616v.042a9.731,9.731,0,0,1-2.521.979,7.171,7.171,0,0,1-1.579.182,5.835,5.835,0,0,1-2.953-.776c-2.061-1.19-3.2-3.523-3.2-6.569a18.344,18.344,0,0,1,8.412-14.569c2.638-1.524,5.226-1.707,7.287-.517S1217.041,1740.283,1217.041,1743.329Z" transform="translate(-1172.104 -1721.837)" fill="#003b7d"/>
        <g id="Group_358" data-name="Group 358" transform="translate(1.928 4.266)">
          <path id="Path_1905" data-name="Path 1905" d="M1163.34,1721.318a.376.376,0,0,1-.3-.6,17.83,17.83,0,0,1,1.292-1.534.377.377,0,1,1,.547.517,17.128,17.128,0,0,0-1.237,1.469A.375.375,0,0,1,1163.34,1721.318Z" transform="translate(-1159.397 -1719.064)" fill="#00bdf3"/>
          <path id="Path_1906" data-name="Path 1906" d="M1157.233,1733.47a.376.376,0,0,1-.376-.376,16.45,16.45,0,0,1,2.353-7.991.377.377,0,1,1,.652.377,15.686,15.686,0,0,0-2.252,7.615A.376.376,0,0,1,1157.233,1733.47Z" transform="translate(-1156.857 -1721.498)" fill="#00bdf3"/>
        </g>
        <g id="Group_359" data-name="Group 359" transform="translate(26.668 18.502)">
          <path id="Path_1907" data-name="Path 1907" d="M1205.6,1745.695a.377.377,0,0,1-.3-.6,17.807,17.807,0,0,1,1.27-1.534.376.376,0,0,1,.551.513,16.931,16.931,0,0,0-1.215,1.469A.377.377,0,0,1,1205.6,1745.695Z" transform="translate(-1201.717 -1743.44)" fill="#00bdf3"/>
          <path id="Path_1908" data-name="Path 1908" d="M1199.6,1757.846a.377.377,0,0,1-.377-.377,16.656,16.656,0,0,1,2.312-7.989.377.377,0,0,1,.655.371,15.9,15.9,0,0,0-2.215,7.618A.376.376,0,0,1,1199.6,1757.846Z" transform="translate(-1199.22 -1745.873)" fill="#00bdf3"/>
        </g>
      </g>
    </g>
  </g>
</svg>
