<svg xmlns="http://www.w3.org/2000/svg" xmlns:xlink="http://www.w3.org/1999/xlink" width="200" height="200" viewBox="0 0 200 200">
  <defs>
    <clipPath id="clip-path">
      <path id="Path_52875" data-name="Path 52875" d="M805.238,1111.514l-18.4,10.624s-5.089,11.94-5.2,22.976l23.6-18.146Z" transform="translate(-781.639 -1111.514)" fill="none"/>
    </clipPath>
  </defs>
  <g id="dropdown-2A-freight" transform="translate(10549 14549)">
    <rect id="Rectangle_2273" data-name="Rectangle 2273" width="200" height="200" transform="translate(-10549 -14549)" fill="none"/>
    <g id="Group_22241" data-name="Group 22241" transform="translate(-10546.209 -14531.842)">
      <g id="Group_22095" data-name="Group 22095" transform="translate(17.254 105.777)">
        <g id="Group_22093" data-name="Group 22093">
          <g id="Group_22084" data-name="Group 22084" transform="translate(0 0.434)">
            <path id="Path_38861" data-name="Path 38861" d="M813.2,1142.4a.744.744,0,0,1,.335-.706l.025-.014.025-.013.024-.014.025-.013.024-.014.025-.014.025-.013.025-.013.025-.013.025-.013.024-.013.025-.013.025-.014.025-.014.025-.013.025-.013.024-.014.025-.014.025-.013.025-.014.025-.013.024-.014.025-.013.025-.013.025-.014a.75.75,0,0,1,.763.074l2.222,1.282a2.375,2.375,0,0,1,1.074,1.862v6.113a.746.746,0,0,1-.336.706l-.025.013-.025.013-.025.013-.025.014-.025.013-.025.014-.024.014-.025.014-.024.013-.026.014-.024.013-.025.014-.025.013-.025.013-.025.013-.025.013-.025.013-.025.014-.025.013-.025.014-.025.013-.025.013-.025.013-.025.013-.026.013a.752.752,0,0,1-.763-.074l-2.221-1.282a2.375,2.375,0,0,1-1.073-1.862Z" transform="translate(-813.198 -1141.283)" fill="#d4ecff"/>
          </g>
          <g id="Group_22085" data-name="Group 22085" transform="translate(2.333)">
            <path id="Path_38862" data-name="Path 38862" d="M811.81,1141.422c0-.613.432-.862.963-.556l2.829,1.638v.385l-2.829-1.638c-.347-.2-.63-.037-.63.363v.377l-.334-.2Z" transform="translate(-811.809 -1140.736)" fill="#d4ecff"/>
          </g>
          <g id="Group_22086" data-name="Group 22086" transform="translate(2.334 2.837)">
            <path id="Path_38863" data-name="Path 38863" d="M812.092,1144.414v7.089a1.392,1.392,0,0,0,.629,1.091l2.869,1.656v.385l-2.869-1.657a2.128,2.128,0,0,1-.963-1.667v-7A.793.793,0,0,0,812.092,1144.414Z" transform="translate(-811.758 -1144.315)" fill="#d4ecff"/>
          </g>
          <g id="Group_22087" data-name="Group 22087" transform="translate(2.054 0.184)">
            <path id="Path_38864" data-name="Path 38864" d="M815.881,1142.548l-.373.223-2.885-1.564H812.4l.014.851-.364.2-.242-.48.406-.47.549-.342Z" transform="translate(-811.805 -1140.968)" fill="#d4ecff"/>
          </g>
          <g id="Group_22088" data-name="Group 22088" transform="translate(1.965 0.222)">
            <path id="Path_38865" data-name="Path 38865" d="M812.275,1141.7c0-.613.432-.862.963-.556l2.829,1.638v.385l-2.829-1.638c-.347-.2-.629-.037-.629.363v.377l-.334-.2Z" transform="translate(-812.275 -1141.016)" fill="#173d7a"/>
          </g>
          <g id="Group_22089" data-name="Group 22089" transform="translate(2.28 10.012)">
            <path id="Path_38866" data-name="Path 38866" d="M815.645,1156.127l-.373.223L813,1155.212l-1.076-.7-.156-.513-.008-.634.549.848,1.461.968Z" transform="translate(-811.759 -1153.366)" fill="#d4ecff"/>
          </g>
          <g id="Group_22090" data-name="Group 22090" transform="translate(1.965 3.062)">
            <path id="Path_38867" data-name="Path 38867" d="M812.559,1144.7v7.09a1.393,1.393,0,0,0,.629,1.09l2.869,1.657v.384l-2.869-1.657a2.13,2.13,0,0,1-.963-1.667v-7A.77.77,0,0,0,812.559,1144.7Z" transform="translate(-812.225 -1144.598)" fill="#173d7a"/>
          </g>
          <g id="Group_22092" data-name="Group 22092" transform="translate(0.002 0.777)">
            <g id="Group_22091" data-name="Group 22091">
              <path id="Path_38868" data-name="Path 38868" d="M815.1,1150.458l2.221,1.283c.6.342,1.073.065,1.073-.62v-6.113a2.373,2.373,0,0,0-1.073-1.862l-2.221-1.282c-.6-.343-1.074-.064-1.074.62v6.113A2.373,2.373,0,0,0,815.1,1150.458Z" transform="translate(-814.024 -1141.716)" fill="#173d7a"/>
            </g>
          </g>
        </g>
        <g id="Group_22094" data-name="Group 22094" transform="translate(5.793 12.773)">
          <path id="Path_38869" data-name="Path 38869" d="M812.132,1156.849l-.373.224v.384l.373-.223Z" transform="translate(-811.759 -1156.849)" fill="#353636"/>
        </g>
      </g>
      <g id="Group_22096" data-name="Group 22096" transform="translate(178.23 72.471)">
        <path id="Path_38870" data-name="Path 38870" d="M611.957,1108.851l-13.031-7.393,4.733-2.383,5.3-.357a20.407,20.407,0,0,1,2.292.417c.327.149,1.042,1.638,1.042,1.638l.3,1.727s.089,1.28.148,1.519S611.957,1108.851,611.957,1108.851Z" transform="translate(-598.926 -1098.718)" fill="#4b4854"/>
      </g>
      <g id="Group_22097" data-name="Group 22097" transform="translate(150.847 83.784)">
        <path id="Path_38871" data-name="Path 38871" d="M645.953,1127.527l-13.192-7.661,11.222-6.876h3.155s-.149,2.234-.179,2.352S645.953,1127.527,645.953,1127.527Z" transform="translate(-632.761 -1112.99)" fill="#173d7a"/>
      </g>
      <g id="Group_22107" data-name="Group 22107" transform="translate(173.538 71.279)">
        <g id="Group_22106" data-name="Group 22106" transform="translate(0 0)">
          <g id="Group_22098" data-name="Group 22098" transform="translate(0)">
            <ellipse id="Ellipse_782" data-name="Ellipse 782" cx="4.38" cy="7.586" rx="4.38" ry="7.586" transform="translate(7.586 17.519) rotate(-149.999)" fill="#173d7a"/>
          </g>
          <g id="Group_22099" data-name="Group 22099" transform="translate(3.907 2.124)">
            <path id="Path_38872" data-name="Path 38872" d="M614.482,1101.938l-3.6-2.044-7.345,13.273,3.757,2.146Z" transform="translate(-603.539 -1099.894)" fill="#173d7a"/>
          </g>
          <g id="Group_22105" data-name="Group 22105" transform="translate(3.71 2.116)">
            <g id="Group_22100" data-name="Group 22100" transform="translate(0 0)">
              <ellipse id="Ellipse_783" data-name="Ellipse 783" cx="4.38" cy="7.586" rx="4.38" ry="7.586" transform="translate(7.586 17.519) rotate(-149.999)" fill="#00bdf2"/>
            </g>
            <g id="Group_22101" data-name="Group 22101" transform="translate(2.723 3.046)">
              <ellipse id="Ellipse_784" data-name="Ellipse 784" cx="2.841" cy="4.92" rx="2.841" ry="4.92" transform="translate(4.92 11.362) rotate(-149.999)" fill="#d4ecff"/>
            </g>
            <g id="Group_22104" data-name="Group 22104" transform="translate(5.366 5.721)">
              <g id="Group_22103" data-name="Group 22103">
                <g id="Group_22102" data-name="Group 22102">
                  <path id="Path_38873" data-name="Path 38873" d="M607.924,1112.454c-.2.113-.373.057-.417-.142a.9.9,0,0,1,.323-.775c.23-.192.459-.157.506.081a.888.888,0,0,1-.319.773A.916.916,0,0,1,607.924,1112.454Zm-1.615.5a.311.311,0,0,1-.263.044c-.183-.061-.212-.353-.068-.648s.416-.486.6-.425.212.353.063.655A.912.912,0,0,1,606.308,1112.954Zm2.915-2.438a.386.386,0,0,1-.187.059c-.212,0-.3-.24-.2-.544s.357-.549.57-.553.3.24.2.544a.939.939,0,0,1-.383.5Zm-3.633,1.131c-.233.134-.426.024-.426-.246v-.03a.937.937,0,0,1,.434-.736c.234-.135.421-.022.417.255v.02a.935.935,0,0,1-.425.737Zm3.641-3.049c-.157.091-.31.074-.382-.059a.769.769,0,0,1,.2-.768c.213-.24.467-.28.569-.1a.792.792,0,0,1-.2.775.818.818,0,0,1-.185.15Zm-2.9.883a.286.286,0,0,1-.336.008c-.144-.133-.11-.462.074-.736s.447-.389.6-.26.11.461-.075.733a.825.825,0,0,1-.263.255Zm1.619-1.34a.466.466,0,0,1-.1.042c-.23.075-.373-.11-.314-.407a.876.876,0,0,1,.51-.657c.23-.074.373.11.315.407a.942.942,0,0,1-.418.615Z" transform="translate(-605.165 -1107.101)" fill="#173d7a"/>
                </g>
              </g>
            </g>
          </g>
        </g>
      </g>
      <g id="Group_22117" data-name="Group 22117" transform="translate(162.16 79.396)">
        <g id="Group_22116" data-name="Group 22116" transform="translate(0 0)">
          <g id="Group_22108" data-name="Group 22108" transform="translate(0)">
            <ellipse id="Ellipse_785" data-name="Ellipse 785" cx="4.38" cy="7.586" rx="4.38" ry="7.586" transform="translate(7.586 17.519) rotate(-149.999)" fill="#173d7a"/>
          </g>
          <g id="Group_22109" data-name="Group 22109" transform="translate(3.907 2.124)">
            <path id="Path_38874" data-name="Path 38874" d="M628.836,1112.179l-3.6-2.045-7.344,13.274,3.756,2.147Z" transform="translate(-617.893 -1110.134)" fill="#173d7a"/>
          </g>
          <g id="Group_22115" data-name="Group 22115" transform="translate(3.71 2.116)">
            <g id="Group_22110" data-name="Group 22110" transform="translate(0 0)">
              <ellipse id="Ellipse_786" data-name="Ellipse 786" cx="4.38" cy="7.586" rx="4.38" ry="7.586" transform="translate(7.586 17.519) rotate(-149.999)" fill="#00bdf2"/>
            </g>
            <g id="Group_22111" data-name="Group 22111" transform="translate(2.723 3.046)">
              <ellipse id="Ellipse_787" data-name="Ellipse 787" cx="2.841" cy="4.92" rx="2.841" ry="4.92" transform="translate(4.92 11.362) rotate(-149.999)" fill="#d4ecff"/>
            </g>
            <g id="Group_22114" data-name="Group 22114" transform="translate(5.367 5.721)">
              <g id="Group_22113" data-name="Group 22113">
                <g id="Group_22112" data-name="Group 22112">
                  <path id="Path_38875" data-name="Path 38875" d="M622.276,1122.695c-.2.113-.372.056-.416-.143a.9.9,0,0,1,.322-.775c.23-.191.46-.157.506.082a.889.889,0,0,1-.319.773C622.339,1122.654,622.307,1122.675,622.276,1122.695Zm-1.615.5a.313.313,0,0,1-.263.044c-.184-.061-.212-.353-.069-.648s.416-.486.6-.424.212.354.063.655a.913.913,0,0,1-.328.372Zm2.915-2.439a.386.386,0,0,1-.187.059c-.212,0-.3-.24-.2-.545s.357-.55.57-.555.3.24.2.545a.941.941,0,0,1-.385.494Zm-3.633,1.131c-.234.135-.425.025-.425-.245v-.029a.936.936,0,0,1,.434-.736c.234-.135.421-.022.416.255v.02a.933.933,0,0,1-.425.735Zm3.641-3.049c-.157.091-.31.075-.382-.059a.766.766,0,0,1,.2-.767c.212-.241.468-.28.57-.1a.791.791,0,0,1-.2.775A.814.814,0,0,1,623.584,1118.838Zm-2.9.884a.287.287,0,0,1-.336.007c-.144-.132-.11-.461.075-.736s.447-.388.6-.26.11.461-.074.733a.856.856,0,0,1-.263.255Zm1.619-1.34a.435.435,0,0,1-.1.041c-.23.074-.373-.11-.315-.407a.874.874,0,0,1,.51-.657c.229-.074.373.11.314.408a.939.939,0,0,1-.415.614Z" transform="translate(-619.518 -1117.341)" fill="#173d7a"/>
                </g>
              </g>
            </g>
          </g>
        </g>
      </g>
      <g id="Group_22121" data-name="Group 22121" transform="translate(40.035 0)">
        <g id="Group_22118" data-name="Group 22118" transform="translate(0 39.945)">
          <path id="Path_38876" data-name="Path 38876" d="M644.792,1131.048l115.692-66.757v-6.608L644.792,1124.44Z" transform="translate(-644.792 -1057.684)" fill="#00bdf2"/>
        </g>
        <g id="Group_22119" data-name="Group 22119" transform="translate(35.059 44.514)">
          <path id="Path_38877" data-name="Path 38877" d="M725.424,1063.449v14.525l-2.991,1.726v-3.877c0-4.369-3.068-6.14-6.85-3.955l-61.164,35.276a15.139,15.139,0,0,0-6.851,11.866v3.876l-2.784,1.607v-14.525Z" transform="translate(-644.784 -1063.449)" fill="#00bdf2"/>
        </g>
        <g id="Group_22120" data-name="Group 22120" transform="translate(9.592)">
          <path id="Path_38878" data-name="Path 38878" d="M645.3,1068.276,751,1007.291V1045.5l-105.7,60.984Z" transform="translate(-645.301 -1007.291)" fill="#e0d9ce"/>
        </g>
      </g>
      <g id="Group_22126" data-name="Group 22126" transform="translate(39.995 21.839)">
        <g id="Group_22122" data-name="Group 22122" transform="translate(38.557 39.944)">
          <path id="Path_38879" data-name="Path 38879" d="M596.15,1158.6l115.692-66.757v-6.608l-115.692,66.757Z" transform="translate(-596.15 -1085.234)" fill="#173d7a"/>
        </g>
        <g id="Group_22123" data-name="Group 22123" transform="translate(124.045 44.514)">
          <path id="Path_38880" data-name="Path 38880" d="M626.353,1091v14.526l-2.991,1.726v-3.877c0-4.369-3.068-6.139-6.85-3.955l-10.735,6.2a15.142,15.142,0,0,0-6.85,11.866v3.876l-2.784,1.607v-14.526Z" transform="translate(-596.142 -1090.999)" fill="#00bdf2"/>
        </g>
        <g id="Group_22124" data-name="Group 22124" transform="translate(0 34.311)">
          <path id="Path_38881" data-name="Path 38881" d="M634.7,1150.517l-38.557-21.839,22.173-12.979,122.266-37.572,9.812,5.633Z" transform="translate(-596.148 -1078.128)" fill="#d4ecff"/>
        </g>
        <g id="Group_22125" data-name="Group 22125" transform="translate(48.146)">
          <path id="Path_38882" data-name="Path 38882" d="M596.663,1095.826l105.7-60.984v38.205l-105.7,60.984Z" transform="translate(-596.663 -1034.842)" fill="#00bdf2"/>
        </g>
      </g>
      <g id="Group_22127" data-name="Group 22127" transform="translate(49.585 0)">
        <path id="Path_38883" data-name="Path 38883" d="M635.22,1090.114l-38.557-21.838,105.7-60.984,38.557,21.839Z" transform="translate(-596.663 -1007.291)" fill="#d4ecff"/>
      </g>
      <g id="Group_22128" data-name="Group 22128" transform="translate(49.642 60.988)">
        <path id="Path_38884" data-name="Path 38884" d="M730,1122.43l38.558,21.839v-38.206L730,1084.231Z" transform="translate(-730.002 -1084.231)" fill="#173d7a"/>
      </g>
      <g id="Group_22129" data-name="Group 22129" transform="translate(39.36 107.003)">
        <path id="Path_38885" data-name="Path 38885" d="M781.18,1171.743l-39.93-22.617v-6.843l39.93,22.617Z" transform="translate(-741.249 -1142.283)" fill="#44424d"/>
      </g>
      <g id="Group_22134" data-name="Group 22134" transform="translate(74.657 123.094)">
        <g id="Group_22131" data-name="Group 22131" transform="translate(0)">
          <g id="Group_22130" data-name="Group 22130">
            <path id="Path_38886" data-name="Path 38886" d="M743.571,1176.989l-11.095-6.412.463-4.46-.576-3.534,9.988,2.877S745.082,1169.818,743.571,1176.989Z" transform="translate(-732.363 -1162.582)" fill="#173d7a"/>
          </g>
        </g>
      </g>
      <g id="Group_22153" data-name="Group 22153" transform="translate(20.436 77.575)">
        <g id="Group_22151" data-name="Group 22151">
          <g id="Group_22137" data-name="Group 22137" transform="translate(0)">
            <g id="Group_22136" data-name="Group 22136">
              <path id="Path_38888" data-name="Path 38888" d="M780.945,1122.823a8.858,8.858,0,0,1,3.548-4.486l22.833-13.179V1135.1c-1.019.515-2.23,1.176-3.662,2l-4.272,2.467a15.262,15.262,0,0,0-6.9,11.96v2.383c0,.181.008.357.017.531l-16.518,9.314v-18.4A89.95,89.95,0,0,1,780.945,1122.823Z" transform="translate(-775.986 -1105.157)" fill="#173d7a"/>
            </g>
          </g>
          <g id="Group_22143" data-name="Group 22143" transform="translate(3.258 5.039)">
            <path id="Path_38889" data-name="Path 38889" d="M805.238,1111.514l-18.4,10.624s-5.089,11.94-5.2,22.976l23.6-18.146Z" transform="translate(-781.639 -1111.514)" fill="#536873"/>
            <g id="Group_32173" data-name="Group 32173">
              <g id="Group_32172" data-name="Group 32172" clip-path="url(#clip-path)">
                <g id="Group_22142" data-name="Group 22142" transform="translate(-3.951 2.343)">
                  <g id="Group_22139" data-name="Group 22139" transform="translate(6.301)">
                    <g id="Group_22138" data-name="Group 22138">
                      <path id="Path_38890" data-name="Path 38890" d="M779.172,1114.47l21.678,21.393-4.379,4.008L771.8,1117Z" transform="translate(-771.804 -1114.47)" fill="#6f8691"/>
                    </g>
                  </g>
                  <g id="Group_22141" data-name="Group 22141" transform="translate(0 5.361)">
                    <g id="Group_22140" data-name="Group 22140">
                      <path id="Path_38891" data-name="Path 38891" d="M786.027,1121.233l23.386,21.148-1.388,1.664-25.309-21.519Z" transform="translate(-782.716 -1121.233)" fill="#6f8691"/>
                    </g>
                  </g>
                </g>
              </g>
            </g>
          </g>
          <g id="Group_22146" data-name="Group 22146" transform="translate(21.056 7.77)">
            <g id="Group_22145" data-name="Group 22145" transform="translate(0)">
              <g id="Group_22144" data-name="Group 22144">
                <path id="Path_38893" data-name="Path 38893" d="M788.717,1133.129l-.926.534v-18.169l.926-.534Z" transform="translate(-787.791 -1114.96)" fill="#7ad5de"/>
              </g>
            </g>
          </g>
          <g id="Group_22148" data-name="Group 22148" transform="translate(14.728 31.363)">
            <g id="Group_22147" data-name="Group 22147" transform="translate(0 0)">
              <ellipse id="Ellipse_788" data-name="Ellipse 788" cx="5.576" cy="9.657" rx="5.576" ry="9.657" transform="translate(9.657 22.302) rotate(-150)" fill="#adadad"/>
            </g>
          </g>
          <g id="Group_22150" data-name="Group 22150" transform="translate(31.288 28.128)">
            <g id="Group_22149" data-name="Group 22149" transform="translate(0)">
              <path id="Path_38894" data-name="Path 38894" d="M773.213,1142.451s2.353,3.649,1.446,11.139l.587-.278s1.175-8.878-2.085-12.669Z" transform="translate(-773.161 -1140.642)" fill="#545454"/>
            </g>
          </g>
        </g>
      </g>
      <g id="Group_22155" data-name="Group 22155" transform="translate(27.132 77.577)">
        <g id="Group_22154" data-name="Group 22154">
          <path id="Path_38895" data-name="Path 38895" d="M734.762,1119.89,767.4,1139l10.6-.819,14.081-14.174-32.676-18.851s-22.383,12.844-23.329,13.478A4.569,4.569,0,0,0,734.762,1119.89Z" transform="translate(-734.762 -1105.159)" fill="#d4ecff"/>
        </g>
      </g>
      <g id="Group_22174" data-name="Group 22174" transform="translate(44.769 96.427)">
        <g id="Group_22171" data-name="Group 22171" transform="translate(0 5.038)">
          <g id="Group_22166" data-name="Group 22166" transform="translate(0 38.588)">
            <g id="Group_22165" data-name="Group 22165" transform="translate(0 0)">
              <g id="Group_22157" data-name="Group 22157" transform="translate(0)">
                <ellipse id="Ellipse_789" data-name="Ellipse 789" cx="4.671" cy="8.09" rx="4.671" ry="8.09" transform="translate(8.09 18.683) rotate(-149.999)" fill="#173d7a"/>
              </g>
              <path id="Path_52876" data-name="Path 52876" d="M768.671,1192.692l-7.217-5.315a5.017,5.017,0,0,1-1.2-1.32s2.846-1.815,4.94-1.328C767.252,1185.208,769.519,1186.943,768.671,1192.692Z" transform="translate(-749.399 -1184.116)" fill="#173d7a"/>
              <g id="Group_22109-2" data-name="Group 22109" transform="translate(4.011 2.216)">
                <path id="Path_38874-2" data-name="Path 38874" d="M776.693,1188.948l-3.827-2.175-7.812,14.118,4,2.284Z" transform="translate(-765.054 -1186.773)" fill="#173d7a"/>
              </g>
              <g id="Group_22164" data-name="Group 22164" transform="translate(3.649 2.125)">
                <g id="Group_22159" data-name="Group 22159" transform="translate(0 0)">
                  <ellipse id="Ellipse_790" data-name="Ellipse 790" cx="4.671" cy="8.09" rx="4.671" ry="8.09" transform="translate(8.09 18.684) rotate(-150)" fill="#00bdf2"/>
                </g>
                <g id="Group_22160" data-name="Group 22160" transform="translate(2.904 3.247)">
                  <ellipse id="Ellipse_791" data-name="Ellipse 791" cx="3.03" cy="5.247" rx="3.03" ry="5.247" transform="translate(5.248 12.118) rotate(-150)" fill="#d4ecff"/>
                </g>
                <g id="Group_22163" data-name="Group 22163" transform="translate(5.726 6.1)">
                  <g id="Group_22162" data-name="Group 22162">
                    <g id="Group_22161" data-name="Group 22161">
                      <path id="Path_38897" data-name="Path 38897" d="M769.877,1200.063c-.208.121-.395.061-.447-.148a.96.96,0,0,1,.344-.827c.245-.2.49-.168.539.086a.951.951,0,0,1-.34.824C769.942,1200.021,769.909,1200.043,769.877,1200.063Zm-1.722.534a.332.332,0,0,1-.281.047c-.195-.065-.224-.377-.075-.691s.446-.521.639-.453.223.378.067.7a.972.972,0,0,1-.354.4Zm3.109-2.6a.42.42,0,0,1-.2.063c-.224.005-.317-.256-.208-.58s.38-.587.607-.591.318.256.208.581a.992.992,0,0,1-.407.529Zm-3.872,1.206c-.25.144-.453.026-.453-.261v-.033a1,1,0,0,1,.462-.784c.25-.144.447-.024.447.272v.02a1,1,0,0,1-.459.785Zm3.884-3.252c-.168.1-.331.081-.408-.064a.817.817,0,0,1,.213-.819c.223-.256.5-.3.607-.1a.845.845,0,0,1-.217.826.891.891,0,0,1-.2.16Zm-3.1.942a.307.307,0,0,1-.358.007c-.154-.142-.117-.492.082-.784s.48-.414.634-.278.118.492-.074.783a.888.888,0,0,1-.287.272Zm1.727-1.431a.475.475,0,0,1-.1.044c-.245.078-.395-.118-.335-.434a.933.933,0,0,1,.543-.7c.245-.078.395.117.335.435a1,1,0,0,1-.442.656Z" transform="translate(-766.938 -1194.353)" fill="#173d7a"/>
                    </g>
                  </g>
                </g>
              </g>
            </g>
          </g>
          <g id="Group_22170" data-name="Group 22170" transform="translate(11.579)">
            <path id="Path_38899" data-name="Path 38899" d="M764.015,1135.3l-18.4,10.624s-5.09,11.94-5.2,22.976l23.6-18.145Z" transform="translate(-740.416 -1135.296)" fill="#2d1f2e"/>
          </g>
        </g>
        <path id="Path_52877" data-name="Path 52877" d="M742.019,1169.28A92.067,92.067,0,0,1,747.5,1146.6a8.843,8.843,0,0,1,3.549-4.485l22.832-13.18v40.432c-.769.444-7.392,4.313-12.709,7.337-1.944,1.106-6.737,3.89-7.7,4.45.6-3.4-.124-6.306-2.181-7.495-3.015-1.741-7.8.838-11.007,5.794a15.944,15.944,0,0,0-1.851,3.631,13.071,13.071,0,0,0-.87,7.241l-.1.064-2.7,1.619Z" transform="translate(-734.221 -1128.94)" fill="#00bdf2"/>
        <g id="Group_22173" data-name="Group 22173" transform="translate(11.579 5.038)">
          <g id="Group_22172" data-name="Group 22172">
            <path id="Path_38900" data-name="Path 38900" d="M764.015,1135.3l-18.4,10.624s-5.09,11.94-5.2,22.976l23.6-18.145Z" transform="translate(-740.416 -1135.296)" fill="#173d7a"/>
          </g>
        </g>
      </g>
      <g id="Group_22182" data-name="Group 22182" transform="translate(38.407 76.575)">
        <g id="Group_22179" data-name="Group 22179" transform="translate(0 0.001)">
          <g id="Group_22176" data-name="Group 22176">
            <g id="Group_22175" data-name="Group 22175">
              <path id="Path_38901" data-name="Path 38901" d="M784.487,1115.066l-19.27-11.17L752.6,1119.05l19.27,11.169Z" transform="translate(-752.596 -1103.896)" fill="#d4ecff"/>
            </g>
          </g>
          <g id="Group_22178" data-name="Group 22178" transform="translate(19.27 11.17)">
            <g id="Group_22177" data-name="Group 22177">
              <path id="Path_38902" data-name="Path 38902" d="M765.217,1117.987c-9.127,5.269-12.621,15.154-12.621,15.154l12.6-7.272Z" transform="translate(-752.596 -1117.987)" fill="#00bdf2"/>
            </g>
          </g>
        </g>
        <g id="Group_22181" data-name="Group 22181" transform="translate(0)">
          <g id="Group_22180" data-name="Group 22180">
            <path id="Path_38903" data-name="Path 38903" d="M789.527,1103.9c-9.127,5.269-12.621,15.154-12.621,15.154l12.6-7.272Z" transform="translate(-776.906 -1103.895)" fill="#d4ecff"/>
          </g>
        </g>
      </g>
      <g id="Group_22193" data-name="Group 22193" transform="translate(56.687 124.727)">
        <g id="Group_22183" data-name="Group 22183" transform="translate(0.403 5.929)">
          <path id="Path_38904" data-name="Path 38904" d="M764.417,1177.05l2.87,1.656c.346.2.628.038.628-.363v-6.189a.81.81,0,0,0,.089.009.615.615,0,0,0,.245-.04v6.412c0,.613-.432.863-.962.556l-2.87-1.657Z" transform="translate(-764.417 -1172.122)" fill="#d4ecff"/>
        </g>
        <g id="Group_22184" data-name="Group 22184" transform="translate(1.43 2.619)">
          <path id="Path_38905" data-name="Path 38905" d="M761.619,1169.06a.744.744,0,0,1,.336-.705l.025-.014.025-.013.025-.014.024-.014.025-.014.025-.013.025-.013.025-.013.025-.015.025-.013.025-.014.025-.014.025-.014.025-.014.024-.013.025-.014.025-.013.025-.013.025-.014.025-.014.025-.013.025-.013.025-.014.025-.013.025-.014a.749.749,0,0,1,.763.075l2.221,1.282a2.372,2.372,0,0,1,1.074,1.861v6.113a.745.745,0,0,1-.336.706l-.025.014-.025.014-.025.013-.025.013-.025.014-.025.014-.025.014-.026.013-.025.014-.025.014-.025.013-.025.013-.025.014-.025.013-.025.014-.025.013-.025.014-.025.013-.025.014-.025.013-.025.014-.026.013-.025.014-.025.014-.025.013a.748.748,0,0,1-.763-.075l-2.221-1.282a2.374,2.374,0,0,1-1.074-1.862Z" transform="translate(-761.615 -1167.945)" fill="#d4ecff"/>
        </g>
        <g id="Group_22185" data-name="Group 22185" transform="translate(0.295)">
          <path id="Path_38906" data-name="Path 38906" d="M768.062,1167.755a1.393,1.393,0,0,0-.629-1.091l-2.83-1.638v-.385l2.83,1.638a2.132,2.132,0,0,1,.962,1.667v.178l-.334-.185Z" transform="translate(-764.604 -1164.642)" fill="#d4ecff"/>
        </g>
        <g id="Group_22186" data-name="Group 22186" transform="translate(0 0.004)">
          <path id="Path_38907" data-name="Path 38907" d="M764.9,1164.647l-.292.182,1.564.917,1.613,1.154.447.745.17.66.293-.181-.131-.516-.305-.647-.433-.363Z" transform="translate(-764.604 -1164.647)" fill="#d4ecff"/>
        </g>
        <g id="Group_22187" data-name="Group 22187" transform="translate(0.003 0.183)">
          <path id="Path_38908" data-name="Path 38908" d="M768.43,1167.986a1.391,1.391,0,0,0-.629-1.09l-2.829-1.638v-.385l2.829,1.639a2.13,2.13,0,0,1,.963,1.667v.179l-.334-.185Z" transform="translate(-764.972 -1164.873)" fill="#173d7a"/>
        </g>
        <g id="Group_22188" data-name="Group 22188" transform="translate(0.027 10.857)">
          <path id="Path_38909" data-name="Path 38909" d="M765.029,1178.339l-.377.209,1.9,1.266,1.347.571.156.321.161-.047a3.248,3.248,0,0,0,.434-.257c.064-.067-.014-.153-.014-.153l-.3.028-.447-.1Z" transform="translate(-764.652 -1178.339)" fill="#d4ecff"/>
        </g>
        <g id="Group_22189" data-name="Group 22189" transform="translate(0.027 10.857)">
          <path id="Path_38910" data-name="Path 38910" d="M765.029,1178.339l-.377.209,1.9,1.266,1.347.571.156.321.161-.047a3.248,3.248,0,0,0,.434-.257c.064-.067-.014-.153-.014-.153l-.3.028-.447-.1Z" transform="translate(-764.652 -1178.339)" fill="#d4ecff"/>
        </g>
        <g id="Group_22190" data-name="Group 22190" transform="translate(0.027 6.138)">
          <path id="Path_38911" data-name="Path 38911" d="M764.891,1177.313l2.869,1.656c.347.2.629.038.629-.363v-6.189a.714.714,0,0,0,.089.01.619.619,0,0,0,.245-.04v6.412c0,.613-.432.862-.963.556l-2.869-1.657Z" transform="translate(-764.891 -1172.386)" fill="#173d7a"/>
        </g>
        <g id="Group_22192" data-name="Group 22192" transform="translate(1.434 2.965)">
          <g id="Group_22191" data-name="Group 22191">
            <path id="Path_38912" data-name="Path 38912" d="M763.514,1177.125l2.221,1.282c.6.343,1.073.065,1.073-.62v-6.113a2.374,2.374,0,0,0-1.073-1.862l-2.221-1.283c-.6-.343-1.074-.065-1.074.62v6.113A2.376,2.376,0,0,0,763.514,1177.125Z" transform="translate(-762.44 -1168.383)" fill="#173d7a"/>
          </g>
        </g>
      </g>
      <g id="Group_22194" data-name="Group 22194" transform="translate(20.889 92.308)">
        <path id="Path_38913" data-name="Path 38913" d="M766.173,1146.9l32.723,18.5c1.531-10.664,3.416-16.634,5.943-22.719l-32.422-18.937A94.88,94.88,0,0,0,766.173,1146.9Z" transform="translate(-766.173 -1123.743)" fill="#173d7a"/>
      </g>
      <g id="Group_22240" data-name="Group 22240" transform="translate(0 115.012)">
        <g id="Group_22197" data-name="Group 22197" transform="translate(0.001 20.344)">
          <g id="Group_22196" data-name="Group 22196">
            <g id="Group_22195" data-name="Group 22195">
              <path id="Path_38914" data-name="Path 38914" d="M829.179,1181.842l6.461-3.791,3.15,5.763-5.87,3.39c-1.542.893-2.857.359-3.105-1.253Z" transform="translate(-829.179 -1178.051)" fill="#173d7a"/>
            </g>
          </g>
        </g>
        <g id="Group_22199" data-name="Group 22199" transform="translate(0.005 20.343)">
          <g id="Group_22198" data-name="Group 22198">
            <path id="Path_38915" data-name="Path 38915" d="M839.005,1179.345l-2.308-1.3-6.46,3.791,2.308,1.3Z" transform="translate(-830.237 -1178.05)" fill="#d4ecff"/>
          </g>
        </g>
        <g id="Group_22200" data-name="Group 22200" transform="translate(4.387)">
          <path id="Path_38916" data-name="Path 38916" d="M806.324,1182.848l-32.662-18.828,16.568-11.634,32.663,18.828Z" transform="translate(-773.662 -1152.386)" fill="#d4ecff"/>
          <path id="Path_38917" data-name="Path 38917" d="M781.946,1201.8l8.284-25.663-16.568,11.634V1206.6Z" transform="translate(-741 -1157.31)" fill="#00bdf2"/>
          <path id="Path_38918" data-name="Path 38918" d="M794.564,1185.891v-18.828l32.662,18.828v18.828Z" transform="translate(-794.564 -1155.429)" fill="#173d7a"/>
        </g>
        <g id="Group_22202" data-name="Group 22202" transform="translate(0.001 24.136)">
          <g id="Group_22201" data-name="Group 22201">
            <path id="Path_38919" data-name="Path 38919" d="M831.141,1209.89l-37.305-21.44-.534-2.234-1.015-3.382,37.285,21.44,1.553,4.059Z" transform="translate(-792.287 -1182.835)" fill="#173d7a"/>
          </g>
        </g>
        <g id="Group_22205" data-name="Group 22205" transform="translate(37.286 41.785)">
          <g id="Group_22204" data-name="Group 22204" transform="translate(0)">
            <g id="Group_22203" data-name="Group 22203">
              <path id="Path_38920" data-name="Path 38920" d="M782.141,1208.892l6.46-3.792,3.151,5.765-5.869,3.389c-1.543.893-2.857.36-3.106-1.253Z" transform="translate(-782.141 -1205.1)" fill="#00bdf2"/>
            </g>
          </g>
        </g>
        <g id="Group_22207" data-name="Group 22207" transform="translate(34.978 40.489)">
          <g id="Group_22206" data-name="Group 22206" transform="translate(0)">
            <path id="Path_38921" data-name="Path 38921" d="M794.884,1204.76l-2.308-1.294-6.46,3.791,2.308,1.3Z" transform="translate(-786.116 -1203.466)" fill="#d4ecff"/>
          </g>
        </g>
        <g id="Group_22209" data-name="Group 22209" transform="translate(0 23.598)">
          <g id="Group_22208" data-name="Group 22208">
            <path id="Path_38922" data-name="Path 38922" d="M831.38,1201.581,798.7,1182.741l-1.465-.586-2.972.534,37.285,21.439Z" transform="translate(-794.267 -1182.156)" fill="#d4ecff"/>
          </g>
        </g>
        <g id="Group_22239" data-name="Group 22239" transform="translate(6.366 17.191)">
          <g id="Group_22236" data-name="Group 22236">
            <g id="Group_22219" data-name="Group 22219" transform="translate(8.889 5.629)">
              <g id="Group_22210" data-name="Group 22210" transform="translate(10.154 5.863)">
                <path id="Path_38923" data-name="Path 38923" d="M808.86,1192.7c.142.082.256.015.256-.149v-3.5a.567.567,0,0,0-.256-.447c-.141-.082-.257-.015-.257.149v3.5A.569.569,0,0,0,808.86,1192.7Z" transform="translate(-808.603 -1188.571)" fill="#00bdf2"/>
              </g>
              <g id="Group_22211" data-name="Group 22211" transform="translate(8.885 5.131)">
                <path id="Path_38924" data-name="Path 38924" d="M810.46,1191.777c.142.082.257.036.257-.1v-3.583a.531.531,0,0,0-.257-.4c-.141-.082-.257-.035-.257.105v3.582A.53.53,0,0,0,810.46,1191.777Z" transform="translate(-810.203 -1187.648)" fill="#00bdf2"/>
              </g>
              <g id="Group_22212" data-name="Group 22212" transform="translate(7.615 4.4)">
                <path id="Path_38925" data-name="Path 38925" d="M812.062,1190.854c.141.082.257.035.257-.1v-3.583a.53.53,0,0,0-.257-.4c-.142-.082-.257-.035-.257.1v3.583A.529.529,0,0,0,812.062,1190.854Z" transform="translate(-811.805 -1186.725)" fill="#00bdf2"/>
              </g>
              <g id="Group_22213" data-name="Group 22213" transform="translate(6.346 3.665)">
                <path id="Path_38926" data-name="Path 38926" d="M813.663,1189.928c.142.082.257.035.257-.105v-3.582a.527.527,0,0,0-.257-.4c-.141-.083-.257-.036-.257.1v3.582A.53.53,0,0,0,813.663,1189.928Z" transform="translate(-813.406 -1185.799)" fill="#00bdf2"/>
              </g>
              <g id="Group_22214" data-name="Group 22214" transform="translate(5.078 2.933)">
                <path id="Path_38927" data-name="Path 38927" d="M815.263,1189c.141.082.257.036.257-.1v-3.582a.531.531,0,0,0-.257-.4c-.142-.081-.257-.035-.257.105v3.582A.528.528,0,0,0,815.263,1189Z" transform="translate(-815.006 -1184.875)" fill="#00bdf2"/>
              </g>
              <g id="Group_22215" data-name="Group 22215" transform="translate(3.809 2.201)">
                <path id="Path_38928" data-name="Path 38928" d="M816.864,1188.08c.141.082.257.035.257-.1v-3.583a.532.532,0,0,0-.257-.4c-.142-.082-.257-.035-.257.1v3.583A.529.529,0,0,0,816.864,1188.08Z" transform="translate(-816.607 -1183.951)" fill="#00bdf2"/>
              </g>
              <g id="Group_22216" data-name="Group 22216" transform="translate(2.539 1.467)">
                <path id="Path_38929" data-name="Path 38929" d="M818.466,1187.155c.142.082.257.035.257-.105v-3.582a.528.528,0,0,0-.257-.4c-.141-.082-.257-.036-.257.1v3.582A.531.531,0,0,0,818.466,1187.155Z" transform="translate(-818.209 -1183.026)" fill="#00bdf2"/>
              </g>
              <g id="Group_22217" data-name="Group 22217" transform="translate(1.268 0.735)">
                <path id="Path_38930" data-name="Path 38930" d="M820.069,1186.231c.141.082.257.035.257-.1v-3.583a.532.532,0,0,0-.257-.4c-.142-.081-.258-.035-.258.105v3.582A.532.532,0,0,0,820.069,1186.231Z" transform="translate(-819.811 -1182.102)" fill="#00bdf2"/>
              </g>
              <g id="Group_22218" data-name="Group 22218">
                <path id="Path_38931" data-name="Path 38931" d="M821.67,1185.306c.142.082.256.016.256-.149v-3.5a.568.568,0,0,0-.257-.447c-.142-.082-.256-.015-.256.149v3.5A.566.566,0,0,0,821.67,1185.306Z" transform="translate(-821.413 -1181.175)" fill="#00bdf2"/>
              </g>
            </g>
            <g id="Group_22227" data-name="Group 22227" transform="translate(21.449 11.884)">
              <g id="Group_22225" data-name="Group 22225" transform="translate(0)">
                <g id="Group_22220" data-name="Group 22220">
                  <path id="Path_38932" data-name="Path 38932" d="M800.278,1192.862l4.706,2.718v-3.8l-4.706-2.717Z" transform="translate(-800.278 -1189.065)" fill="#00bdf2"/>
                </g>
                <g id="Group_22221" data-name="Group 22221" transform="translate(0.4 0.569)">
                  <path id="Path_38933" data-name="Path 38933" d="M800.781,1192.9l3.908,2.256v-3.122l-3.908-2.256Z" transform="translate(-800.781 -1189.783)" fill="#deeaf2"/>
                </g>
                <g id="Group_22224" data-name="Group 22224" transform="translate(0.126 4.146)">
                  <g id="Group_22222" data-name="Group 22222">
                    <path id="Path_38934" data-name="Path 38934" d="M800.326,1195.834l4.542,2.625v-1.539l-4.542-2.624Z" transform="translate(-800.326 -1194.296)" fill="#00bdf2"/>
                  </g>
                  <g id="Group_22223" data-name="Group 22223" transform="translate(0.159 0.259)">
                    <path id="Path_38935" data-name="Path 38935" d="M800.62,1195.818l4.15,2.4v-1.2l-4.15-2.4Z" transform="translate(-800.62 -1194.623)" fill="#deeaf2"/>
                  </g>
                </g>
              </g>
              <g id="Group_22226" data-name="Group 22226" transform="translate(5.021 2.869)">
                <path id="Path_38936" data-name="Path 38936" d="M799.322,1199.575l-2.139-1.236v-5.655l1.226.708Z" transform="translate(-797.183 -1192.684)" fill="#fff"/>
              </g>
            </g>
            <g id="Group_22235" data-name="Group 22235" transform="translate(0)">
              <g id="Group_22233" data-name="Group 22233" transform="translate(2.453 0.918)">
                <g id="Group_22228" data-name="Group 22228">
                  <path id="Path_38937" data-name="Path 38937" d="M828.948,1181.746l-4.706-2.717v-3.8l4.706,2.717Z" transform="translate(-824.242 -1175.231)" fill="#00bdf2"/>
                </g>
                <g id="Group_22229" data-name="Group 22229" transform="translate(0.399 0.567)">
                  <path id="Path_38938" data-name="Path 38938" d="M828.654,1181.325l-3.908-2.257v-3.122l3.908,2.256Z" transform="translate(-824.746 -1175.946)" fill="#deeaf2"/>
                </g>
                <g id="Group_22232" data-name="Group 22232" transform="translate(0.037 4.094)">
                  <g id="Group_22230" data-name="Group 22230">
                    <path id="Path_38939" data-name="Path 38939" d="M828.944,1184.558l-4.543-2.624V1180.4l4.543,2.624Z" transform="translate(-824.401 -1180.396)" fill="#00bdf2"/>
                  </g>
                  <g id="Group_22231" data-name="Group 22231" transform="translate(0.234 0.302)">
                    <path id="Path_38940" data-name="Path 38940" d="M828.752,1184.369l-4.15-2.4v-1.2l4.15,2.4Z" transform="translate(-824.602 -1180.777)" fill="#deeaf2"/>
                  </g>
                </g>
              </g>
              <g id="Group_22234" data-name="Group 22234">
                <path id="Path_38941" data-name="Path 38941" d="M830.575,1179.2l2.139,1.236v-5.656l-1.226-.708Z" transform="translate(-830.575 -1174.073)" fill="#fff"/>
              </g>
            </g>
          </g>
          <g id="Group_22237" data-name="Group 22237" transform="translate(21.924 13.013)">
            <ellipse id="Ellipse_792" data-name="Ellipse 792" cx="1.827" cy="1.054" rx="1.827" ry="1.054" transform="translate(1.827 4.218) rotate(-120)" fill="#f2faff"/>
          </g>
          <g id="Group_22238" data-name="Group 22238" transform="translate(3.456 2.482)">
            <path id="Path_38942" data-name="Path 38942" d="M825.655,1178.124a2.854,2.854,0,0,0,1.291,2.234c.713.412,1.292.074,1.292-.745a2.859,2.859,0,0,0-1.291-2.234C826.234,1176.97,825.655,1177.3,825.655,1178.124Z" transform="translate(-825.655 -1177.205)" fill="#f2faff"/>
          </g>
        </g>
      </g>
    </g>
  </g>
</svg>
