<svg xmlns="http://www.w3.org/2000/svg" xmlns:xlink="http://www.w3.org/1999/xlink" width="200" height="200" viewBox="0 0 200 200">
  <defs>
    <clipPath id="clip-path">
      <path id="SVGID" d="M255.885-6691.578c0-2.388-1.677-3.356-3.744-2.162a8.278,8.278,0,0,0-3.745,6.486c0,2.388,1.677,3.356,3.745,2.161A8.273,8.273,0,0,0,255.885-6691.578Z" transform="translate(-248.396 6694.252)" fill="none"/>
    </clipPath>
    <clipPath id="clip-path-2">
      <path id="SVGID-2" data-name="SVGID" d="M297.9-6668.4c0-2.388-1.676-3.356-3.744-2.162a8.277,8.277,0,0,0-3.745,6.486c0,2.388,1.677,3.356,3.745,2.162A8.274,8.274,0,0,0,297.9-6668.4Z" transform="translate(-290.41 6671.078)" fill="none"/>
    </clipPath>
    <clipPath id="clip-path-3">
      <path id="SVGID-3" data-name="SVGID" d="M340-6643.668c0-2.388-1.677-3.355-3.745-2.162a8.278,8.278,0,0,0-3.744,6.485c0,2.389,1.677,3.356,3.744,2.162A8.274,8.274,0,0,0,340-6643.668Z" transform="translate(-332.514 6646.341)" fill="none"/>
    </clipPath>
    <clipPath id="clip-path-4">
      <path id="Path_74681" data-name="Path 74681" d="M688.862-6664.64l-17.03,9.83s-4.71,11.049-4.809,21.262l21.839-16.792Z" transform="translate(-667.023 6664.64)" fill="none"/>
    </clipPath>
  </defs>
  <g id="dropdown-2E-intermodal" transform="translate(10549 14549)">
    <rect id="Rectangle_2277" data-name="Rectangle 2277" width="200" height="200" transform="translate(-10549 -14549)" fill="none"/>
    <g id="Group_58112" data-name="Group 58112" transform="translate(-10546 -14525.608)">
      <g id="Group_41917" data-name="Group 41917" transform="translate(44.212 0)">
        <g id="Group_41913" data-name="Group 41913" transform="translate(0 35.858)">
          <g id="Group_41867" data-name="Group 41867" transform="translate(71.414 66.259)">
            <g id="Group_41864" data-name="Group 41864" transform="translate(0 9.064)">
              <g id="Group_41863" data-name="Group 41863">
                <path id="Path_74514" data-name="Path 74514" d="M442.651-6565.462l2.489-1.6v-.716l-2.489,1.608Z" transform="translate(-440.163 6569.214)" fill="#003b7d"/>
                <path id="Path_74515" data-name="Path 74515" d="M445.161-6568.906l2.492-1.606-2.475-1.451-2.488,1.609Z" transform="translate(-442.69 6571.963)" fill="#d4ecff"/>
                <path id="Path_74516" data-name="Path 74516" d="M449.918-6567.439v.714l2.473,1.451v-.712Z" transform="translate(-449.903 6568.988)" fill="#00bdf3"/>
              </g>
            </g>
            <g id="Group_41866" data-name="Group 41866" transform="translate(0.861)">
              <g id="Group_41865" data-name="Group 41865">
                <path id="Path_74517" data-name="Path 74517" d="M445.164-6585.093l1.628-1.049v-9.555l-1.628,1.052Z" transform="translate(-443.537 6596.632)" fill="#003b7d"/>
                <path id="Path_74518" data-name="Path 74518" d="M446.809-6596.432l1.629-1.05-1.618-.949-1.627,1.053Z" transform="translate(-445.192 6598.431)" fill="#e3e3e3"/>
                <path id="Path_74519" data-name="Path 74519" d="M449.918-6595.471v9.553l1.617.948v-9.552Z" transform="translate(-449.908 6596.484)" fill="#00bdf3"/>
              </g>
            </g>
          </g>
          <g id="Group_41869" data-name="Group 41869" transform="translate(113.302 8.518)">
            <g id="Group_41868" data-name="Group 41868" transform="translate(0)">
              <path id="Path_74520" data-name="Path 74520" d="M267.881-6742.534,233-6762.595v-2.465L267.881-6745Z" transform="translate(-232.997 6765.739)" fill="#00bdf3"/>
              <path id="Path_74521" data-name="Path 74521" d="M264.431-6746.3l-34.884-20.062,1.18-.681,34.884,20.062Z" transform="translate(-229.545 6767.044)" fill="#d4ecff"/>
              <path id="Path_74522" data-name="Path 74522" d="M230.731-6708.483v2.466l-1.18.682v-2.465Z" transform="translate(-194.668 6728.537)" fill="#003b7d"/>
            </g>
          </g>
          <g id="Group_41871" data-name="Group 41871" transform="translate(139.533 21.675)">
            <g id="Group_41870" data-name="Group 41870" transform="translate(0)">
              <path id="Path_74523" data-name="Path 74523" d="M244.529-6713.1l-7.154-4.1v-10.89l7.154,4.1Z" transform="translate(-237.374 6728.269)" fill="#00bdf3"/>
              <path id="Path_74524" data-name="Path 74524" d="M243.541-6724.34l-7.155-4.1.337-.187,7.154,4.1Z" transform="translate(-236.385 6728.624)" fill="#727272"/>
              <path id="Path_74525" data-name="Path 74525" d="M236.728-6716.682v10.889l-.337.188v-10.889Z" transform="translate(-229.237 6720.771)" fill="#003b7d"/>
            </g>
          </g>
          <g id="Group_41879" data-name="Group 41879" transform="translate(124.92 25.203)">
            <g id="Group_41872" data-name="Group 41872" transform="translate(0)">
              <path id="Path_74526" data-name="Path 74526" d="M271.935-6715.815l-1.54,2.735a15.237,15.237,0,0,1-6.182,10.98l-1.788,2.956-3.5-2.042c-1.293-.68-2.1-2.225-2.1-4.455a15,15,0,0,1,6.785-11.755,4.949,4.949,0,0,1,4.539-.611l.019.01.49.285h0Z" transform="translate(-256.831 6718.323)" fill="#00bdf3"/>
              <path id="Path_74527" data-name="Path 74527" d="M264.7-6707.535c0-4.329-3.039-6.083-6.787-3.918a15,15,0,0,0-6.787,11.755c0,4.329,3.039,6.083,6.787,3.919A15,15,0,0,0,264.7-6707.535Z" transform="translate(-247.646 6714.416)" fill="#003b7d"/>
            </g>
            <g id="Group_41878" data-name="Group 41878" transform="translate(4.147 2.354)">
              <path id="Path_74528" data-name="Path 74528" d="M259.825-6708.941l-1.54,2.735a15.238,15.238,0,0,1-6.182,10.98l-1.788,2.956-3.5-2.043c-1.293-.68-2.1-2.225-2.1-4.454a15,15,0,0,1,6.786-11.755,4.946,4.946,0,0,1,4.539-.611l.019.009.49.286h0Z" transform="translate(-244.721 6711.449)" fill="#00bdf3"/>
              <path id="Path_74529" data-name="Path 74529" d="M252.592-6700.661c0-4.328-3.039-6.082-6.787-3.918a15,15,0,0,0-6.787,11.755c0,4.328,3.039,6.083,6.787,3.918A15,15,0,0,0,252.592-6700.661Z" transform="translate(-235.535 6707.542)" fill="#003b7d"/>
              <path id="Path_74530" data-name="Path 74530" d="M254.941-6692.967c0-2.7-1.9-3.795-4.234-2.444a9.357,9.357,0,0,0-4.234,7.333c0,2.7,1.9,3.8,4.234,2.446A9.36,9.36,0,0,0,254.941-6692.967Z" transform="translate(-240.437 6701.284)" fill="#caecff"/>
              <path id="Path_74531" data-name="Path 74531" d="M255.885-6691.582c0,.127-.005.256-.015.386a8.35,8.35,0,0,1-3.731,6.1c-1.41.813-2.638.623-3.275-.337l0,0c-.01-.012-.017-.023-.026-.037a3.338,3.338,0,0,1-.442-1.785,8.276,8.276,0,0,1,3.746-6.486,3.453,3.453,0,0,1,1.578-.511,1.826,1.826,0,0,1,.207,0,1.684,1.684,0,0,1,.285.033C255.219-6694.028,255.885-6693.088,255.885-6691.582Z" transform="translate(-242.038 6700.144)" fill="#00bdf3"/>
              <path id="Path_74532" data-name="Path 74532" d="M256.949-6691.832a6.632,6.632,0,0,1-.43,2.236,8.027,8.027,0,0,1-3.216,4.081,2.413,2.413,0,0,1-2.821.083l0,0a.416.416,0,0,1-.026-.037,3.338,3.338,0,0,1-.442-1.785,8.4,8.4,0,0,1,3.014-5.979,5.437,5.437,0,0,1,.732-.507,3.288,3.288,0,0,1,1.785-.511,1.911,1.911,0,0,1,.285.033A2.524,2.524,0,0,1,256.949-6691.832Z" transform="translate(-243.656 6700.144)" fill="#00bdf3"/>
              <g id="Group_41877" data-name="Group 41877" transform="translate(6.357 5.889)">
                <g id="Group_41876" data-name="Group 41876" clip-path="url(#clip-path)">
                  <g id="Group_41875" data-name="Group 41875" transform="translate(-1.159 -0.245)">
                    <path id="Path_74533" data-name="Path 74533" d="M261.608-6692.728a6.926,6.926,0,0,1-3.135,5.43c-1.2.69-2.238.519-2.765-.316a2.77,2.77,0,0,1-.37-1.493,6.927,6.927,0,0,1,3.135-5.431,2.763,2.763,0,0,1,1.494-.428C260.944-6694.916,261.608-6694.1,261.608-6692.728Z" transform="translate(-255.337 6694.968)" fill="#003b7d"/>
                    <path id="Path_74534" data-name="Path 74534" d="M262.56-6691.811a6.025,6.025,0,0,1-2.727,4.723c-1.041.6-1.946.451-2.4-.275a2.415,2.415,0,0,1-.322-1.3,6.023,6.023,0,0,1,2.727-4.722,2.4,2.4,0,0,1,1.3-.372C261.984-6693.714,262.56-6693.006,262.56-6691.811Z" transform="translate(-256.896 6694.173)" fill="#00bdf3"/>
                    <path id="Path_74535" data-name="Path 74535" d="M263.19-6687.98a2.608,2.608,0,0,0-1.179,2.043c0,.75.527,1.055,1.179.679a2.605,2.605,0,0,0,1.177-2.041C264.367-6688.051,263.84-6688.355,263.19-6687.98Zm-.131,2.338c-.5.292-.912.055-.912-.525a2.018,2.018,0,0,1,.912-1.58c.5-.29.912-.054.912.527A2.012,2.012,0,0,1,263.059-6685.643Z" transform="translate(-260.382 6690.479)" fill="#003b7d"/>
                    <g id="Group_41873" data-name="Group 41873" transform="translate(2.243 3.248)">
                      <path id="Path_74536" data-name="Path 74536" d="M265.389-6685.136a.837.837,0,0,1-.379.657.281.281,0,0,1-.255.034h0l-.036-.021-.079-.048a.145.145,0,0,1-.059-.036l0,0a.3.3,0,0,1-.078-.22.839.839,0,0,1,.379-.658.28.28,0,0,1,.249-.035l.042.023,0,0,.089.051,0,0A.257.257,0,0,1,265.389-6685.136Z" transform="translate(-264.5 6685.482)" fill="#caecff"/>
                      <path id="Path_74537" data-name="Path 74537" d="M265.26-6684.993c0-.241-.17-.339-.38-.219a.837.837,0,0,0-.379.657c0,.242.17.34.379.22A.841.841,0,0,0,265.26-6684.993Z" transform="translate(-264.371 6685.338)" fill="#003b7d"/>
                    </g>
                    <g id="Group_41874" data-name="Group 41874" transform="translate(0.467 0.693)">
                      <path id="Path_74538" data-name="Path 74538" d="M263.677-6691.5c0,.285.2.4.447.258a.989.989,0,0,0,.447-.773c0-.285-.2-.4-.447-.258A.988.988,0,0,0,263.677-6691.5Z" transform="translate(-261.624 6692.541)" fill="#494949"/>
                      <path id="Path_74539" data-name="Path 74539" d="M259.867-6692.5c-.159.31-.134.62.055.694s.471-.117.629-.427.134-.621-.055-.7S260.026-6692.812,259.867-6692.5Z" transform="translate(-256.369 6692.946)" fill="#003b7d"/>
                      <path id="Path_74540" data-name="Path 74540" d="M258.049-6689.869a.96.96,0,0,0-.362.808c.043.256.275.309.518.119a.956.956,0,0,0,.362-.807C258.524-6690,258.292-6690.059,258.049-6689.869Z" transform="translate(-253.573 6690.997)" fill="#003b7d"/>
                      <path id="Path_74541" data-name="Path 74541" d="M259.073-6684.827c-.214-.02-.487.224-.611.542s-.05.59.164.609.487-.223.61-.541S259.287-6684.809,259.073-6684.827Z" transform="translate(-254.543 6687.608)" fill="#003b7d"/>
                      <path id="Path_74542" data-name="Path 74542" d="M262.46-6679.737c-.085-.219-.341-.208-.573.023a.876.876,0,0,0-.267.815c.084.218.341.209.573-.022A.877.877,0,0,0,262.46-6679.737Z" transform="translate(-258.826 6684.363)" fill="#003b7d"/>
                      <path id="Path_74543" data-name="Path 74543" d="M266.626-6676.979c.085-.316-.035-.543-.267-.508a.878.878,0,0,0-.573.641c-.085.316.035.543.267.507A.875.875,0,0,0,266.626-6676.979Z" transform="translate(-264.418 6682.783)" fill="#003b7d"/>
                      <path id="Path_74544" data-name="Path 74544" d="M269.621-6677.844a.758.758,0,0,0,.163-.8c-.124-.176-.4-.1-.61.164a.756.756,0,0,0-.164.8C269.133-6677.5,269.406-6677.578,269.621-6677.844Z" transform="translate(-268.702 6683.604)" fill="#003b7d"/>
                      <path id="Path_74545" data-name="Path 74545" d="M270.042-6681.928a.959.959,0,0,0,.518-.717c.043-.305-.119-.479-.363-.389a.96.96,0,0,0-.518.717C269.637-6682.011,269.8-6681.838,270.042-6681.928Z" transform="translate(-269.673 6686.444)" fill="#494949"/>
                      <path id="Path_74546" data-name="Path 74546" d="M267.7-6687.32c.159.127.441-.007.63-.3s.214-.632.055-.759-.441.007-.63.3S267.537-6687.446,267.7-6687.32Z" transform="translate(-266.878 6689.974)" fill="#494949"/>
                      <path id="Path_74547" data-name="Path 74547" d="M263.677-6691.211l.006-.028h0A.228.228,0,0,1,263.677-6691.211Z" transform="translate(-260.736 6691.823)" fill="#494949"/>
                    </g>
                  </g>
                </g>
              </g>
            </g>
          </g>
          <g id="Group_41887" data-name="Group 41887" transform="translate(110.533 33.138)">
            <g id="Group_41880" data-name="Group 41880" transform="translate(0)">
              <path id="Path_74548" data-name="Path 74548" d="M313.949-6692.641l-1.54,2.735a15.241,15.241,0,0,1-6.182,10.98l-1.788,2.955-3.5-2.043c-1.293-.68-2.1-2.225-2.1-4.454a15,15,0,0,1,6.785-11.755,4.946,4.946,0,0,1,4.539-.61l.019.01.49.284h0Z" transform="translate(-298.845 6695.149)" fill="#00bdf3"/>
              <path id="Path_74549" data-name="Path 74549" d="M306.717-6684.361c0-4.328-3.039-6.082-6.787-3.918a15,15,0,0,0-6.787,11.755c0,4.328,3.039,6.083,6.787,3.919A15,15,0,0,0,306.717-6684.361Z" transform="translate(-289.66 6691.241)" fill="#003b7d"/>
            </g>
            <g id="Group_41886" data-name="Group 41886" transform="translate(4.147 2.354)">
              <path id="Path_74550" data-name="Path 74550" d="M301.839-6685.768l-1.54,2.736a15.24,15.24,0,0,1-6.182,10.98l-1.788,2.955-3.5-2.043c-1.293-.679-2.1-2.225-2.1-4.454a15,15,0,0,1,6.785-11.755,4.947,4.947,0,0,1,4.539-.611l.019.01.49.284h0Z" transform="translate(-286.735 6688.275)" fill="#00bdf3"/>
              <path id="Path_74551" data-name="Path 74551" d="M294.606-6677.486c0-4.329-3.039-6.083-6.787-3.919a15,15,0,0,0-6.787,11.756c0,4.328,3.039,6.083,6.787,3.918A15,15,0,0,0,294.606-6677.486Z" transform="translate(-277.55 6684.367)" fill="#003b7d"/>
              <path id="Path_74552" data-name="Path 74552" d="M296.955-6669.793c0-2.7-1.9-3.794-4.234-2.445a9.361,9.361,0,0,0-4.234,7.334c0,2.7,1.9,3.794,4.234,2.444A9.358,9.358,0,0,0,296.955-6669.793Z" transform="translate(-282.452 6678.11)" fill="#caecff"/>
              <path id="Path_74553" data-name="Path 74553" d="M297.9-6668.409c0,.128-.005.256-.014.387a8.351,8.351,0,0,1-3.732,6.1c-1.409.813-2.638.623-3.275-.337l0,0c-.01-.012-.017-.023-.026-.038a3.331,3.331,0,0,1-.442-1.785,8.277,8.277,0,0,1,3.746-6.486,3.448,3.448,0,0,1,1.578-.511c.071,0,.14,0,.207,0a1.79,1.79,0,0,1,.285.034C297.233-6670.854,297.9-6669.914,297.9-6668.409Z" transform="translate(-284.053 6676.97)" fill="#00bdf3"/>
              <path id="Path_74554" data-name="Path 74554" d="M298.963-6668.658a6.637,6.637,0,0,1-.43,2.237,8.022,8.022,0,0,1-3.216,4.08,2.413,2.413,0,0,1-2.821.084l0,0c-.01-.012-.017-.024-.026-.039a3.328,3.328,0,0,1-.442-1.784,8.4,8.4,0,0,1,3.014-5.979,5.365,5.365,0,0,1,.732-.506,3.291,3.291,0,0,1,1.785-.512,1.91,1.91,0,0,1,.285.034A2.525,2.525,0,0,1,298.963-6668.658Z" transform="translate(-285.671 6676.971)" fill="#00bdf3"/>
              <g id="Group_41885" data-name="Group 41885" transform="translate(6.356 5.889)">
                <g id="Group_41884" data-name="Group 41884" clip-path="url(#clip-path-2)">
                  <g id="Group_41883" data-name="Group 41883" transform="translate(-1.158 -0.245)">
                    <path id="Path_74555" data-name="Path 74555" d="M303.622-6669.554a6.929,6.929,0,0,1-3.135,5.431c-1.2.69-2.238.518-2.765-.316a2.774,2.774,0,0,1-.37-1.494,6.928,6.928,0,0,1,3.135-5.431,2.778,2.778,0,0,1,1.494-.428C302.958-6671.741,303.622-6670.929,303.622-6669.554Z" transform="translate(-297.351 6671.794)" fill="#003b7d"/>
                    <path id="Path_74556" data-name="Path 74556" d="M304.573-6668.638a6.027,6.027,0,0,1-2.727,4.724c-1.041.6-1.946.449-2.4-.275a2.413,2.413,0,0,1-.322-1.3,6.024,6.024,0,0,1,2.727-4.723,2.4,2.4,0,0,1,1.3-.372C304-6670.54,304.573-6669.833,304.573-6668.638Z" transform="translate(-298.909 6670.999)" fill="#00bdf3"/>
                    <path id="Path_74557" data-name="Path 74557" d="M305.2-6664.807a2.605,2.605,0,0,0-1.179,2.042c0,.751.527,1.056,1.179.679a2.6,2.6,0,0,0,1.177-2.041C306.381-6664.877,305.854-6665.182,305.2-6664.807Zm-.131,2.338c-.5.291-.912.055-.912-.526a2.015,2.015,0,0,1,.912-1.579c.5-.292.912-.055.912.526A2.016,2.016,0,0,1,305.073-6662.468Z" transform="translate(-302.396 6667.305)" fill="#003b7d"/>
                    <g id="Group_41881" data-name="Group 41881" transform="translate(2.243 3.248)">
                      <path id="Path_74558" data-name="Path 74558" d="M307.4-6661.962a.839.839,0,0,1-.379.657.281.281,0,0,1-.255.034v0l-.036-.021-.079-.047a.148.148,0,0,1-.059-.036h0a.3.3,0,0,1-.078-.22.839.839,0,0,1,.379-.658.279.279,0,0,1,.249-.035l.042.023,0,0,.089.05,0,0A.26.26,0,0,1,307.4-6661.962Z" transform="translate(-306.514 6662.309)" fill="#caecff"/>
                      <path id="Path_74559" data-name="Path 74559" d="M307.274-6661.819c0-.242-.17-.341-.379-.22a.841.841,0,0,0-.38.658c0,.242.17.34.38.22A.842.842,0,0,0,307.274-6661.819Z" transform="translate(-306.385 6662.166)" fill="#003b7d"/>
                    </g>
                    <g id="Group_41882" data-name="Group 41882" transform="translate(0.467 0.693)">
                      <path id="Path_74560" data-name="Path 74560" d="M305.691-6668.322c0,.286.2.4.447.259a.99.99,0,0,0,.447-.774c0-.285-.2-.4-.447-.258A.988.988,0,0,0,305.691-6668.322Z" transform="translate(-303.637 6669.367)" fill="#494949"/>
                      <path id="Path_74561" data-name="Path 74561" d="M301.881-6669.328c-.159.309-.134.62.055.694s.471-.118.629-.427.134-.622-.055-.7S302.04-6669.639,301.881-6669.328Z" transform="translate(-298.383 6669.771)" fill="#003b7d"/>
                      <path id="Path_74562" data-name="Path 74562" d="M300.063-6666.694a.956.956,0,0,0-.363.806c.043.256.275.31.518.12a.957.957,0,0,0,.363-.807C300.537-6666.83,300.305-6666.884,300.063-6666.694Z" transform="translate(-295.586 6667.822)" fill="#003b7d"/>
                      <path id="Path_74563" data-name="Path 74563" d="M301.087-6661.652c-.214-.019-.487.223-.611.541s-.05.592.164.611.487-.224.61-.542S301.3-6661.633,301.087-6661.652Z" transform="translate(-296.557 6664.433)" fill="#003b7d"/>
                      <path id="Path_74564" data-name="Path 74564" d="M304.474-6656.562c-.085-.219-.341-.209-.573.022a.876.876,0,0,0-.267.815c.084.219.341.208.573-.022A.877.877,0,0,0,304.474-6656.562Z" transform="translate(-300.84 6661.19)" fill="#003b7d"/>
                      <path id="Path_74565" data-name="Path 74565" d="M308.64-6653.806c.085-.315-.035-.543-.267-.507a.879.879,0,0,0-.573.64c-.085.316.035.544.267.507A.874.874,0,0,0,308.64-6653.806Z" transform="translate(-306.432 6659.609)" fill="#003b7d"/>
                      <path id="Path_74566" data-name="Path 74566" d="M311.634-6654.67a.756.756,0,0,0,.163-.8c-.124-.176-.4-.1-.61.163a.757.757,0,0,0-.164.8C311.147-6654.331,311.42-6654.4,311.634-6654.67Z" transform="translate(-310.716 6660.43)" fill="#003b7d"/>
                      <path id="Path_74567" data-name="Path 74567" d="M312.056-6658.754a.958.958,0,0,0,.518-.717c.043-.3-.12-.48-.363-.389a.962.962,0,0,0-.518.717C311.651-6658.837,311.813-6658.663,312.056-6658.754Z" transform="translate(-311.687 6663.27)" fill="#494949"/>
                      <path id="Path_74568" data-name="Path 74568" d="M309.709-6664.146c.159.127.44-.007.629-.3s.214-.632.055-.758-.441.007-.63.3S309.551-6664.272,309.709-6664.146Z" transform="translate(-308.891 6666.799)" fill="#494949"/>
                      <path id="Path_74569" data-name="Path 74569" d="M305.691-6668.037l.006-.027h0A.237.237,0,0,1,305.691-6668.037Z" transform="translate(-302.75 6668.648)" fill="#494949"/>
                    </g>
                  </g>
                </g>
              </g>
            </g>
          </g>
          <g id="Group_41895" data-name="Group 41895" transform="translate(96.114 41.609)">
            <g id="Group_41888" data-name="Group 41888" transform="translate(0)">
              <path id="Path_74570" data-name="Path 74570" d="M356.054-6667.9l-1.54,2.735a15.239,15.239,0,0,1-6.182,10.98l-1.789,2.955-3.495-2.042c-1.293-.68-2.1-2.225-2.1-4.454a15,15,0,0,1,6.785-11.755,4.947,4.947,0,0,1,4.539-.61l.019.01.49.284h0Z" transform="translate(-340.95 6670.413)" fill="#00bdf3"/>
              <path id="Path_74571" data-name="Path 74571" d="M348.821-6659.625c0-4.328-3.039-6.083-6.787-3.919a15,15,0,0,0-6.787,11.756c0,4.328,3.039,6.083,6.787,3.919A15,15,0,0,0,348.821-6659.625Z" transform="translate(-331.765 6666.506)" fill="#003b7d"/>
            </g>
            <g id="Group_41894" data-name="Group 41894" transform="translate(4.147 2.354)">
              <path id="Path_74572" data-name="Path 74572" d="M343.943-6661.031l-1.54,2.735a15.239,15.239,0,0,1-6.182,10.98l-1.788,2.956-3.5-2.043c-1.293-.68-2.1-2.225-2.1-4.454a15,15,0,0,1,6.785-11.754,4.946,4.946,0,0,1,4.539-.611l.019.01.49.285h0Z" transform="translate(-328.839 6663.539)" fill="#00bdf3"/>
              <path id="Path_74573" data-name="Path 74573" d="M336.71-6652.75c0-4.329-3.039-6.083-6.787-3.919a15,15,0,0,0-6.787,11.755c0,4.328,3.039,6.083,6.787,3.918A15,15,0,0,0,336.71-6652.75Z" transform="translate(-319.653 6659.632)" fill="#003b7d"/>
              <path id="Path_74574" data-name="Path 74574" d="M339.059-6645.058c0-2.7-1.9-3.795-4.234-2.444a9.36,9.36,0,0,0-4.234,7.334c0,2.7,1.9,3.794,4.234,2.444A9.359,9.359,0,0,0,339.059-6645.058Z" transform="translate(-324.555 6653.374)" fill="#caecff"/>
              <path id="Path_74575" data-name="Path 74575" d="M340-6643.673c0,.128,0,.257-.014.387a8.352,8.352,0,0,1-3.731,6.1c-1.41.813-2.638.623-3.275-.337l0,0a.429.429,0,0,1-.026-.038,3.332,3.332,0,0,1-.442-1.785,8.277,8.277,0,0,1,3.746-6.486,3.442,3.442,0,0,1,1.578-.511c.071,0,.14,0,.207,0a1.8,1.8,0,0,1,.285.034C339.338-6646.119,340-6645.177,340-6643.673Z" transform="translate(-326.157 6652.234)" fill="#00bdf3"/>
              <path id="Path_74576" data-name="Path 74576" d="M341.067-6643.922a6.627,6.627,0,0,1-.43,2.236,8.023,8.023,0,0,1-3.216,4.081,2.411,2.411,0,0,1-2.821.083l0,0a.313.313,0,0,1-.026-.038,3.332,3.332,0,0,1-.442-1.785,8.4,8.4,0,0,1,3.014-5.98,5.476,5.476,0,0,1,.732-.506,3.28,3.28,0,0,1,1.785-.511,1.8,1.8,0,0,1,.285.033A2.525,2.525,0,0,1,341.067-6643.922Z" transform="translate(-327.774 6652.234)" fill="#00bdf3"/>
              <g id="Group_41893" data-name="Group 41893" transform="translate(6.356 5.889)">
                <g id="Group_41892" data-name="Group 41892" transform="translate(0)" clip-path="url(#clip-path-3)">
                  <g id="Group_41891" data-name="Group 41891" transform="translate(-1.158 -0.245)">
                    <path id="Path_74577" data-name="Path 74577" d="M345.726-6644.818a6.929,6.929,0,0,1-3.135,5.431c-1.2.69-2.238.517-2.765-.317a2.773,2.773,0,0,1-.37-1.493,6.931,6.931,0,0,1,3.135-5.432,2.782,2.782,0,0,1,1.494-.427C345.062-6647.006,345.726-6646.193,345.726-6644.818Z" transform="translate(-339.455 6647.058)" fill="#003b7d"/>
                    <path id="Path_74578" data-name="Path 74578" d="M346.678-6643.9a6.024,6.024,0,0,1-2.727,4.723c-1.041.6-1.946.45-2.4-.275a2.41,2.41,0,0,1-.322-1.3,6.027,6.027,0,0,1,2.727-4.724,2.417,2.417,0,0,1,1.3-.372C346.1-6645.8,346.678-6645.1,346.678-6643.9Z" transform="translate(-341.014 6646.263)" fill="#00bdf3"/>
                    <path id="Path_74579" data-name="Path 74579" d="M347.308-6640.071a2.608,2.608,0,0,0-1.179,2.042c0,.752.527,1.056,1.179.679a2.6,2.6,0,0,0,1.178-2.041C348.485-6640.142,347.958-6640.446,347.308-6640.071Zm-.131,2.339c-.5.291-.912.055-.912-.526a2.015,2.015,0,0,1,.912-1.579c.5-.292.912-.055.912.525A2.015,2.015,0,0,1,347.177-6637.732Z" transform="translate(-344.5 6642.569)" fill="#003b7d"/>
                    <g id="Group_41889" data-name="Group 41889" transform="translate(2.243 3.248)">
                      <path id="Path_74580" data-name="Path 74580" d="M349.508-6637.226a.837.837,0,0,1-.379.657.282.282,0,0,1-.255.035h0l-.036-.021-.079-.048a.136.136,0,0,1-.059-.036h0a.3.3,0,0,1-.078-.22.836.836,0,0,1,.379-.658.277.277,0,0,1,.249-.035l.041.022,0,0,.089.051,0,0A.258.258,0,0,1,349.508-6637.226Z" transform="translate(-348.619 6637.571)" fill="#caecff"/>
                      <path id="Path_74581" data-name="Path 74581" d="M349.378-6637.083c0-.242-.17-.34-.38-.219a.838.838,0,0,0-.379.657c0,.242.17.34.379.219A.837.837,0,0,0,349.378-6637.083Z" transform="translate(-348.489 6637.428)" fill="#003b7d"/>
                    </g>
                    <g id="Group_41890" data-name="Group 41890" transform="translate(0.467 0.693)">
                      <path id="Path_74582" data-name="Path 74582" d="M347.795-6643.585c0,.285.2.4.447.258a.986.986,0,0,0,.447-.773c0-.285-.2-.4-.447-.258A.988.988,0,0,0,347.795-6643.585Z" transform="translate(-345.741 6644.63)" fill="#494949"/>
                      <path id="Path_74583" data-name="Path 74583" d="M343.985-6644.592c-.159.31-.134.621.055.7s.471-.118.629-.428.134-.62-.055-.694S344.144-6644.9,343.985-6644.592Z" transform="translate(-340.487 6645.035)" fill="#003b7d"/>
                      <path id="Path_74584" data-name="Path 74584" d="M342.167-6641.958a.959.959,0,0,0-.362.807c.043.257.275.309.518.12a.958.958,0,0,0,.362-.807C342.642-6642.1,342.41-6642.148,342.167-6641.958Z" transform="translate(-337.69 6643.087)" fill="#003b7d"/>
                      <path id="Path_74585" data-name="Path 74585" d="M343.191-6636.916c-.214-.02-.487.223-.611.54s-.05.592.164.611.487-.223.61-.542S343.4-6636.9,343.191-6636.916Z" transform="translate(-338.661 6639.697)" fill="#003b7d"/>
                      <path id="Path_74586" data-name="Path 74586" d="M346.578-6631.826c-.084-.219-.341-.209-.573.022a.876.876,0,0,0-.267.815c.084.219.341.209.573-.022A.877.877,0,0,0,346.578-6631.826Z" transform="translate(-342.945 6636.453)" fill="#003b7d"/>
                      <path id="Path_74587" data-name="Path 74587" d="M350.744-6629.068c.085-.317-.035-.544-.267-.507a.875.875,0,0,0-.573.639c-.085.316.035.543.267.507A.875.875,0,0,0,350.744-6629.068Z" transform="translate(-348.536 6634.872)" fill="#003b7d"/>
                      <path id="Path_74588" data-name="Path 74588" d="M353.738-6629.934a.757.757,0,0,0,.163-.8c-.124-.176-.4-.1-.61.163a.758.758,0,0,0-.164.8C353.251-6629.594,353.524-6629.668,353.738-6629.934Z" transform="translate(-352.82 6635.694)" fill="#003b7d"/>
                      <path id="Path_74589" data-name="Path 74589" d="M354.161-6634.019a.956.956,0,0,0,.517-.717c.043-.306-.119-.479-.362-.389a.958.958,0,0,0-.518.718C353.756-6634.1,353.918-6633.928,354.161-6634.019Z" transform="translate(-353.792 6638.534)" fill="#494949"/>
                      <path id="Path_74590" data-name="Path 74590" d="M351.813-6639.41c.159.127.441-.007.63-.3s.214-.632.055-.759-.441.008-.63.3S351.655-6639.537,351.813-6639.41Z" transform="translate(-350.996 6642.063)" fill="#494949"/>
                      <path id="Path_74591" data-name="Path 74591" d="M347.795-6643.3l.006-.027,0,0C347.8-6643.318,347.8-6643.309,347.795-6643.3Z" transform="translate(-344.853 6643.913)" fill="#494949"/>
                    </g>
                  </g>
                </g>
              </g>
            </g>
          </g>
          <g id="Group_41902" data-name="Group 41902" transform="translate(93.422 24.392)">
            <g id="Group_41901" data-name="Group 41901" transform="translate(0)">
              <g id="Group_41896" data-name="Group 41896" transform="translate(42.15 1.209)">
                <path id="Path_74592" data-name="Path 74592" d="M246.181-6711.072l-3.666-2.13-6.808-3.957a3.351,3.351,0,0,1,1.212,1.244l10.474,6.087A3.344,3.344,0,0,0,246.181-6711.072Z" transform="translate(-235.707 6717.159)" fill="#003b7d"/>
              </g>
              <g id="Group_41897" data-name="Group 41897" transform="translate(37.551)">
                <path id="Path_74593" data-name="Path 74593" d="M253.508-6714.126l-10.474-6.086c-1.283-.746-3.059-.641-5.022.492l10.475,6.086C250.449-6714.767,252.225-6714.872,253.508-6714.126Z" transform="translate(-238.012 6720.688)" fill="#d4ecff"/>
              </g>
              <g id="Group_41898" data-name="Group 41898" transform="translate(6.444 0.968)">
                <path id="Path_74594" data-name="Path 74594" d="M294.256-6711.775l-10.474-6.087-31.107,17.96,10.474,6.086Z" transform="translate(-252.675 6717.862)" fill="#d4ecff"/>
              </g>
              <g id="Group_41899" data-name="Group 41899" transform="translate(0 18.928)">
                <path id="Path_74595" data-name="Path 74595" d="M360.431-6659.33l-10.474-6.087a15.626,15.626,0,0,0-6.444,8.561l10.474,6.087A15.624,15.624,0,0,1,360.431-6659.33Z" transform="translate(-343.513 6665.417)" fill="#d4ecff"/>
              </g>
              <g id="Group_41900" data-name="Group 41900" transform="translate(10.474 6.086)">
                <path id="Path_74596" data-name="Path 74596" d="M240.222-6683.988a15.624,15.624,0,0,0-6.444,8.561l.662-.382a14.244,14.244,0,0,1,5.784-7.491l31.107-17.96c2.539-1.466,4.745-1.045,5.809.8l.661-.382c-1.1-2.212-3.587-2.769-6.471-1.1Z" transform="translate(-233.778 6702.916)" fill="#00bdf3"/>
              </g>
            </g>
          </g>
          <g id="Group_41911" data-name="Group 41911" transform="translate(77.986 53.795)">
            <g id="Group_41904" data-name="Group 41904" transform="translate(2.414 9.517)">
              <g id="Group_41903" data-name="Group 41903" transform="translate(0)">
                <path id="Path_74597" data-name="Path 74597" d="M428.6-6595.773l.4-.259v-10.33l-.4.259Z" transform="translate(-428.196 6606.593)" fill="#003b7d"/>
                <path id="Path_74598" data-name="Path 74598" d="M429-6606.543l.4-.26-.4-.233-.4.259Z" transform="translate(-428.605 6607.036)" fill="#e3e3e3"/>
                <path id="Path_74599" data-name="Path 74599" d="M429.77-6606.307v10.33l.4.236v-10.331Z" transform="translate(-429.768 6606.557)" fill="#00bdf3"/>
              </g>
            </g>
            <g id="Group_41906" data-name="Group 41906" transform="translate(19.075)">
              <g id="Group_41905" data-name="Group 41905" transform="translate(0)">
                <path id="Path_74600" data-name="Path 74600" d="M379.944-6623.565l.4-.26v-10.331l-.4.26Z" transform="translate(-379.543 6634.386)" fill="#003b7d"/>
                <path id="Path_74601" data-name="Path 74601" d="M380.348-6634.334l.4-.26-.4-.233-.4.259Z" transform="translate(-379.95 6634.828)" fill="#e3e3e3"/>
                <path id="Path_74602" data-name="Path 74602" d="M381.116-6634.1v10.331l.4.234v-10.33Z" transform="translate(-381.114 6634.35)" fill="#00bdf3"/>
              </g>
            </g>
            <g id="Group_41908" data-name="Group 41908" transform="translate(0 0.449)">
              <g id="Group_41907" data-name="Group 41907">
                <path id="Path_74603" data-name="Path 74603" d="M373.916-6617.1l21.541-12.354v-3.392l-21.541,12.355Z" transform="translate(-373.514 6633.074)" fill="#003b7d"/>
                <path id="Path_74604" data-name="Path 74604" d="M374.321-6620.928l21.542-12.355-.4-.234-21.541,12.355Z" transform="translate(-373.922 6633.517)" fill="#d4ecff"/>
                <path id="Path_74605" data-name="Path 74605" d="M436.818-6597.465v3.391l.4.233v-3.39Z" transform="translate(-436.816 6609.811)" fill="#00bdf3"/>
              </g>
            </g>
            <g id="Group_41910" data-name="Group 41910" transform="translate(0 5.728)">
              <g id="Group_41909" data-name="Group 41909">
                <path id="Path_74606" data-name="Path 74606" d="M373.916-6601.682l21.541-12.354v-3.392l-21.541,12.355Z" transform="translate(-373.514 6617.659)" fill="#003b7d"/>
                <path id="Path_74607" data-name="Path 74607" d="M374.321-6605.514l21.542-12.355-.4-.233-21.541,12.355Z" transform="translate(-373.922 6618.103)" fill="#d4ecff"/>
                <path id="Path_74608" data-name="Path 74608" d="M436.818-6582.053v3.391l.4.233v-3.39Z" transform="translate(-436.816 6594.398)" fill="#00bdf3"/>
              </g>
            </g>
          </g>
          <g id="Group_41912" data-name="Group 41912">
            <path id="Path_74609" data-name="Path 74609" d="M233.08-6726.735l34.877,20.211,113.273-65.185-34.876-20.21Z" transform="translate(-233.072 6791.919)" fill="#d4ecff"/>
            <path id="Path_74610" data-name="Path 74610" d="M233.1-6667.813l-.018,5.714,113.249-65.981.017-4.969Z" transform="translate(-198.189 6753.209)" fill="#003b7d"/>
            <path id="Path_74611" data-name="Path 74611" d="M598.638-6581.392l.018,5.714L563.744-6596.2l-.016-5.425Z" transform="translate(-563.728 6666.787)" fill="#00bdf3"/>
          </g>
        </g>
        <g id="Group_41916" data-name="Group 41916" transform="translate(4.634)">
          <g id="Group_41914" data-name="Group 41914" transform="translate(30.258 17.469)">
            <path id="Path_74612" data-name="Path 74612" d="M245.351-6744.722l109.064-63.053v-37.844l-109.064,63.052Z" transform="translate(-245.351 6845.618)" fill="#003b7d"/>
            <path id="Path_74613" data-name="Path 74613" d="M254.907-6801.591l1.017-.586v-34.31l-1.017.585Z" transform="translate(-150.133 6839.614)" fill="#00bdf3"/>
            <path id="Path_74614" data-name="Path 74614" d="M248.884-6805.068l1.016-.589v-34.308l-1.016.586Z" transform="translate(-142.046 6841.901)" fill="#003b7d"/>
            <path id="Path_74615" data-name="Path 74615" d="M266.96-6794.633l1.014-.586,0-34.311-1.017.588Z" transform="translate(-166.313 6835.04)" fill="#00bdf3"/>
            <path id="Path_74616" data-name="Path 74616" d="M260.937-6798.11l1.015-.587V-6833l-1.015.583Z" transform="translate(-158.226 6837.324)" fill="#003b7d"/>
            <path id="Path_74617" data-name="Path 74617" d="M279.019-6787.675l1.015-.588v-34.31l-1.015.588Z" transform="translate(-182.5 6830.465)" fill="#00bdf3"/>
            <path id="Path_74618" data-name="Path 74618" d="M272.989-6791.154l1.015-.587v-34.309l-1.015.586Z" transform="translate(-174.405 6832.751)" fill="#003b7d"/>
            <path id="Path_74619" data-name="Path 74619" d="M291.063-6780.717l1.017-.588v-34.311l-1.017.587Z" transform="translate(-198.671 6825.89)" fill="#00bdf3"/>
            <path id="Path_74620" data-name="Path 74620" d="M285.04-6784.2l1.016-.585v-34.312l-1.016.588Z" transform="translate(-190.584 6828.178)" fill="#003b7d"/>
            <path id="Path_74621" data-name="Path 74621" d="M303.118-6773.761l1.015-.586v-34.31l-1.015.587Z" transform="translate(-214.852 6821.314)" fill="#00bdf3"/>
            <path id="Path_74622" data-name="Path 74622" d="M297.089-6777.24l1.016-.588v-34.31l-1.016.587Z" transform="translate(-206.759 6823.603)" fill="#003b7d"/>
            <path id="Path_74623" data-name="Path 74623" d="M315.171-6766.8l1.015-.588V-6801.7l-1.015.588Z" transform="translate(-231.032 6816.742)" fill="#00bdf3"/>
            <path id="Path_74624" data-name="Path 74624" d="M309.139-6770.284l1.015-.586v-34.312l-1.015.588Z" transform="translate(-222.935 6819.03)" fill="#003b7d"/>
            <path id="Path_74625" data-name="Path 74625" d="M327.215-6759.846l1.017-.587v-34.31l-1.017.588Z" transform="translate(-247.202 6812.165)" fill="#00bdf3"/>
            <path id="Path_74626" data-name="Path 74626" d="M321.194-6763.323l1.014-.586v-34.309l-1.014.585Z" transform="translate(-239.116 6814.45)" fill="#003b7d"/>
            <path id="Path_74627" data-name="Path 74627" d="M339.269-6752.884l1.016-.586v-34.31l-1.016.585Z" transform="translate(-263.383 6807.586)" fill="#00bdf3"/>
            <path id="Path_74628" data-name="Path 74628" d="M333.245-6756.364l1.014-.586v-34.309l-1.014.585Z" transform="translate(-255.294 6809.874)" fill="#003b7d"/>
            <path id="Path_74629" data-name="Path 74629" d="M351.321-6745.929l1.016-.586v-34.309l-1.016.585Z" transform="translate(-279.562 6803.013)" fill="#00bdf3"/>
            <path id="Path_74630" data-name="Path 74630" d="M345.3-6749.409l1.015-.586v-34.312l-1.015.586Z" transform="translate(-271.474 6805.303)" fill="#003b7d"/>
            <path id="Path_74631" data-name="Path 74631" d="M363.369-6738.972l1.019-.586v-34.31l-1.015.586Z" transform="translate(-295.738 6798.438)" fill="#00bdf3"/>
            <path id="Path_74632" data-name="Path 74632" d="M357.346-6742.449l1.015-.587v-34.31l-1.015.583Z" transform="translate(-287.65 6800.725)" fill="#003b7d"/>
            <path id="Path_74633" data-name="Path 74633" d="M375.424-6732.015l1.017-.587v-34.31l-1.017.586Z" transform="translate(-311.921 6793.865)" fill="#00bdf3"/>
            <path id="Path_74634" data-name="Path 74634" d="M369.4-6735.493l1.016-.587v-34.31l-1.016.586Z" transform="translate(-303.831 6796.151)" fill="#003b7d"/>
            <path id="Path_74635" data-name="Path 74635" d="M387.474-6725.057l1.017-.587v-34.31l-1.017.587Z" transform="translate(-328.097 6789.288)" fill="#00bdf3"/>
            <path id="Path_74636" data-name="Path 74636" d="M381.452-6728.534l1.014-.587v-34.31l-1.014.586Z" transform="translate(-320.01 6791.576)" fill="#003b7d"/>
            <path id="Path_74637" data-name="Path 74637" d="M399.524-6718.1l1.017-.587v-34.309l-1.017.586Z" transform="translate(-344.274 6784.712)" fill="#00bdf3"/>
            <path id="Path_74638" data-name="Path 74638" d="M393.5-6721.574l1.014-.587v-34.308l-1.014.586Z" transform="translate(-336.185 6786.998)" fill="#003b7d"/>
            <path id="Path_74639" data-name="Path 74639" d="M411.576-6711.139l1.017-.586v-34.308l-1.017.585Z" transform="translate(-360.452 6780.135)" fill="#00bdf3"/>
            <path id="Path_74640" data-name="Path 74640" d="M405.554-6714.617l1.014-.587v-34.308l-1.014.585Z" transform="translate(-352.366 6782.423)" fill="#003b7d"/>
            <path id="Path_74641" data-name="Path 74641" d="M423.628-6704.184l1.015-.586v-34.31l-1.015.588Z" transform="translate(-376.63 6775.563)" fill="#00bdf3"/>
            <path id="Path_74642" data-name="Path 74642" d="M417.606-6707.664l1.014-.586v-34.31l-1.014.588Z" transform="translate(-368.545 6777.852)" fill="#003b7d"/>
            <path id="Path_74643" data-name="Path 74643" d="M435.586-6697.26l1.014-.587,0-34.311-1.017.586Z" transform="translate(-392.684 6771.012)" fill="#00bdf3"/>
            <path id="Path_74644" data-name="Path 74644" d="M429.564-6700.737l1.016-.587v-34.309l-1.016.584Z" transform="translate(-384.599 6773.297)" fill="#003b7d"/>
            <path id="Path_74645" data-name="Path 74645" d="M447.646-6690.3l1.015-.588v-34.31l-1.015.587Z" transform="translate(-408.872 6766.437)" fill="#00bdf3"/>
            <path id="Path_74646" data-name="Path 74646" d="M441.616-6693.781l1.015-.588v-34.309l-1.015.586Z" transform="translate(-400.778 6768.724)" fill="#003b7d"/>
            <path id="Path_74647" data-name="Path 74647" d="M459.689-6683.345l1.017-.588v-34.311l-1.017.588Z" transform="translate(-425.041 6761.862)" fill="#00bdf3"/>
            <path id="Path_74648" data-name="Path 74648" d="M453.666-6686.827l1.016-.585v-34.31l-1.016.587Z" transform="translate(-416.955 6764.15)" fill="#003b7d"/>
            <path id="Path_74649" data-name="Path 74649" d="M471.744-6676.389l1.015-.586v-34.31l-1.015.586Z" transform="translate(-441.223 6757.287)" fill="#00bdf3"/>
            <path id="Path_74650" data-name="Path 74650" d="M465.715-6679.868l1.016-.587v-34.311l-1.016.588Z" transform="translate(-433.131 6759.576)" fill="#003b7d"/>
            <path id="Path_74651" data-name="Path 74651" d="M483.8-6669.431l1.014-.588v-34.311l-1.014.588Z" transform="translate(-457.404 6752.714)" fill="#00bdf3"/>
            <path id="Path_74652" data-name="Path 74652" d="M477.765-6672.912l1.016-.586v-34.312l-1.016.588Z" transform="translate(-449.306 6755.002)" fill="#003b7d"/>
            <path id="Path_74653" data-name="Path 74653" d="M495.84-6662.473l1.017-.587v-34.31l-1.017.587Z" transform="translate(-473.573 6748.137)" fill="#00bdf3"/>
            <path id="Path_74654" data-name="Path 74654" d="M489.821-6665.95l1.014-.587v-34.308l-1.014.584Z" transform="translate(-465.489 6750.422)" fill="#003b7d"/>
            <path id="Path_74655" data-name="Path 74655" d="M507.894-6655.511l1.017-.587v-34.308l-1.017.584Z" transform="translate(-489.755 6743.558)" fill="#00bdf3"/>
            <path id="Path_74656" data-name="Path 74656" d="M501.871-6658.991l1.014-.586v-34.309l-1.014.585Z" transform="translate(-481.666 6745.846)" fill="#003b7d"/>
            <path id="Path_74657" data-name="Path 74657" d="M519.946-6648.557l1.016-.587v-34.309l-1.016.586Z" transform="translate(-505.932 6738.985)" fill="#00bdf3"/>
            <path id="Path_74658" data-name="Path 74658" d="M513.922-6652.036l1.015-.587v-34.312l-1.015.587Z" transform="translate(-497.845 6741.275)" fill="#003b7d"/>
            <path id="Path_74659" data-name="Path 74659" d="M531.994-6641.6l1.019-.585v-34.31l-1.016.586Z" transform="translate(-522.109 6734.411)" fill="#00bdf3"/>
            <path id="Path_74660" data-name="Path 74660" d="M525.973-6645.076l1.014-.588v-34.31l-1.014.585Z" transform="translate(-514.022 6736.698)" fill="#003b7d"/>
            <path id="Path_74661" data-name="Path 74661" d="M544.051-6634.641l1.017-.588v-34.309l-1.017.586Z" transform="translate(-538.293 6729.836)" fill="#00bdf3"/>
            <path id="Path_74662" data-name="Path 74662" d="M538.027-6638.121l1.016-.586v-34.311l-1.016.587Z" transform="translate(-530.205 6732.125)" fill="#003b7d"/>
            <path id="Path_74663" data-name="Path 74663" d="M556.1-6627.685l1.017-.586v-34.31l-1.017.587Z" transform="translate(-554.469 6725.262)" fill="#00bdf3"/>
            <path id="Path_74664" data-name="Path 74664" d="M550.078-6631.162l1.014-.586v-34.31l-1.014.586Z" transform="translate(-546.382 6727.548)" fill="#003b7d"/>
          </g>
          <path id="Path_74665" data-name="Path 74665" d="M245.351-6833.577l30.256,17.467,109.064-63.051-30.258-17.469Z" transform="translate(-245.349 6896.63)" fill="#d4ecff"/>
          <g id="Group_41915" data-name="Group 41915" transform="translate(0 63.091)">
            <path id="Path_74666" data-name="Path 74666" d="M563.834-6674.549l30.258,17.468v-37.845l-30.258-17.467Z" transform="translate(-563.834 6712.394)" fill="#00bdf3"/>
            <path id="Path_74667" data-name="Path 74667" d="M573.392-6630.69l1.017.585v-34.311l-1.017-.584Z" transform="translate(-547.424 6681.23)" fill="#003b7d"/>
            <path id="Path_74668" data-name="Path 74668" d="M567.369-6627.215l1.016.586v-34.31l-1.016-.586Z" transform="translate(-539.337 6678.944)" fill="#d4ecff"/>
            <path id="Path_74669" data-name="Path 74669" d="M585.445-6637.65l1.017.586v-34.31l-1.017-.586Z" transform="translate(-563.604 6685.806)" fill="#003b7d"/>
            <path id="Path_74670" data-name="Path 74670" d="M579.423-6634.174l1.015.587V-6667.9l-1.015-.586Z" transform="translate(-555.518 6683.521)" fill="#d4ecff"/>
            <path id="Path_74671" data-name="Path 74671" d="M597.5-6644.609l1.016.588v-34.31l-1.016-.587Z" transform="translate(-579.781 6690.382)" fill="#003b7d"/>
            <path id="Path_74672" data-name="Path 74672" d="M591.477-6641.127l1.014.584v-34.31l-1.014-.585Z" transform="translate(-571.699 6688.093)" fill="#d4ecff"/>
            <path id="Path_74673" data-name="Path 74673" d="M609.548-6651.566l1.017.587v-34.311l-1.017-.586Z" transform="translate(-595.961 6694.957)" fill="#003b7d"/>
            <path id="Path_74674" data-name="Path 74674" d="M603.524-6648.086l1.015.586v-34.31l-1.015-.585Z" transform="translate(-587.873 6692.668)" fill="#d4ecff"/>
            <path id="Path_74675" data-name="Path 74675" d="M621.6-6658.526l1.017.587v-34.311l-1.017-.588Z" transform="translate(-612.136 6699.535)" fill="#003b7d"/>
            <path id="Path_74676" data-name="Path 74676" d="M615.575-6655.046l1.016.588v-34.311l-1.016-.586Z" transform="translate(-604.051 6697.245)" fill="#d4ecff"/>
            <path id="Path_74677" data-name="Path 74677" d="M633.648-6665.482l1.017.585V-6699.2l-1.017-.587Z" transform="translate(-628.315 6704.107)" fill="#003b7d"/>
            <path id="Path_74678" data-name="Path 74678" d="M627.624-6662l1.015.586v-34.31l-1.015-.587Z" transform="translate(-620.225 6701.819)" fill="#d4ecff"/>
            <path id="Path_74679" data-name="Path 74679" d="M645.7-6672.438l1.017.587v-34.311l-1.017-.586Z" transform="translate(-644.492 6708.681)" fill="#003b7d"/>
            <path id="Path_74680" data-name="Path 74680" d="M639.677-6668.961l1.014.584v-34.308l-1.014-.587Z" transform="translate(-636.406 6706.396)" fill="#d4ecff"/>
          </g>
        </g>
      </g>
      <g id="Group_22241" data-name="Group 22241" transform="translate(0 73.852)">
        <g id="Group_22095" data-name="Group 22095" transform="translate(15.966 27.027)">
          <g id="Group_22093" data-name="Group 22093" transform="translate(0)">
            <g id="Group_22084" data-name="Group 22084" transform="translate(0 0.403)">
              <path id="Path_38861" data-name="Path 38861" d="M734.634-6599.838a.692.692,0,0,1,.311-.654l.023-.011.024-.013.023-.013.023-.013.023-.014.023-.012.023-.014.023-.011.023-.013.023-.013.023-.013.023-.013.022-.013.024-.013.023-.012.023-.014.023-.012.024-.013.023-.013.024-.013.023-.013.024-.012.023-.012.023-.013.024-.013a.693.693,0,0,1,.705.069l2.054,1.187a2.2,2.2,0,0,1,.994,1.722v5.657a.687.687,0,0,1-.311.653l-.022.013-.024.013-.023.012-.024.013-.023.013-.024.012-.023.014-.024.012-.023.014-.023.012-.023.012-.023.013-.023.013-.023.014-.024.012-.023.013-.024.012-.023.013-.024.013-.023.013-.023.012-.024.013-.023.013-.023.012-.023.013a.7.7,0,0,1-.706-.069l-2.054-1.186a2.2,2.2,0,0,1-.994-1.723Z" transform="translate(-734.63 6600.87)" fill="#d4ecff"/>
            </g>
            <g id="Group_22085" data-name="Group 22085" transform="translate(2.156)">
              <path id="Path_38862" data-name="Path 38862" d="M731.652-6601.41c0-.567.4-.8.891-.513l2.619,1.515v.356l-2.619-1.515c-.321-.186-.587-.034-.587.336v.35l-.308-.185Z" transform="translate(-731.648 6602.045)" fill="#d4ecff"/>
            </g>
            <g id="Group_22086" data-name="Group 22086" transform="translate(2.16 2.628)">
              <path id="Path_38863" data-name="Path 38863" d="M731.849-6594.282v6.561a1.294,1.294,0,0,0,.582,1.009l2.656,1.533v.355l-2.656-1.533a1.971,1.971,0,0,1-.891-1.54v-6.474A.735.735,0,0,0,731.849-6594.282Z" transform="translate(-731.54 6594.371)" fill="#d4ecff"/>
            </g>
            <g id="Group_22087" data-name="Group 22087" transform="translate(1.9 0.174)">
              <path id="Path_38864" data-name="Path 38864" d="M735.413-6600.081l-.344.208-2.669-1.447h-.212l.013.787-.336.186-.224-.439.375-.437.509-.315Z" transform="translate(-731.641 6601.538)" fill="#d4ecff"/>
            </g>
            <g id="Group_22088" data-name="Group 22088" transform="translate(1.819 0.206)">
              <path id="Path_38865" data-name="Path 38865" d="M732.646-6600.81c0-.567.4-.8.891-.514l2.619,1.517v.355l-2.619-1.516c-.321-.185-.583-.034-.583.336v.35l-.308-.185Z" transform="translate(-732.646 6601.445)" fill="#023b7d"/>
            </g>
            <g id="Group_22089" data-name="Group 22089" transform="translate(2.109 9.264)">
              <path id="Path_38866" data-name="Path 38866" d="M735.138-6572.437l-.345.206-2.1-1.054-1-.646-.147-.475-.006-.587.508.785,1.352.9Z" transform="translate(-731.541 6574.992)" fill="#d4ecff"/>
            </g>
            <g id="Group_22090" data-name="Group 22090" transform="translate(1.819 2.835)">
              <path id="Path_38867" data-name="Path 38867" d="M732.847-6593.678v6.561a1.292,1.292,0,0,0,.583,1.01l2.655,1.531v.356l-2.655-1.533a1.97,1.97,0,0,1-.891-1.54v-6.474A.718.718,0,0,0,732.847-6593.678Z" transform="translate(-732.539 6593.767)" fill="#023b7d"/>
            </g>
            <g id="Group_22092" data-name="Group 22092" transform="translate(0.003 0.719)">
              <g id="Group_22091" data-name="Group 22091">
                <path id="Path_38868" data-name="Path 38868" d="M737.389-6591.856l2.054,1.187c.552.317.994.06.994-.574v-5.657a2.2,2.2,0,0,0-.994-1.724l-2.054-1.186c-.551-.316-.993-.06-.993.573v5.657A2.193,2.193,0,0,0,737.389-6591.856Z" transform="translate(-736.396 6599.945)" fill="#023b7d"/>
              </g>
            </g>
          </g>
          <g id="Group_22094" data-name="Group 22094" transform="translate(5.362 11.82)">
            <path id="Path_38869" data-name="Path 38869" d="M731.887-6567.531l-.344.207v.356l.344-.207Z" transform="translate(-731.543 6567.531)" fill="#353636"/>
          </g>
        </g>
        <g id="Group_22129" data-name="Group 22129" transform="translate(36.442 28.162)">
          <path id="Path_38885" data-name="Path 38885" d="M617.459-6571.47,580.507-6592.4v-6.333l36.952,20.93Z" transform="translate(-580.507 6598.731)" fill="#44424d"/>
        </g>
        <g id="Group_22134" data-name="Group 22134" transform="translate(69.115 43.052)">
          <g id="Group_22131" data-name="Group 22131" transform="translate(0)">
            <g id="Group_22130" data-name="Group 22130">
              <path id="Path_38886" data-name="Path 38886" d="M571.851-6541.919l-10.269-5.934.428-4.128-.532-3.271,9.242,2.663S573.249-6548.556,571.851-6541.919Z" transform="translate(-561.477 6555.251)" fill="#023b7d"/>
            </g>
          </g>
        </g>
        <g id="Group_22153" data-name="Group 22153" transform="translate(18.908 0.929)">
          <g id="Group_22151" data-name="Group 22151" transform="translate(0)">
            <g id="Group_22137" data-name="Group 22137">
              <g id="Group_22136" data-name="Group 22136">
                <path id="Path_38888" data-name="Path 38888" d="M659.517-6661.909a8.189,8.189,0,0,1,3.283-4.15l21.126-12.2v27.7c-.943.477-2.063,1.087-3.389,1.853l-3.952,2.283a14.122,14.122,0,0,0-6.39,11.068v2.205c0,.168.007.331.016.492l-15.287,8.619v-17.031A83.3,83.3,0,0,1,659.517-6661.909Z" transform="translate(-654.924 6678.256)" fill="#023b7d"/>
              </g>
            </g>
            <g id="Group_22143" data-name="Group 22143" transform="translate(3.019 4.663)">
              <path id="Path_38889" data-name="Path 38889" d="M688.862-6664.64l-17.03,9.83s-4.71,11.049-4.809,21.262l21.839-16.792Z" transform="translate(-667.023 6664.64)" fill="#536873"/>
              <g id="Group_38285" data-name="Group 38285">
                <g id="Group_41919" data-name="Group 41919">
                  <g id="Group_41918" data-name="Group 41918" clip-path="url(#clip-path-4)">
                    <g id="Group_38284" data-name="Group 38284" transform="translate(-3.659 2.168)">
                      <g id="Group_22142" data-name="Group 22142" transform="translate(0)">
                        <g id="Group_22139" data-name="Group 22139" transform="translate(5.833)">
                          <g id="Group_22138" data-name="Group 22138">
                            <path id="Path_38890" data-name="Path 38890" d="M652.777-6658.308l20.061,19.8-4.051,3.708-22.827-21.167Z" transform="translate(-645.959 6658.308)" fill="#6f8691"/>
                          </g>
                        </g>
                        <g id="Group_22141" data-name="Group 22141" transform="translate(0 4.961)">
                          <g id="Group_22140" data-name="Group 22140">
                            <path id="Path_38891" data-name="Path 38891" d="M672.405-6643.821l21.639,19.57-1.284,1.539-23.421-19.913Z" transform="translate(-669.339 6643.821)" fill="#6f8691"/>
                          </g>
                        </g>
                      </g>
                    </g>
                  </g>
                </g>
              </g>
            </g>
            <g id="Group_22146" data-name="Group 22146" transform="translate(19.489 7.191)">
              <g id="Group_22145" data-name="Group 22145" transform="translate(0)">
                <g id="Group_22144" data-name="Group 22144">
                  <path id="Path_38893" data-name="Path 38893" d="M681.059-6640.444l-.856.5v-16.813l.856-.5Z" transform="translate(-680.203 6657.258)" fill="#7ad5de"/>
                </g>
              </g>
            </g>
            <g id="Group_22148" data-name="Group 22148" transform="translate(13.632 29.023)">
              <g id="Group_22147" data-name="Group 22147" transform="translate(0 0)">
                <ellipse id="Ellipse_788" data-name="Ellipse 788" cx="5.16" cy="8.937" rx="5.16" ry="8.937" transform="translate(8.937 20.638) rotate(-150)" fill="#adadad"/>
              </g>
            </g>
            <g id="Group_22150" data-name="Group 22150" transform="translate(28.957 26.029)">
              <g id="Group_22149" data-name="Group 22149" transform="translate(0)">
                <path id="Path_38894" data-name="Path 38894" d="M648.911-6600.572s2.179,3.375,1.339,10.308l.544-.258s1.086-8.216-1.929-11.724Z" transform="translate(-648.864 6602.246)" fill="#545454"/>
              </g>
            </g>
          </g>
        </g>
        <g id="Group_22155" data-name="Group 22155" transform="translate(25.107 0.93)">
          <g id="Group_22154" data-name="Group 22154">
            <path id="Path_38895" data-name="Path 38895" d="M566.614-6664.622l30.2,17.688,9.813-.758,13.029-13.116-30.238-17.445s-20.713,11.883-21.588,12.47A4.241,4.241,0,0,0,566.614-6664.622Z" transform="translate(-566.614 6678.253)" fill="#d4ecff"/>
          </g>
        </g>
        <g id="Group_22174" data-name="Group 22174" transform="translate(41.449 18.374)">
          <g id="Group_22171" data-name="Group 22171" transform="translate(0 4.659)">
            <g id="Group_22166" data-name="Group 22166" transform="translate(0 35.713)">
              <g id="Group_22165" data-name="Group 22165" transform="translate(0 0)">
                <g id="Group_22157" data-name="Group 22157">
                  <ellipse id="Ellipse_789" data-name="Ellipse 789" cx="4.323" cy="7.486" rx="4.323" ry="7.486" transform="matrix(-0.866, -0.5, 0.5, -0.866, 7.487, 17.289)" fill="#023b7d"/>
                </g>
                <path id="Path_68825" data-name="Path 68825" d="M629-6500.544l-6.68-4.917a4.674,4.674,0,0,1-1.11-1.223s2.635-1.68,4.571-1.229C627.691-6507.469,629.789-6505.864,629-6500.544Z" transform="translate(-611.169 6508.48)" fill="#023b7d"/>
                <g id="Group_22109-2" data-name="Group 22109-2" transform="translate(3.713 2.051)">
                  <path id="Path_38874-2" data-name="Path 38874-2" d="M642.268-6501.419l-3.541-2.012-7.229,13.063,3.7,2.113Z" transform="translate(-631.498 6503.431)" fill="#023b7d"/>
                </g>
                <g id="Group_22164" data-name="Group 22164" transform="translate(3.377 1.966)">
                  <g id="Group_22159" data-name="Group 22159" transform="translate(0 0)">
                    <ellipse id="Ellipse_790" data-name="Ellipse 790" cx="4.323" cy="7.486" rx="4.323" ry="7.486" transform="translate(7.487 17.289) rotate(-150)" fill="#00bdf2"/>
                  </g>
                  <g id="Group_22160" data-name="Group 22160" transform="translate(2.688 3.005)">
                    <ellipse id="Ellipse_791" data-name="Ellipse 791" cx="2.804" cy="4.856" rx="2.804" ry="4.856" transform="translate(4.856 11.214) rotate(-150)" fill="#d4ecff"/>
                  </g>
                  <g id="Group_22163" data-name="Group 22163" transform="translate(5.3 5.646)">
                    <g id="Group_22162" data-name="Group 22162">
                      <g id="Group_22161" data-name="Group 22161">
                        <path id="Path_38897" data-name="Path 38897" d="M638.249-6481.91c-.193.112-.367.057-.414-.137a.891.891,0,0,1,.319-.766c.227-.189.453-.154.5.08a.881.881,0,0,1-.315.764A.849.849,0,0,1,638.249-6481.91Zm-1.594.495a.313.313,0,0,1-.26.044c-.18-.061-.207-.35-.069-.64s.414-.482.591-.419.207.349.063.646a.907.907,0,0,1-.328.367Zm2.877-2.407a.379.379,0,0,1-.184.059c-.207,0-.294-.237-.194-.537s.352-.543.563-.548.293.237.193.538a.92.92,0,0,1-.378.49Zm-3.582,1.117c-.231.132-.42.023-.42-.243v-.029a.922.922,0,0,1,.428-.726c.231-.133.414-.022.414.251v.02a.924.924,0,0,1-.425.727Zm3.594-3.008c-.155.09-.306.073-.377-.058a.758.758,0,0,1,.2-.758c.207-.237.461-.275.563-.1a.781.781,0,0,1-.2.765.839.839,0,0,1-.183.146Zm-2.868.873a.283.283,0,0,1-.331.006c-.147-.13-.109-.455.074-.726s.444-.382.587-.255.109.454-.069.723a.833.833,0,0,1-.266.253Zm1.6-1.325a.433.433,0,0,1-.1.041c-.227.074-.367-.11-.311-.4a.867.867,0,0,1,.5-.649c.227-.073.367.11.31.4a.927.927,0,0,1-.41.606Z" transform="translate(-635.529 6487.192)" fill="#023b7d"/>
                      </g>
                    </g>
                  </g>
                </g>
              </g>
            </g>
            <g id="Group_22170" data-name="Group 22170" transform="translate(10.718)">
              <path id="Path_38899" data-name="Path 38899" d="M600.557-6613.708l-17.03,9.829s-4.711,11.049-4.809,21.261l21.839-16.787Z" transform="translate(-578.718 6613.708)" fill="#2d1f2e"/>
            </g>
          </g>
          <path id="Path_68826" data-name="Path 68826" d="M573.341-6589.982a85.208,85.208,0,0,1,5.073-20.983,8.188,8.188,0,0,1,3.283-4.151l21.126-12.2v37.416c-.711.411-6.84,3.991-11.76,6.79-1.8,1.027-6.235,3.6-7.126,4.118.554-3.143-.114-5.836-2.018-6.935-2.788-1.614-7.218.775-10.186,5.362a14.77,14.77,0,0,0-1.713,3.36,12.09,12.09,0,0,0-.807,6.7l-.1.058-2.494,1.5Z" transform="translate(-566.124 6627.313)" fill="#00bdf2"/>
          <g id="Group_22173" data-name="Group 22173" transform="translate(10.718 4.659)">
            <g id="Group_22172" data-name="Group 22172">
              <path id="Path_38900" data-name="Path 38900" d="M600.557-6613.708l-17.03,9.829s-4.711,11.049-4.809,21.261l21.839-16.787Z" transform="translate(-578.718 6613.708)" fill="#023b7d"/>
            </g>
          </g>
        </g>
        <g id="Group_22182" data-name="Group 22182" transform="translate(35.558)">
          <g id="Group_22179" data-name="Group 22179" transform="translate(0 0.007)">
            <g id="Group_22176" data-name="Group 22176">
              <g id="Group_22175" data-name="Group 22175">
                <path id="Path_38901" data-name="Path 38901" d="M634.324-6670.614l-17.832-10.336-11.68,14.023,17.833,10.336Z" transform="translate(-604.812 6680.95)" fill="#d4ecff"/>
              </g>
            </g>
            <g id="Group_22178" data-name="Group 22178" transform="translate(17.832 10.336)">
              <g id="Group_22177" data-name="Group 22177" transform="translate(0)">
                <path id="Path_38902" data-name="Path 38902" d="M616.492-6650.766c-8.446,4.876-11.68,14.023-11.68,14.023l11.657-6.729Z" transform="translate(-604.812 6650.766)" fill="#00bdf2"/>
              </g>
            </g>
          </g>
          <g id="Group_22181" data-name="Group 22181" transform="translate(0)">
            <g id="Group_22180" data-name="Group 22180" transform="translate(0)">
              <path id="Path_38903" data-name="Path 38903" d="M668.565-6680.969c-8.446,4.876-11.68,14.023-11.68,14.023l11.658-6.729Z" transform="translate(-656.885 6680.969)" fill="#d4ecff"/>
            </g>
          </g>
        </g>
        <g id="Group_22193" data-name="Group 22193" transform="translate(52.48 44.563)">
          <g id="Group_22183" data-name="Group 22183" transform="translate(0.374 5.487)">
            <path id="Path_38904" data-name="Path 38904" d="M630.133-6530.255l2.655,1.532c.321.186.583.035.583-.336v-5.728a.753.753,0,0,0,.082.008.6.6,0,0,0,.227-.037v5.934c0,.566-.4.8-.891.513l-2.655-1.532Z" transform="translate(-630.133 6534.815)" fill="#d4ecff"/>
          </g>
          <g id="Group_22184" data-name="Group 22184" transform="translate(1.324 2.422)">
            <path id="Path_38905" data-name="Path 38905" d="M624.138-6542.733a.687.687,0,0,1,.31-.652l.023-.013.023-.013.023-.014.023-.013.023-.012.023-.013.024-.012.023-.013.023-.013.024-.014.023-.012.023-.013.023-.013.024-.013.023-.013.023-.013.023-.013.023-.012.023-.014.024-.013.023-.012.023-.012.024-.013.023-.013.024-.013a.694.694,0,0,1,.706.068l2.054,1.187a2.2,2.2,0,0,1,.994,1.723v5.656a.692.692,0,0,1-.311.654l-.023.012-.024.014-.023.012-.023.012-.023.014-.024.013-.022.013-.023.013-.023.012-.023.013-.023.012-.023.014-.023.013-.023.013-.023.013-.023.013-.023.012-.023.013-.023.012-.023.014-.023.013-.024.013-.023.013-.024.013-.023.012a.693.693,0,0,1-.707-.069l-2.054-1.186a2.2,2.2,0,0,1-.993-1.724Z" transform="translate(-624.134 6543.766)" fill="#d4ecff"/>
          </g>
          <g id="Group_22185" data-name="Group 22185" transform="translate(0.273)">
            <path id="Path_38906" data-name="Path 38906" d="M633.734-6547.958a1.294,1.294,0,0,0-.583-1.009l-2.619-1.515v-.357l2.619,1.516a1.971,1.971,0,0,1,.891,1.54v.166l-.309-.171Z" transform="translate(-630.533 6550.838)" fill="#d4ecff"/>
          </g>
          <g id="Group_22186" data-name="Group 22186" transform="translate(0 0.004)">
            <path id="Path_38907" data-name="Path 38907" d="M630.807-6550.828l-.271.168,1.447.849,1.493,1.069.414.688.158.611.27-.168-.12-.477-.283-.6-.4-.336Z" transform="translate(-630.536 6550.828)" fill="#d4ecff"/>
          </g>
          <g id="Group_22187" data-name="Group 22187" transform="translate(0.003 0.169)">
            <path id="Path_38908" data-name="Path 38908" d="M634.525-6547.463a1.289,1.289,0,0,0-.583-1.008l-2.619-1.517v-.355l2.619,1.516a1.974,1.974,0,0,1,.891,1.541v.165l-.308-.17Z" transform="translate(-631.324 6550.344)" fill="#023b7d"/>
          </g>
          <g id="Group_22188" data-name="Group 22188" transform="translate(0.025 10.047)">
            <path id="Path_38909" data-name="Path 38909" d="M630.976-6521.5l-.349.193,1.76,1.174,1.247.528.147.3.147-.043a2.9,2.9,0,0,0,.4-.237c.06-.063-.013-.142-.013-.142l-.28.026-.414-.09Z" transform="translate(-630.627 6521.499)" fill="#d4ecff"/>
          </g>
          <g id="Group_22189" data-name="Group 22189" transform="translate(0.025 10.047)">
            <path id="Path_38910" data-name="Path 38910" d="M630.976-6521.5l-.349.193,1.76,1.174,1.247.528.147.3.147-.043a2.9,2.9,0,0,0,.4-.237c.06-.063-.013-.142-.013-.142l-.28.026-.414-.09Z" transform="translate(-630.627 6521.499)" fill="#d4ecff"/>
          </g>
          <g id="Group_22190" data-name="Group 22190" transform="translate(0.025 5.68)">
            <path id="Path_38911" data-name="Path 38911" d="M631.15-6529.691l2.656,1.534c.321.185.582.034.582-.337v-5.728a.762.762,0,0,0,.082.008.561.561,0,0,0,.227-.037v5.934c0,.567-.4.8-.891.514l-2.656-1.534Z" transform="translate(-631.15 6534.251)" fill="#023b7d"/>
          </g>
          <g id="Group_22192" data-name="Group 22192" transform="translate(1.328 2.744)">
            <g id="Group_22191" data-name="Group 22191">
              <path id="Path_38912" data-name="Path 38912" d="M626.895-6534.735l2.054,1.187c.552.316.994.06.994-.574v-5.657a2.2,2.2,0,0,0-.994-1.723l-2.054-1.187c-.551-.317-.993-.061-.993.574v5.658A2.2,2.2,0,0,0,626.895-6534.735Z" transform="translate(-625.902 6542.825)" fill="#023b7d"/>
            </g>
          </g>
        </g>
        <g id="Group_22194" data-name="Group 22194" transform="translate(19.331 14.562)">
          <path id="Path_38913" data-name="Path 38913" d="M633.888-6617.014,664.17-6599.9c1.417-9.869,3.161-15.394,5.5-21.024l-30-17.524A87.821,87.821,0,0,0,633.888-6617.014Z" transform="translate(-633.888 6638.445)" fill="#023b7d"/>
        </g>
        <g id="Group_22240" data-name="Group 22240" transform="translate(0 35.573)">
          <g id="Group_22197" data-name="Group 22197" transform="translate(0.001 18.826)">
            <g id="Group_22196" data-name="Group 22196" transform="translate(0)">
              <g id="Group_22195" data-name="Group 22195">
                <path id="Path_38914" data-name="Path 38914" d="M768.855-6518.607l5.978-3.509,2.916,5.334-5.433,3.136c-1.426.827-2.641.332-2.874-1.159Z" transform="translate(-768.855 6522.116)" fill="#023b7d"/>
              </g>
            </g>
          </g>
          <g id="Group_22199" data-name="Group 22199" transform="translate(0.004 18.825)">
            <g id="Group_22198" data-name="Group 22198" transform="translate(0)">
              <path id="Path_38915" data-name="Path 38915" d="M779.235-6520.92l-2.136-1.2-5.978,3.509,2.136,1.2Z" transform="translate(-771.121 6522.118)" fill="#d4ecff"/>
            </g>
          </g>
          <g id="Group_22200" data-name="Group 22200" transform="translate(4.06)">
            <path id="Path_38916" data-name="Path 38916" d="M680.167-6548.9l-30.226-17.423,15.331-10.767,30.226,17.423Z" transform="translate(-649.941 6577.091)" fill="#d4ecff"/>
            <path id="Path_38917" data-name="Path 38917" d="M657.6-6502.468l7.666-23.747-15.331,10.766v17.423Z" transform="translate(-619.712 6543.637)" fill="#00bdf2"/>
            <path id="Path_38918" data-name="Path 38918" d="M694.709-6528.229v-17.423l30.226,17.423v17.424Z" transform="translate(-694.709 6556.418)" fill="#023b7d"/>
          </g>
          <g id="Group_22202" data-name="Group 22202" transform="translate(0.001 22.335)">
            <g id="Group_22201" data-name="Group 22201">
              <path id="Path_38919" data-name="Path 38919" d="M725.786-6486.833l-34.522-19.84-.5-2.068-.938-3.129,34.5,19.841,1.438,3.758Z" transform="translate(-689.831 6511.87)" fill="#023b7d"/>
            </g>
          </g>
          <g id="Group_22205" data-name="Group 22205" transform="translate(34.505 38.668)">
            <g id="Group_22204" data-name="Group 22204" transform="translate(0)">
              <g id="Group_22203" data-name="Group 22203">
                <path id="Path_38920" data-name="Path 38920" d="M668.1-6460.666l5.978-3.509,2.915,5.334-5.428,3.136c-1.427.828-2.641.333-2.874-1.16Z" transform="translate(-668.1 6464.175)" fill="#00bdf2"/>
              </g>
            </g>
          </g>
          <g id="Group_22207" data-name="Group 22207" transform="translate(32.37 37.468)">
            <g id="Group_22206" data-name="Group 22206">
              <path id="Path_38921" data-name="Path 38921" d="M684.723-6466.478l-2.136-1.2-5.978,3.508,2.136,1.2Z" transform="translate(-676.609 6467.677)" fill="#d4ecff"/>
            </g>
          </g>
          <g id="Group_22209" data-name="Group 22209" transform="translate(0 21.837)">
            <g id="Group_22208" data-name="Group 22208">
              <path id="Path_38922" data-name="Path 38922" d="M728.417-6495.347l-30.239-17.433-1.355-.542-2.75.494,34.5,19.84Z" transform="translate(-694.072 6513.323)" fill="#d4ecff"/>
            </g>
          </g>
          <g id="Group_22239" data-name="Group 22239" transform="translate(5.891 15.908)">
            <g id="Group_22236" data-name="Group 22236" transform="translate(0)">
              <g id="Group_22219" data-name="Group 22219" transform="translate(8.225 5.211)">
                <g id="Group_22210" data-name="Group 22210" transform="translate(9.397 5.425)">
                  <path id="Path_38923" data-name="Path 38923" d="M725.019-6495.758c.13.073.237.015.237-.138v-3.239a.524.524,0,0,0-.237-.413c-.132-.074-.238-.015-.238.138v3.238A.525.525,0,0,0,725.019-6495.758Z" transform="translate(-724.781 6499.58)" fill="#00bdf2"/>
                </g>
                <g id="Group_22211" data-name="Group 22211" transform="translate(8.223 4.748)">
                  <path id="Path_38924" data-name="Path 38924" d="M728.448-6497.737c.131.074.237.033.237-.1v-3.314a.489.489,0,0,0-.237-.372c-.131-.073-.238-.032-.238.1v3.314A.488.488,0,0,0,728.448-6497.737Z" transform="translate(-728.21 6501.557)" fill="#00bdf2"/>
                </g>
                <g id="Group_22212" data-name="Group 22212" transform="translate(7.047 4.071)">
                  <path id="Path_38925" data-name="Path 38925" d="M731.879-6499.714c.131.074.238.032.238-.1v-3.314a.5.5,0,0,0-.238-.373c-.13-.072-.238-.031-.238.1v3.315A.488.488,0,0,0,731.879-6499.714Z" transform="translate(-731.641 6503.534)" fill="#00bdf2"/>
                </g>
                <g id="Group_22213" data-name="Group 22213" transform="translate(5.873 3.391)">
                  <path id="Path_38926" data-name="Path 38926" d="M735.307-6501.7c.131.073.238.032.238-.1v-3.313a.489.489,0,0,0-.238-.372c-.131-.073-.238-.032-.238.1v3.316A.492.492,0,0,0,735.307-6501.7Z" transform="translate(-735.069 6505.517)" fill="#00bdf2"/>
                </g>
                <g id="Group_22214" data-name="Group 22214" transform="translate(4.699 2.713)">
                  <path id="Path_38927" data-name="Path 38927" d="M738.736-6503.676c.131.073.238.033.238-.1v-3.315a.491.491,0,0,0-.238-.372c-.13-.073-.238-.032-.238.1v3.315A.491.491,0,0,0,738.736-6503.676Z" transform="translate(-738.498 6507.496)" fill="#00bdf2"/>
                </g>
                <g id="Group_22215" data-name="Group 22215" transform="translate(3.525 2.036)">
                  <path id="Path_38928" data-name="Path 38928" d="M742.165-6505.656c.131.073.238.032.238-.1v-3.316a.492.492,0,0,0-.238-.371c-.13-.073-.238-.032-.238.1v3.316A.49.49,0,0,0,742.165-6505.656Z" transform="translate(-741.927 6509.476)" fill="#00bdf2"/>
                </g>
                <g id="Group_22216" data-name="Group 22216" transform="translate(2.35 1.357)">
                  <path id="Path_38929" data-name="Path 38929" d="M745.595-6507.637c.13.074.238.032.238-.1v-3.315a.487.487,0,0,0-.238-.37c-.131-.074-.238-.033-.238.1v3.315A.491.491,0,0,0,745.595-6507.637Z" transform="translate(-745.357 6511.457)" fill="#00bdf2"/>
                </g>
                <g id="Group_22217" data-name="Group 22217" transform="translate(1.175 0.68)">
                  <path id="Path_38930" data-name="Path 38930" d="M749.028-6509.616c.13.074.238.033.238-.1v-3.315a.492.492,0,0,0-.238-.372c-.131-.073-.238-.032-.238.1v3.315A.489.489,0,0,0,749.028-6509.616Z" transform="translate(-748.79 6513.436)" fill="#00bdf2"/>
                </g>
                <g id="Group_22218" data-name="Group 22218" transform="translate(0)">
                  <path id="Path_38931" data-name="Path 38931" d="M752.46-6511.6c.132.074.237.015.237-.137v-3.239a.518.518,0,0,0-.238-.412c-.131-.074-.237-.015-.237.136v3.238A.525.525,0,0,0,752.46-6511.6Z" transform="translate(-752.222 6515.42)" fill="#00bdf2"/>
                </g>
              </g>
              <g id="Group_22227" data-name="Group 22227" transform="translate(19.849 10.995)">
                <g id="Group_22225" data-name="Group 22225" transform="translate(0)">
                  <g id="Group_22220" data-name="Group 22220">
                    <path id="Path_38932" data-name="Path 38932" d="M706.946-6495.013l4.355,2.515v-3.516l-4.355-2.515Z" transform="translate(-706.946 6498.528)" fill="#00bdf2"/>
                  </g>
                  <g id="Group_22221" data-name="Group 22221" transform="translate(0.367 0.528)">
                    <path id="Path_38933" data-name="Path 38933" d="M708.032-6494.1l3.616,2.088v-2.889l-3.616-2.087Z" transform="translate(-708.032 6496.985)" fill="#deeaf2"/>
                  </g>
                  <g id="Group_22224" data-name="Group 22224" transform="translate(0.116 3.839)">
                    <g id="Group_22222" data-name="Group 22222">
                      <path id="Path_38934" data-name="Path 38934" d="M707.051-6485.9l4.2,2.428v-1.424l-4.2-2.428Z" transform="translate(-707.051 6487.318)" fill="#00bdf2"/>
                    </g>
                    <g id="Group_22223" data-name="Group 22223" transform="translate(0.148 0.24)">
                      <path id="Path_38935" data-name="Path 38935" d="M707.681-6485.513l3.84,2.218v-1.107l-3.84-2.217Z" transform="translate(-707.681 6486.619)" fill="#deeaf2"/>
                    </g>
                  </g>
                </g>
                <g id="Group_22226" data-name="Group 22226" transform="translate(4.644 2.656)">
                  <path id="Path_38936" data-name="Path 38936" d="M702.3-6484.4l-1.981-1.144v-5.233l1.135.655Z" transform="translate(-700.318 6490.772)" fill="#003b7d"/>
                </g>
              </g>
              <g id="Group_22235" data-name="Group 22235" transform="translate(0)">
                <g id="Group_22233" data-name="Group 22233" transform="translate(2.269 0.849)">
                  <g id="Group_22228" data-name="Group 22228">
                    <path id="Path_38937" data-name="Path 38937" d="M762.637-6522.128l-4.355-2.514v-3.515l4.355,2.515Z" transform="translate(-758.282 6528.157)" fill="#00bdf2"/>
                  </g>
                  <g id="Group_22229" data-name="Group 22229" transform="translate(0.37 0.525)">
                    <path id="Path_38938" data-name="Path 38938" d="M762.975-6521.647l-3.616-2.088v-2.89l3.616,2.088Z" transform="translate(-759.359 6526.625)" fill="#deeaf2"/>
                  </g>
                  <g id="Group_22232" data-name="Group 22232" transform="translate(0.035 3.789)">
                    <g id="Group_22230" data-name="Group 22230">
                      <path id="Path_38939" data-name="Path 38939" d="M762.825-6513.241l-4.2-2.429v-1.423l4.2,2.428Z" transform="translate(-758.622 6517.093)" fill="#00bdf2"/>
                    </g>
                    <g id="Group_22231" data-name="Group 22231" transform="translate(0.215 0.279)">
                      <path id="Path_38940" data-name="Path 38940" d="M762.893-6512.952l-3.84-2.218v-1.107l3.84,2.218Z" transform="translate(-759.053 6516.277)" fill="#deeaf2"/>
                    </g>
                  </g>
                </g>
                <g id="Group_22234" data-name="Group 22234" transform="translate(0)">
                  <path id="Path_38941" data-name="Path 38941" d="M771.843-6525.892l1.98,1.144v-5.234l-1.135-.655Z" transform="translate(-771.843 6530.637)" fill="#003b7d"/>
                </g>
              </g>
            </g>
            <g id="Group_22237" data-name="Group 22237" transform="translate(20.288 12.042)">
              <ellipse id="Ellipse_792" data-name="Ellipse 792" cx="1.69" cy="0.976" rx="1.69" ry="0.976" transform="translate(1.69 3.903) rotate(-120)" fill="#f2faff"/>
            </g>
            <g id="Group_22238" data-name="Group 22238" transform="translate(3.198 2.297)">
              <path id="Path_38942" data-name="Path 38942" d="M761.309-6523.078a2.641,2.641,0,0,0,1.194,2.068c.66.38,1.2.068,1.2-.69a2.64,2.64,0,0,0-1.195-2.067C761.844-6524.146,761.309-6523.836,761.309-6523.078Z" transform="translate(-761.309 6523.929)" fill="#f2faff"/>
            </g>
          </g>
        </g>
      </g>
    </g>
  </g>
</svg>
