<svg xmlns="http://www.w3.org/2000/svg" width="100" height="100" viewBox="0 0 100 100">
  <g id="news" transform="translate(-3461 11925)">
    <rect id="Rectangle_2348" data-name="Rectangle 2348" width="100" height="100" transform="translate(3461 -11925)" fill="none"/>
    <g id="Group_61566" data-name="Group 61566" transform="translate(3486.319 -11913)">
      <path id="Path_133731" data-name="Path 133731" d="M133.89,136.165l-9.3,5.362a5.924,5.924,0,0,0-2.673,4.627l-.014,36.373c0,1.966,1.388,2.769,3.091,1.788l8.892-5.13Z" transform="translate(-118.518 -111.245)" fill="#023b7d" fill-rule="evenodd"/>
      <path id="Path_133732" data-name="Path 133732" d="M177.441,120.412c0-.555,0-1.146,0-1.765-.006-9.17-.045-43.965-.185-44.272-.411-.906-1.393-1.106-2.471-.485L140.915,93.432a5.92,5.92,0,0,0-2.673,4.626l-.014,44.977-1.216,4.237,37.336-21.5a6.832,6.832,0,0,0,3.093-5.358Z" transform="translate(-128.103 -71.499)" fill="#c8eafd" fill-rule="evenodd"/>
      <path id="Path_133733" data-name="Path 133733" d="M119.25,94.03,115.321,96.3l-.271.172-.264.2-.255.223-.245.245-.233.264-.221.281-.206.3-.19.309-.173.319-.155.327-.134.332-.114.335-.091.336-.066.334-.041.33-.014.324-.013,33.413,0,.576,0,.175v.238l.063.682.033.1a11.207,11.207,0,0,0,4.9,7.45c2.575,1.486,4.854.494,5.106-2.235l.019.007v-.309q.007-.152,0-.311l0-.175h0l.013-46.008.014-.324.041-.33.067-.334.091-.336.113-.335.134-.332.155-.327.173-.319.19-.308.206-.3.22-.282.233-.264.245-.245.255-.223.264-.2.271-.172,33.87-19.543.4-.195.384-.119.364-.045.338.028.307.1-3.52-2.032-.307-.1-.338-.028-.364.045-.384.119-.4.195-33.87,19.543-.271.172-.264.2-.255.223-.245.245-.233.263-.22.282-.206.3-.19.309-.173.319-.155.327-.134.332-.113.335-.091.336-.067.334-.041.33-.014.324V94.03Zm0,3.91-.012,40.6-.011-.007c0,.061.007.121.007.18,0,1.023-.717,1.438-1.6.927a4.592,4.592,0,0,1-1.609-2.679v-2.035h0l.012-32.047c0-.107,0-.215.014-.324s.023-.219.041-.331.04-.222.067-.334.057-.224.091-.336.072-.224.113-.335.087-.222.135-.332.1-.219.155-.327.113-.214.174-.319.124-.208.19-.309.135-.2.206-.3.145-.19.22-.281.154-.179.233-.264.162-.166.245-.245.169-.153.255-.223.174-.137.263-.2.18-.119.271-.172Z" transform="translate(-112.632 -67.97)" fill="#00bdf3" fill-rule="evenodd"/>
      <path id="Path_133734" data-name="Path 133734" d="M212.2,132.336c.34-.2.616-.037.616.356a1.36,1.36,0,0,1-.616,1.066L199.321,141.2c-.34.2-.616.037-.616-.356a1.361,1.361,0,0,1,.616-1.066Z" transform="translate(-167.252 -108.762)" fill="#023b7d" fill-rule="evenodd"/>
      <path id="Path_133735" data-name="Path 133735" d="M212.2,152.424c.34-.2.616-.037.616.354a1.36,1.36,0,0,1-.616,1.067l-12.882,7.437c-.34.2-.616.037-.616-.356a1.362,1.362,0,0,1,.616-1.066Z" transform="translate(-167.252 -121.509)" fill="#023b7d" fill-rule="evenodd"/>
      <path id="Path_133736" data-name="Path 133736" d="M182.408,173.761c.34-.2.616-.037.616.356a1.36,1.36,0,0,1-.616,1.066L152.37,192.526c-.339.2-.616.037-.616-.356a1.362,1.362,0,0,1,.616-1.066Z" transform="translate(-137.458 -135.049)" fill="#023b7d" fill-rule="evenodd"/>
      <path id="Path_133737" data-name="Path 133737" d="M153.353,163.844l13.483-7.785c.34-.2.616-.037.616.356v8.705a1.362,1.362,0,0,1-.616,1.066l-13.483,7.785c-.34.2-.616.036-.616-.356V164.91A1.36,1.36,0,0,1,153.353,163.844Z" transform="translate(-138.082 -123.816)" fill="#00bdf3" fill-rule="evenodd"/>
      <path id="Path_133738" data-name="Path 133738" d="M154.945,145.374a1.359,1.359,0,0,1-.618,1.06c-.338.193-.611.029-.608-.363l.072-7.518a1.358,1.358,0,0,1,.618-1.059.4.4,0,0,1,.473-.009h0l4.141,3.55.062-5.541a1.353,1.353,0,0,1,.62-1.057c.339-.191.61-.027.607.366l-.084,7.487A1.272,1.272,0,0,1,160,143c-.264.4-.652.573-.864.391L155,139.846Z" transform="translate(-138.705 -110.097)" fill="#023b7d" fill-rule="evenodd"/>
      <path id="Path_133739" data-name="Path 133739" d="M180.69,130.918c.34-.2.616-.037.616.355a1.361,1.361,0,0,1-.616,1.067l-4.26,2.46c-.339.2-.616.037-.616-.356v-7.155a1.361,1.361,0,0,1,.616-1.066l4.211-2.432c.34-.2.616-.037.616.356a1.362,1.362,0,0,1-.616,1.066l-3.6,2.076v2.025l3.34-1.928c.34-.2.616-.037.616.355a1.361,1.361,0,0,1-.616,1.067l-3.34,1.928v2.287Z" transform="translate(-152.726 -103.339)" fill="#023b7d" fill-rule="evenodd"/>
      <path id="Path_133740" data-name="Path 133740" d="M195,113.512a1.283,1.283,0,0,1,.448-1.12c.329-.285.663-.247.745.086l1.044,4.171,1.245-5.523a1.251,1.251,0,0,1,.764-.919.331.331,0,0,1,.425.281l1.2,4.08,1.1-5.429a1.273,1.273,0,0,1,.751-.938c.328-.09.524.185.438.614l-1.663,8.233h0a1.44,1.44,0,0,1-.422.745c-.326.3-.665.276-.76-.045l-1.242-4.241-1.282,5.687a1.435,1.435,0,0,1-.445.759c-.329.285-.663.247-.745-.086Z" transform="translate(-164.888 -93.488)" fill="#023b7d" fill-rule="evenodd"/>
      <path id="Path_133741" data-name="Path 133741" d="M225.54,97.666c.338-.2.614-.041.616.35a1.357,1.357,0,0,1-.611,1.063l-3.733,2.179v2.163l3.9-2.254c.339-.2.616-.037.616.355V105.1a1.362,1.362,0,0,1-.616,1.066l-4.52,2.61c-.34.2-.616.037-.616-.355a1.361,1.361,0,0,1,.616-1.067l3.9-2.254v-2.156l-3.9,2.254c-.34.2-.616.037-.616-.356v-3.577h0a1.355,1.355,0,0,1,.611-1.061Z" transform="translate(-181.134 -86.76)" fill="#023b7d" fill-rule="evenodd"/>
      <path id="Path_133742" data-name="Path 133742" d="M167.451,169.489v4.224a1.374,1.374,0,0,1-.6,1.039l-.016.009-13.483,7.785-.016.009c-.332.182-.6.021-.6-.365v-1.6l2.193-3.151,5.064-.015a1.09,1.09,0,0,0,.772-.532l5.119-7.3Z" transform="translate(-138.082 -132.392)" fill="#023b7d" fill-rule="evenodd"/>
      <path id="Path_133743" data-name="Path 133743" d="M182.408,195.1c.34-.2.616-.037.616.356a1.36,1.36,0,0,1-.616,1.066L152.37,213.862c-.339.2-.616.037-.616-.356a1.362,1.362,0,0,1,.616-1.066Z" transform="translate(-137.458 -148.589)" fill="#023b7d" fill-rule="evenodd"/>
      <path id="Path_133744" data-name="Path 133744" d="M137.444,91.32l.023-.032.22-.282.233-.264.245-.245.255-.223.263-.2.272-.172,33.869-19.542.4-.2.384-.119.364-.045.338.028.307.1L171.1,68.1l-.307-.1-.338-.028-.364.044-.384.119-.4.2-33.87,19.543-.271.172-.264.2-.256.223-.245.244-.233.264-.22.282-.022.032Z" transform="translate(-126.143 -67.969)" fill="#00bdf3" fill-rule="evenodd"/>
      <path id="Path_133745" data-name="Path 133745" d="M120.472,139.288l-3.927,2.265-.271.173-.264.2-.255.223-.245.244-.233.265-.221.281-.206.3-.19.309-.1.182,3.385,1.954.1-.18q.09-.157.19-.309c.066-.1.134-.2.206-.3s.145-.19.22-.282.153-.179.234-.265.161-.166.245-.244.169-.153.255-.223.174-.137.264-.2.179-.12.271-.172l.539-.311Z" transform="translate(-113.856 -113.227)" fill="#00bdf3" fill-rule="evenodd"/>
    </g>
  </g>
</svg>
