<svg id="process" xmlns="http://www.w3.org/2000/svg" width="100" height="100" viewBox="0 0 100 100">
  <rect id="Rectangle_2351" data-name="Rectangle 2351" width="100" height="100" fill="none"/>
  <g id="gear" transform="translate(19.895 16)">
    <path id="Path_52999" data-name="Path 52999" d="M2874.815-3071.336l-10.571-6.1-5.982,1.248,10.571,6.1Z" transform="translate(-2814.605 3090.494)" fill="#caecff" fill-rule="evenodd"/>
    <path id="Path_53000" data-name="Path 53000" d="M2909.049-3116.012l-10.572-6.107-5.581,6.545,10.573,6.1Z" transform="translate(-2858.959 3122.119)" fill="#00bdf3" fill-rule="evenodd"/>
    <path id="Path_53001" data-name="Path 53001" d="M2925.733-3093.611l-10.572-6.1-3.171.315,10.572,6.1Z" transform="translate(-2881.222 3106.26)" fill="#caecff" fill-rule="evenodd"/>
    <path id="Path_53002" data-name="Path 53002" d="M2948.032-3112.4l-10.572-6.1-.253.146-.253.146-.253.146-.251.146-.252.144-.253.146-.253.146-.252.146-.251.146-.253.146-.252.146-.253.146-.253.146-.251.146-.252.144-.253.146-.253.146-.252.146-.251.146-.253.146-.252.146-.253.146-.253.146-.25.146-.253.144-.253.146-.252.146-.253.146-.251.146-.252.146-.253.146-.253.146,10.572,6.1.253-.146.253-.146.253-.146.25-.144.253-.146.253-.146.253-.146.253-.146.251-.146.253-.146.252-.146.253-.146.253-.146.25-.146.253-.143.253-.146.252-.146.253-.146.251-.146.253-.146.252-.146.253-.146.253-.146.25-.146.253-.144.253-.146.252-.147.253-.146.253-.146.25-.146.253-.146Z" transform="translate(-2908.602 3119.558)" fill="#caecff" fill-rule="evenodd"/>
    <path id="Path_53003" data-name="Path 53003" d="M2969.512-3096.439l-10.572-6.1-1.909,8.008,10.571,6.106Z" transform="translate(-2938.16 3108.262)" fill="#00bdf3" fill-rule="evenodd"/>
    <path id="Path_53004" data-name="Path 53004" d="M2977.31-3069.03l-10.572-6.107-3.172,3.35,10.571,6.1Z" transform="translate(-2947.868 3088.864)" fill="#caecff" fill-rule="evenodd"/>
    <path id="Path_53005" data-name="Path 53005" d="M2990.573-3057.812l-10.572-6.1-5.579-.1,10.572,6.1Z" transform="translate(-2964.303 3080.994)" fill="#00bdf3" fill-rule="evenodd"/>
    <path id="Path_53006" data-name="Path 53006" d="M3009.791-3057.914l-10.571-6.1-.177.309-.179.308-.178.309-.177.308-.179.31-.178.308-.177.309-.179.308-.178.308-.179.308-.177.308-.179.311-.179.309-.177.308-.179.309-.179.308-.177.308-.178.311-.179.309-.177.308-.178.308-.179.308-.177.308-.178.309-.179.311-.179.308-.175.308-.179.308-.18.308-.175.31-.179.308-.179.311,10.573,6.1.179-.308.179-.308.177-.311.178-.309.179-.308.177-.308.179-.308.179-.308.179-.309.175-.31.179-.308.179-.308.177-.308.179-.309.179-.309.177-.308.178-.311.179-.308.177-.308.179-.308.179-.308.178-.308.177-.311.179-.308.178-.308.177-.309.179-.308.178-.308.177-.308.179-.311.179-.308Z" transform="translate(-2989.099 3080.993)" fill="#caecff" fill-rule="evenodd"/>
    <path id="Path_53007" data-name="Path 53007" d="M3013.745-3024.108l-10.572-6.1,2.88,4.779-1.315,4.42,10.572,6.107,1.315-4.422Z" transform="translate(-2998.756 3057.064)" fill="#00bdf3" fill-rule="evenodd"/>
    <path id="Path_53008" data-name="Path 53008" d="M3024.232-2992.625l-10.572-6.107-5.981,5.661,10.572,6.1Z" transform="translate(-3007.678 3034.783)" fill="#caecff" fill-rule="evenodd"/>
    <path id="Path_53009" data-name="Path 53009" d="M3013.748-2973.248l-10.572-6.1v9.325l6.542,3.778-2.123,5.98,10.57,6.106,2.879-8.1-1.315-2.9-5.981-3.453Z" transform="translate(-3003.176 3021.065)" fill="#00bdf3" fill-rule="evenodd"/>
    <path id="Path_53010" data-name="Path 53010" d="M2967.6-2920.134l-10.571-6.1,1.91,5.805,10.572,6.1Z" transform="translate(-2938.158 2983.469)" fill="#00bdf3" fill-rule="evenodd"/>
    <path id="Path_53011" data-name="Path 53011" d="M2936.3-3015.23l-10.572-6.1.189.1.2.083.2.064.209.049.216.029.22.015.224,0,.228-.016.232-.033.234-.049.239-.064.241-.077.242-.093.242-.106.245-.12.244-.135.244-.148.245-.16.244-.176.243-.187.238-.2.239-.212.237-.224.234-.234.227-.247.224-.257.22-.269.214-.279.209-.29.2-.3.2-.31.191-.318.181-.325.169-.325.158-.327.146-.325.134-.327.124-.324.111-.322.1-.321.088-.318.075-.317.064-.312.054-.307.041-.3.03-.3.016-.292.006-.286-.006-.279-.016-.273-.03-.263-.041-.257-.054-.247-.064-.239-.075-.226-.088-.219-.1-.207-.111-.2-.124-.183-.134-.17-.146-.156-.158-.145-.169-.131-.181-.115,10.571,6.1.181.117.168.129.159.144.146.158.134.171.123.182.112.2.1.2.088.218.076.228.063.237.054.249.041.255.029.266.017.271.006.279-.006.286-.017.292-.029.3-.041.3-.054.308-.063.311-.076.316-.088.319-.1.321-.112.321-.123.325-.134.326-.146.327-.159.325-.168.325-.181.325-.19.318-.2.31-.2.3-.208.288-.216.279-.219.27-.224.257-.228.247-.232.236-.237.222-.239.212-.239.2-.242.187-.245.176-.244.16-.244.148-.245.135-.245.122-.242.107-.243.092-.24.078-.238.063-.234.047-.232.033-.228.016-.224,0-.22-.015-.216-.03-.21-.047-.2-.066-.2-.081Z" transform="translate(-2904.521 3059.629)" fill="#003b7d" fill-rule="evenodd"/>
    <path id="Path_53012" data-name="Path 53012" d="M2900.6-3068.761l1.315-4.421,5.982-5.659v-9.326l-5.982,1.248-1.315-2.9,2.878-8.1-5.7-3.29-5.579,6.542-3.171.315-1.91-5.8q-4.039,2.333-8.078,4.664l-1.91,8.011-3.172,3.348-5.578-.1q-2.849,4.94-5.7,9.878l2.88,4.779-1.315,4.422-5.982,5.659v9.326l5.982-1.247,1.315,2.9-2.877,8.1,5.7,3.291,5.576-6.543,3.172-.315,1.91,5.8q4.039-2.33,8.078-4.664l1.91-8.01,3.174-3.349,5.576.1q2.852-4.936,5.7-9.877l-2.878-4.779Zm-13.915,1.669c-1.993,3.451-5.225,5.318-7.217,4.167s-1.994-4.882,0-8.333,5.223-5.318,7.217-4.167,1.994,4.882,0,8.334Z" transform="translate(-2847.685 3107.325)" fill="#003b7d" fill-rule="evenodd"/>
    <path id="Path_53013" data-name="Path 53013" d="M2889.606-3028.193l-3.182,5.513,2.88,4.779-1.315,4.423-5.982,5.659v9.326l5.982-1.247,1.315,2.9-2.877,8.1q2.849,1.643,5.7,3.291l5.577-6.543,3.172-.315,1.91,5.805q4.039-2.331,8.079-4.665l1.909-8.01,3.174-3.349,5.576.1,3.182-5.511-13.955-8.058c-.1.2-.206.389-.317.582-1.994,3.451-5.225,5.318-7.217,4.167s-1.994-4.882,0-8.333q.166-.29.345-.565Z" transform="translate(-2871.435 3055.636)" fill="#003b7d" fill-rule="evenodd"/>
    <path id="Path_53014" data-name="Path 53014" d="M2918.721-3030.372c5.575-9.653,5.575-20.087,0-23.306s-14.609,2-20.182,11.653-5.572,20.086,0,23.3S2913.148-3020.719,2918.721-3030.372Zm-6.481-3.743c-1.994,3.451-5.225,5.318-7.217,4.166s-1.994-4.882,0-8.333,5.223-5.318,7.217-4.167S2914.234-3037.566,2912.24-3034.115Z" transform="translate(-2873.24 3074.348)" fill="#caecff" fill-rule="evenodd"/>
    <path id="Path_53015" data-name="Path 53015" d="M2909.288-3029.87c4.231-7.33,11.092-11.292,15.324-8.849s4.233,10.366,0,17.7-11.093,11.289-15.324,8.848-4.233-10.367,0-17.7Zm11.271,6.506c1.994-3.452,1.994-7.185,0-8.334s-5.225.715-7.217,4.167-1.994,7.184,0,8.333,5.223-.715,7.217-4.166Z" transform="translate(-2881.559 3063.597)" fill="#caecff" fill-rule="evenodd"/>
  </g>
</svg>
